<svg xmlns="http://www.w3.org/2000/svg" version="1.0" width="386.271" height="76.041" xml:space="preserve"><path fill="#70a32e" d="M0 0h47.632v47.632H0z"/><path d="M21.469 41.402V18.104h4.685v23.298zm-.135-27.892V8.546h4.959v4.964z" fill="#fff"/><path fill="#76b364" d="M56.44 0h47.633v47.632H56.44z"/><path d="M85.011 41.402V27.205c0-3.633-2.068-5.195-4.691-5.195-2.62 0-4.819 1.611-4.819 5.195v14.197h-4.689V18.104h4.597v2.347c1.606-1.749 3.854-2.62 6.204-2.62 2.387 0 4.364.778 5.74 2.107 1.789 1.749 2.342 3.957 2.342 6.58v14.884z" fill="#fff"/><path fill="#1e622c" d="M112.879 0h47.633v47.632h-47.633z"/><path d="M141.456 31.106h-5.467c-2.757 0-4.179 1.241-4.179 3.356 0 2.119 1.329 3.311 4.267 3.311 1.799 0 3.131-.135 4.37-1.332.69-.693 1.009-1.789 1.009-3.449zm.093 10.296v-2.113c-1.699 1.701-3.306 2.394-6.205 2.394-2.894 0-4.82-.692-6.249-2.118-1.194-1.238-1.837-3.031-1.837-5.009 0-3.907 2.709-6.708 8.04-6.708h6.158v-1.656c0-2.938-1.467-4.363-5.102-4.363-2.571 0-3.807.594-5.1 2.251l-3.073-2.894c2.204-2.576 4.499-3.354 8.364-3.354 6.381 0 9.598 2.708 9.598 7.995v15.576h-4.594z" fill="#fff"/><path fill="#3c55a2" d="M169.319 0h47.633v47.632h-47.633z"/><path d="M196.259 41.402c-4.365 0-6.386-3.125-6.386-6.479V22.101h-2.665v-3.58h2.665v-7.08h4.686v7.08h4.509v3.58h-4.509v12.596c0 1.697.828 2.704 2.574 2.704h1.935v4.001z" fill="#fff"/><path fill="#00a26d" d="M225.759 0h47.632v47.632h-47.632z"/><path d="M254.414 41.402v-2.344c-1.613 1.748-3.862 2.624-6.207 2.624-2.388 0-4.36-.786-5.742-2.118-1.793-1.748-2.344-3.951-2.344-6.572V18.104h4.689V32.3c0 3.633 2.066 5.197 4.687 5.197 2.621 0 4.824-1.613 4.824-5.197V18.104h4.685v23.298z" fill="#fff"/><path fill="#34a938" d="M282.199 0h47.632v47.632h-47.632z"/><path d="M313.325 23.505c-1.059-1.059-1.883-1.563-3.491-1.563-2.53 0-4.641 2.023-4.641 5.238v14.15h-4.691V18.035h4.604v2.529c1.189-1.656 3.576-2.805 6.2-2.805 2.253 0 3.946.595 5.563 2.208z" fill="#fff"/><path fill="#76b364" d="M338.638 0h47.633v47.632h-47.633z"/><path d="M367.212 31.106h-5.47c-2.753 0-4.184 1.241-4.184 3.356 0 2.119 1.336 3.311 4.276 3.311 1.791 0 3.126-.135 4.363-1.332.688-.693 1.014-1.789 1.014-3.449v-1.886zm.086 10.296v-2.113c-1.696 1.701-3.306 2.394-6.194 2.394-2.899 0-4.832-.692-6.257-2.118-1.187-1.238-1.838-3.031-1.838-5.009 0-3.907 2.713-6.708 8.05-6.708h6.153v-1.656c0-2.938-1.472-4.363-5.101-4.363-2.572 0-3.819.594-5.104 2.251l-3.074-2.894c2.203-2.576 4.503-3.354 8.358-3.354 6.391 0 9.608 2.708 9.608 7.995v15.576h-4.601z" fill="#fff"/><path fill="#575756" d="M49.22 73.044h-1.582V58.225h1.498l7.868 11.843V58.225h1.581v14.819h-1.498L49.22 61.16zm19.194-4.725h-2.873c-1.54 0-2.289.625-2.289 1.812 0 1.186.729 1.748 2.352 1.748.874 0 1.645-.063 2.29-.687.354-.333.521-.916.521-1.769v-1.104zm0 4.725v-.978c-.833.832-1.582 1.103-2.956 1.103-1.416 0-2.248-.271-2.893-.937-.5-.5-.77-1.27-.77-2.082 0-1.79 1.249-2.956 3.538-2.956h3.081v-.978c0-1.499-.75-2.248-2.623-2.248-1.312 0-1.978.313-2.581 1.166l-1.02-.937c.916-1.186 1.956-1.519 3.621-1.519 2.748 0 4.101 1.186 4.101 3.413v6.952h-1.498zm8.015 0c-1.748 0-2.622-1.228-2.622-2.748V64.01h-1.291v-1.145h1.291V59.66h1.499v3.205h2.185v1.145h-2.185v6.244c0 .937.437 1.499 1.395 1.499h.791v1.291zm10.513 0v-1.145c-.729.833-1.749 1.27-2.893 1.27-1.103 0-2.019-.333-2.644-.958-.729-.707-1.041-1.686-1.041-2.872v-6.535h1.499v6.306c0 1.811.958 2.727 2.498 2.727 1.54 0 2.56-.937 2.56-2.727v-6.306h1.499v10.24zm10.951-8.284c-.562-.562-.978-.75-1.769-.75-1.499 0-2.456 1.187-2.456 2.748v6.286h-1.499v-10.24h1.499v1.248c.562-.854 1.686-1.373 2.873-1.373.978 0 1.727.229 2.456.957zm4.831 6.452v3.185l-1.831 1.644v-4.829zm16.216-.499h-1.353l-4.121-8.929v11.26h-1.582V58.225h1.582l4.829 10.511 4.704-10.511h1.582v14.819h-1.582v-11.26zm15.698-5.224c-.395-.937-1.311-1.54-2.393-1.54-1.082 0-1.998.604-2.393 1.54-.229.562-.271.874-.313 1.706h5.412c-.042-.832-.084-1.144-.313-1.706zm-5.099 2.83c0 2.249 1.062 3.539 3.018 3.539 1.187 0 1.873-.354 2.685-1.166l1.02.895c-1.041 1.041-1.998 1.583-3.746 1.583-2.706 0-4.475-1.624-4.475-5.246 0-3.309 1.602-5.244 4.204-5.244 2.643 0 4.204 1.915 4.204 4.953v.687h-6.91zm16.654 4.725v-6.306c0-1.811-.978-2.727-2.519-2.727-1.54 0-2.539.937-2.539 2.727v6.306h-1.498v-10.24h1.498v1.123c.729-.832 1.728-1.248 2.872-1.248 1.104 0 1.998.333 2.623.957.728.708 1.061 1.666 1.061 2.852v6.556zm8.37.125c-1.728 0-3.08-.396-4.204-1.478l.999-.999c.811.854 1.914 1.187 3.184 1.187 1.686 0 2.727-.604 2.727-1.811 0-.895-.52-1.395-1.707-1.499l-1.686-.146c-1.998-.167-3.059-1.062-3.059-2.747 0-1.873 1.581-2.997 3.767-2.997 1.457 0 2.768.354 3.684 1.103l-.978.979c-.729-.562-1.665-.812-2.727-.812-1.499 0-2.29.645-2.29 1.686 0 .875.5 1.395 1.79 1.499l1.645.146c1.79.167 3.018.854 3.018 2.768 0 1.975-1.686 3.121-4.163 3.121zm11.076 0c-2.581 0-4.538-1.749-4.538-5.246 0-3.496 1.957-5.244 4.538-5.244 1.415 0 2.31.374 3.371 1.519l-1.02.958c-.77-.854-1.373-1.145-2.351-1.145-.999 0-1.832.396-2.373 1.166-.479.666-.666 1.457-.666 2.747 0 1.291.187 2.082.666 2.748.541.77 1.374 1.166 2.373 1.166.978 0 1.581-.313 2.351-1.166l1.02.978c-1.061 1.144-1.956 1.519-3.371 1.519zm12.781-.125v-6.327c0-1.79-.957-2.706-2.497-2.706s-2.56.937-2.56 2.706v6.327h-1.499V58.225h1.499v5.702c.749-.853 1.727-1.248 2.872-1.248 2.31 0 3.684 1.478 3.684 3.788v6.577zm16.802 0v-1.145c-.729.833-1.749 1.27-2.893 1.27-1.103 0-2.019-.333-2.644-.958-.728-.707-1.04-1.686-1.04-2.872v-6.535h1.498v6.306c0 1.811.958 2.727 2.498 2.727 1.54 0 2.56-.937 2.56-2.727v-6.306h1.499v10.24zm11.783 0v-6.306c0-1.811-.978-2.727-2.518-2.727-1.54 0-2.539.937-2.539 2.727v6.306h-1.499v-10.24h1.499v1.123c.728-.832 1.727-1.248 2.872-1.248 1.102 0 1.998.333 2.622.957.728.708 1.061 1.666 1.061 2.852v6.556zm8.683-9.033c-2.228 0-2.581 1.915-2.581 3.913 0 1.999.354 3.914 2.581 3.914s2.561-1.915 2.561-3.914c-.001-1.998-.334-3.913-2.561-3.913zm2.581 9.033v-1.228c-.832 1.082-1.79 1.353-2.914 1.353-1.04 0-1.956-.354-2.497-.895-1.041-1.041-1.249-2.748-1.249-4.351 0-1.602.208-3.309 1.249-4.35.541-.541 1.457-.895 2.497-.895 1.124 0 2.061.249 2.894 1.311v-5.765h1.498v14.819h-1.478zm13.657 0V59.64h-4.288v-1.415h10.157v1.415h-4.287v13.404zm12.821-7.555c-.396-.937-1.312-1.54-2.394-1.54s-1.998.604-2.395 1.54c-.229.562-.27.874-.312 1.706h5.411c-.039-.832-.081-1.144-.31-1.706zm-5.1 2.83c0 2.249 1.061 3.539 3.018 3.539 1.187 0 1.874-.354 2.686-1.166l1.02.895c-1.041 1.041-1.998 1.583-3.746 1.583-2.707 0-4.475-1.624-4.475-5.246 0-3.309 1.602-5.244 4.204-5.244 2.644 0 4.204 1.915 4.204 4.953v.687h-6.911zm14.073 4.85c-2.58 0-4.536-1.749-4.536-5.246 0-3.496 1.956-5.244 4.536-5.244 1.415 0 2.311.374 3.371 1.519l-1.019.958c-.771-.854-1.374-1.145-2.353-1.145-.998 0-1.832.396-2.372 1.166-.479.666-.666 1.457-.666 2.747 0 1.291.188 2.082.666 2.748.54.77 1.374 1.166 2.372 1.166.979 0 1.582-.313 2.353-1.166l1.019.978c-1.061 1.144-1.956 1.519-3.371 1.519zm12.782-.125v-6.327c0-1.79-.958-2.706-2.498-2.706-1.54 0-2.559.937-2.559 2.706v6.327h-1.499V58.225h1.499v5.702c.749-.853 1.727-1.248 2.872-1.248 2.309 0 3.683 1.478 3.683 3.788v6.577zm11.701 0v-6.306c0-1.811-.979-2.727-2.519-2.727s-2.539.937-2.539 2.727v6.306h-1.499v-10.24h1.499v1.123c.729-.832 1.728-1.248 2.872-1.248 1.103 0 1.998.333 2.622.957.729.708 1.062 1.666 1.062 2.852v6.556zm5.144 0v-10.24h1.498v10.24zm-.084-13.154v-1.686h1.687v1.686zm6.85 10.198v2.956h-1.499V58.225h1.499v9.907l4.62-5.328h1.873l-3.476 3.913 4.079 6.327h-1.852l-3.246-5.245zm20.88-4.599c-.396-.937-1.313-1.54-2.394-1.54-1.082 0-1.998.604-2.394 1.54-.229.562-.271.874-.313 1.706h5.41c-.039-.832-.08-1.144-.309-1.706zm-5.099 2.83c0 2.249 1.062 3.539 3.018 3.539 1.186 0 1.874-.354 2.686-1.166l1.02.895c-1.041 1.041-1.998 1.583-3.746 1.583-2.706 0-4.475-1.624-4.475-5.246 0-3.309 1.603-5.244 4.204-5.244 2.644 0 4.204 1.915 4.204 4.953v.687h-6.911zm15.82-3.559c-.561-.562-.978-.75-1.768-.75-1.499 0-2.456 1.187-2.456 2.748v6.286h-1.499v-10.24h1.499v1.248c.561-.854 1.685-1.373 2.872-1.373.977 0 1.727.229 2.456.957zm5.602 8.284c-1.79 0-2.604-1.166-2.604-2.727V58.225h1.499v12.03c0 .999.333 1.499 1.374 1.499h.813v1.291h-1.082zm9.135-7.555c-.396-.937-1.312-1.54-2.394-1.54s-1.998.604-2.394 1.54c-.229.562-.271.874-.313 1.706h5.411c-.039-.832-.082-1.144-.31-1.706zm-5.099 2.83c0 2.249 1.062 3.539 3.019 3.539 1.186 0 1.873-.354 2.684-1.166l1.021.895c-1.04 1.041-1.998 1.583-3.746 1.583-2.706 0-4.475-1.624-4.475-5.246 0-3.309 1.603-5.244 4.204-5.244 2.643 0 4.203 1.915 4.203 4.953v.687h-6.91zm14.176-4.308c-2.228 0-2.58 1.915-2.58 3.913 0 1.999.353 3.914 2.58 3.914 2.227 0 2.56-1.915 2.56-3.914 0-1.998-.333-3.913-2.56-3.913zm2.81 8.263c-.542.541-1.457.895-2.498.895-1.124 0-2.06-.271-2.892-1.353v1.228h-1.499V58.225h1.499v5.765c.832-1.062 1.768-1.311 2.892-1.311 1.041 0 1.956.354 2.498.895 1.04 1.041 1.248 2.748 1.248 4.35 0 1.602-.208 3.309-1.248 4.35zm10.494-6.785c-.396-.937-1.312-1.54-2.394-1.54s-1.998.604-2.395 1.54c-.229.562-.27.874-.312 1.706h5.411c-.039-.832-.081-1.144-.31-1.706zm-5.1 2.83c0 2.249 1.061 3.539 3.018 3.539 1.187 0 1.874-.354 2.686-1.166l1.02.895c-1.04 1.041-1.998 1.583-3.747 1.583-2.706 0-4.474-1.624-4.474-5.246 0-3.309 1.602-5.244 4.204-5.244 2.643 0 4.204 1.915 4.204 4.953v.687h-6.911zm16.654 4.725v-6.306c0-1.811-.978-2.727-2.518-2.727-1.54 0-2.539.937-2.539 2.727v6.306h-1.499v-10.24h1.499v1.123c.729-.832 1.727-1.248 2.872-1.248 1.102 0 1.998.333 2.622.957.728.708 1.061 1.666 1.061 2.852v6.556z"/></svg>