<?xml version="1.0" encoding="UTF-8" standalone="no"?>
<svg
   xmlns:dc="http://purl.org/dc/elements/1.1/"
   xmlns:cc="http://creativecommons.org/ns#"
   xmlns:rdf="http://www.w3.org/1999/02/22-rdf-syntax-ns#"
   xmlns:svg="http://www.w3.org/2000/svg"
   xmlns="http://www.w3.org/2000/svg"
   viewBox="0 0 240 240"
   height="240"
   width="240"
   xml:space="preserve"
   id="svg2"
   version="1.1"><metadata
     id="metadata8"><rdf:RDF><cc:Work
         rdf:about=""><dc:format>image/svg+xml</dc:format><dc:type
           rdf:resource="http://purl.org/dc/dcmitype/StillImage" /></cc:Work></rdf:RDF></metadata><defs
     id="defs6"><clipPath
       id="clipPath28"
       clipPathUnits="userSpaceOnUse"><path
         id="path26"
         d="M 0,0 H 180 V 180 H 0 Z" /></clipPath><clipPath
       id="clipPath44"
       clipPathUnits="userSpaceOnUse"><path
         id="path42"
         d="M 0,0 H 180 V 180 H 0 Z" /></clipPath><clipPath
       id="clipPath60"
       clipPathUnits="userSpaceOnUse"><path
         id="path58"
         d="M 0,0 H 180 V 180 H 0 Z" /></clipPath><clipPath
       id="clipPath80"
       clipPathUnits="userSpaceOnUse"><path
         id="path78"
         d="M 0,0 H 180 V 180 H 0 Z" /></clipPath><clipPath
       id="clipPath96"
       clipPathUnits="userSpaceOnUse"><path
         id="path94"
         d="M 0,0 H 180 V 180 H 0 Z" /></clipPath><clipPath
       id="clipPath112"
       clipPathUnits="userSpaceOnUse"><path
         id="path110"
         d="M 0,0 H 180 V 180 H 0 Z" /></clipPath></defs><g
     transform="matrix(1.3333333,0,0,-1.3333333,0,240)"
     id="g10"><path
       id="path12"
       style="fill:#cf113f;fill-opacity:1;fill-rule:nonzero;stroke:none"
       d="M 0,0 H 180 V 180 H 0 Z" /><g
       transform="translate(48.2657,139.4912)"
       id="g14"><path
         id="path16"
         style="fill:#ffffff;fill-opacity:1;fill-rule:nonzero;stroke:none"
         d="m 0,0 h -5.798 l -6.394,-21.291 H -20.62 V 0 h -5.76 v -26.206 h 18.003 l 1.285,5.414 H 0.29 l 1.307,-5.414 h 5.89 z m -5.982,-16.299 2.54,10.736 2.648,-10.736 z" /></g><g
       transform="translate(56.9438,139.4912)"
       id="g18"><path
         id="path20"
         style="fill:#ffffff;fill-opacity:1;fill-rule:nonzero;stroke:none"
         d="m 0,0 h 6.393 l 6.739,-16.28 V 0 h 4.453 V -26.206 H 12.441 L 4.453,-7.238 V -26.206 H 0 Z" /></g><g
       id="g22"><g
         clip-path="url(#clipPath28)"
         id="g24"><g
           transform="translate(95.6579,134.4037)"
           id="g30"><path
             id="path32"
             style="fill:#ffffff;fill-opacity:1;fill-rule:nonzero;stroke:none"
             d="m 0,0 c -1.012,1.945 -2.359,3.279 -4.042,4.002 -1.683,0.723 -3.868,1.085 -6.556,1.085 h -6.201 v -26.205 h 6.893 c 1.881,0 3.448,0.179 4.703,0.538 1.253,0.357 2.38,1.061 3.379,2.111 0.998,1.05 1.805,2.486 2.419,4.31 0.614,1.824 0.921,3.914 0.921,6.269 C 1.516,-4.576 1.011,-1.946 0,0 m -5.206,-13.176 c -0.436,-1.275 -1.02,-2.168 -1.752,-2.681 -0.732,-0.512 -1.764,-0.769 -3.099,-0.769 H -11.04 V 0.595 h 0.983 c 1.258,0 2.249,-0.215 2.975,-0.644 0.725,-0.43 1.328,-1.246 1.81,-2.45 0.48,-1.205 0.722,-2.922 0.722,-5.152 0,-2.408 -0.218,-4.25 -0.656,-5.525" /></g></g></g><g
       transform="translate(100.5628,139.4912)"
       id="g34"><path
         id="path36"
         style="fill:#ffffff;fill-opacity:1;fill-rule:nonzero;stroke:none"
         d="M 0,0 H 15.934 V -4.492 H 5.759 v -6.086 h 7.91 v -4.492 h -7.91 v -6.451 h 10.175 v -4.685 H 0 Z" /></g><g
       id="g38"><g
         clip-path="url(#clipPath44)"
         id="g40"><g
           transform="translate(135.3497,133.7895)"
           id="g46"><path
             id="path48"
             style="fill:#ffffff;fill-opacity:1;fill-rule:nonzero;stroke:none"
             d="m 0,0 -4.761,-1.824 c -0.679,2.163 -1.92,3.245 -3.724,3.245 -0.845,0 -1.514,-0.241 -2.007,-0.72 -0.493,-0.48 -0.739,-1.04 -0.739,-1.68 0,-0.743 0.291,-1.334 0.874,-1.776 0.582,-0.441 1.801,-1.021 3.657,-1.737 1.69,-0.628 3.017,-1.249 3.984,-1.863 0.966,-0.614 1.747,-1.45 2.342,-2.505 0.596,-1.056 0.892,-2.282 0.892,-3.677 0,-2.444 -0.841,-4.451 -2.524,-6.018 -1.683,-1.568 -3.939,-2.352 -6.768,-2.352 -4.748,0 -7.781,2.4 -9.099,7.199 l 5.03,1.441 c 0.614,-2.637 2.015,-3.956 4.204,-3.956 0.998,0 1.808,0.26 2.429,0.778 0.62,0.518 0.931,1.2 0.931,2.045 0,0.639 -0.218,1.212 -0.653,1.718 -0.436,0.505 -1.434,1.039 -2.995,1.603 -2.009,0.717 -3.507,1.366 -4.492,1.949 -0.986,0.582 -1.799,1.414 -2.439,2.495 -0.64,1.082 -0.959,2.314 -0.959,3.695 0,2.356 0.758,4.285 2.274,5.789 1.517,1.503 3.523,2.256 6.019,2.256 C -3.968,6.105 -1.126,4.07 0,0" /></g></g></g><g
       transform="translate(21.8863,103.3987)"
       id="g50"><path
         id="path52"
         style="fill:#ffffff;fill-opacity:1;fill-rule:nonzero;stroke:none"
         d="M 0,0 H 8.447 L 12.152,-16.184 16.318,0 h 8.198 V -26.205 H 19.121 V -4.262 L 13.765,-26.205 H 9.58 L 4.684,-4.262 V -26.205 H 0 Z" /></g><g
       id="g54"><g
         clip-path="url(#clipPath60)"
         id="g56"><g
           transform="translate(50.5694,103.3987)"
           id="g62"><path
             id="path64"
             style="fill:#ffffff;fill-opacity:1;fill-rule:nonzero;stroke:none"
             d="m 0,0 h 5.759 v -14.974 c 0,-2.112 0.096,-3.584 0.289,-4.416 0.192,-0.832 0.591,-1.462 1.199,-1.891 0.608,-0.429 1.353,-0.643 2.237,-0.643 0.96,0 1.721,0.237 2.284,0.71 0.564,0.473 0.909,1.1 1.037,1.881 0.127,0.781 0.192,2.234 0.192,4.359 V 0 h 4.819 v -14.744 c 0,-2.944 -0.17,-5.139 -0.509,-6.585 -0.339,-1.447 -1.203,-2.688 -2.592,-3.724 -1.389,-1.037 -3.299,-1.556 -5.731,-1.556 -2.278,0 -4.069,0.381 -5.375,1.143 -1.305,0.761 -2.234,1.83 -2.784,3.206 C 0.275,-20.885 0,-18.456 0,-14.974 Z" /></g><g
           transform="translate(88.5822,97.6969)"
           id="g66"><path
             id="path68"
             style="fill:#ffffff;fill-opacity:1;fill-rule:nonzero;stroke:none"
             d="m 0,0 -4.76,-1.824 c -0.679,2.163 -1.921,3.245 -3.725,3.245 -0.845,0 -1.514,-0.241 -2.007,-0.72 -0.493,-0.48 -0.739,-1.04 -0.739,-1.68 0,-0.743 0.291,-1.334 0.874,-1.776 0.582,-0.441 1.802,-1.021 3.657,-1.737 1.69,-0.628 3.017,-1.249 3.984,-1.863 0.965,-0.614 1.747,-1.45 2.342,-2.505 0.595,-1.056 0.892,-2.282 0.892,-3.677 0,-2.444 -0.841,-4.451 -2.524,-6.018 -1.684,-1.568 -3.939,-2.352 -6.768,-2.352 -4.748,0 -7.781,2.4 -9.099,7.199 l 5.03,1.441 c 0.614,-2.637 2.016,-3.955 4.204,-3.955 0.998,0 1.808,0.259 2.429,0.777 0.62,0.519 0.931,1.2 0.931,2.045 0,0.639 -0.218,1.212 -0.653,1.718 -0.436,0.505 -1.434,1.039 -2.995,1.603 -2.01,0.717 -3.507,1.366 -4.492,1.949 -0.986,0.582 -1.799,1.414 -2.438,2.495 -0.641,1.082 -0.96,2.314 -0.96,3.695 0,2.356 0.757,4.285 2.274,5.789 1.517,1.504 3.524,2.256 6.019,2.256 C -3.967,6.105 -1.127,4.07 0,0" /></g></g></g><g
       transform="translate(92.6526,103.3987)"
       id="g70"><path
         id="path72"
         style="fill:#ffffff;fill-opacity:1;fill-rule:nonzero;stroke:none"
         d="M 0,0 H 15.934 V -4.492 H 5.759 v -6.086 h 7.91 v -4.492 h -7.91 v -6.451 h 10.175 v -4.684 l -15.934,0 z" /></g><g
       id="g74"><g
         clip-path="url(#clipPath80)"
         id="g76"><g
           transform="translate(111.4093,103.3987)"
           id="g82"><path
             id="path84"
             style="fill:#ffffff;fill-opacity:1;fill-rule:nonzero;stroke:none"
             d="m 0,0 h 5.759 v -14.974 c 0,-2.112 0.096,-3.584 0.288,-4.416 0.192,-0.832 0.592,-1.462 1.201,-1.891 0.607,-0.429 1.352,-0.643 2.236,-0.643 0.96,0 1.721,0.237 2.285,0.71 0.562,0.473 0.908,1.1 1.036,1.881 0.128,0.781 0.192,2.234 0.192,4.359 V 0 h 4.819 v -14.744 c 0,-2.944 -0.17,-5.139 -0.509,-6.585 -0.339,-1.447 -1.203,-2.688 -2.592,-3.724 -1.389,-1.037 -3.299,-1.556 -5.73,-1.556 -2.279,0 -4.07,0.381 -5.376,1.143 -1.305,0.761 -2.233,1.83 -2.783,3.206 C 0.275,-20.885 0,-18.456 0,-14.974 Z" /></g></g></g><g
       transform="translate(133.3915,103.3987)"
       id="g86"><path
         id="path88"
         style="fill:#ffffff;fill-opacity:1;fill-rule:nonzero;stroke:none"
         d="M 0,0 H 8.447 L 12.152,-16.184 16.318,0 h 8.198 V -26.205 H 19.121 V -4.262 L 13.765,-26.205 H 9.58 L 4.684,-4.262 V -26.205 H 0 Z" /></g><g
       id="g90"><g
         clip-path="url(#clipPath96)"
         id="g92"><g
           transform="translate(44.2426,70.8422)"
           id="g98"><path
             id="path100"
             style="fill:#ffffff;fill-opacity:1;fill-rule:nonzero;stroke:none"
             d="M 0,0 C 0,0.576 0.215,1.065 0.643,1.468 1.072,1.872 1.587,2.074 2.189,2.074 2.791,2.074 3.306,1.872 3.735,1.468 4.163,1.065 4.377,0.576 4.377,0 4.377,-0.602 4.15,-1.095 3.696,-1.479 3.241,-1.862 2.739,-2.054 2.189,-2.054 c -0.525,0 -1.02,0.185 -1.488,0.556 C 0.233,-1.126 0,-0.627 0,0" /></g></g></g><g
       transform="translate(52.6708,66.3115)"
       id="g102"><path
         id="path104"
         style="fill:#ffffff;fill-opacity:1;fill-rule:nonzero;stroke:none"
         d="m 0,0 h -5.797 l -7.3,-24.302 -6.318,14.664 6.581,9.638 h -5.825 l -6.366,-10.933 V 0 h -5.76 v -26.206 h 5.76 v 8.908 l 2.178,3.157 4.612,-12.065 h 9.859 l 1.284,5.414 H 0.29 l 1.307,-5.414 h 5.89 z m -5.983,-16.299 2.541,10.736 2.649,-10.736 z" /></g><g
       id="g106"><g
         clip-path="url(#clipPath112)"
         id="g108"><g
           transform="translate(50.7319,70.8422)"
           id="g114"><path
             id="path116"
             style="fill:#ffffff;fill-opacity:1;fill-rule:nonzero;stroke:none"
             d="M 0,0 C 0,0.576 0.214,1.065 0.643,1.468 1.072,1.872 1.587,2.074 2.189,2.074 2.803,2.074 3.321,1.872 3.743,1.468 4.166,1.065 4.377,0.576 4.377,0 c 0,-0.614 -0.23,-1.111 -0.691,-1.488 -0.461,-0.378 -0.96,-0.566 -1.497,-0.566 -0.551,0 -1.053,0.192 -1.508,0.575 C 0.227,-1.095 0,-0.602 0,0" /></g><g
           transform="translate(75.5463,51.5672)"
           id="g118"><path
             id="path120"
             style="fill:#ffffff;fill-opacity:1;fill-rule:nonzero;stroke:none"
             d="m 0,0 c 2.458,1.331 3.686,3.635 3.686,6.911 0,1.395 -0.247,2.652 -0.739,3.773 -0.493,1.119 -1.174,2.003 -2.045,2.649 -0.87,0.646 -1.731,1.043 -2.581,1.19 -0.852,0.147 -2.078,0.221 -3.677,0.221 h -8.236 v -26.206 h 5.759 v 10.367 h 2.877 l 3.505,-10.367 h 6.269 z m -5.299,3.148 h -2.534 v 7.353 h 2.303 c 0.858,0 1.508,-0.099 1.949,-0.297 0.442,-0.199 0.829,-0.576 1.162,-1.133 C -2.087,8.513 -1.92,7.8 -1.92,6.93 -1.92,4.409 -3.046,3.148 -5.299,3.148" /></g></g></g><g
       transform="translate(83.168,66.3115)"
       id="g122"><path
         id="path124"
         style="fill:#ffffff;fill-opacity:1;fill-rule:nonzero;stroke:none"
         d="m 0,0 h 6.393 l 6.738,-16.28 V 0 h 4.454 V -26.206 H 12.44 L 4.454,-7.238 V -26.206 H 0 Z" /></g><g
       transform="translate(102.5382,66.3115)"
       id="g126"><path
         id="path128"
         style="fill:#ffffff;fill-opacity:1;fill-rule:nonzero;stroke:none"
         d="M 0,0 H 16.338 V -4.915 H 10.982 V -26.206 H 5.222 V -4.915 L 0,-4.915 Z" /></g><g
       transform="translate(121.5794,66.3115)"
       id="g130"><path
         id="path132"
         style="fill:#ffffff;fill-opacity:1;fill-rule:nonzero;stroke:none"
         d="M 0,0 H 15.934 V -4.493 H 5.759 v -6.086 h 7.91 v -4.492 h -7.91 v -6.45 h 10.175 v -4.685 H 0 Z" /></g><g
       transform="translate(140.5287,66.3115)"
       id="g134"><path
         id="path136"
         style="fill:#ffffff;fill-opacity:1;fill-rule:nonzero;stroke:none"
         d="m 0,0 h 6.393 l 6.738,-16.28 V 0 h 4.454 V -26.206 H 12.44 L 4.454,-7.238 V -26.206 H 0 Z" /></g></g></svg>