<?xml version="1.0" encoding="UTF-8" standalone="no"?>
<!-- Created with Inkscape (http://www.inkscape.org/) -->

<svg
   xmlns:dc="http://purl.org/dc/elements/1.1/"
   xmlns:cc="http://creativecommons.org/ns#"
   xmlns:rdf="http://www.w3.org/1999/02/22-rdf-syntax-ns#"
   xmlns:svg="http://www.w3.org/2000/svg"
   xmlns="http://www.w3.org/2000/svg"
   version="1.1"
   width="892.91339"
   height="304.7244"
   id="svg28311">
  <defs
     id="defs28313" />
  <metadata
     id="metadata28316">
    <rdf:RDF>
      <cc:Work
         rdf:about="">
        <dc:format>image/svg+xml</dc:format>
        <dc:type
           rdf:resource="http://purl.org/dc/dcmitype/StillImage" />
        <dc:title></dc:title>
      </cc:Work>
    </rdf:RDF>
  </metadata>
  <g
     transform="translate(108.28082,-250.63786)"
     id="layer1">
    <g
       transform="matrix(4.7120887,0,0,4.7120887,-1371.6393,-543.81694)"
       id="g28336">
      <path
         d="m 273.5447,218.84925 c 0,0 0,-4.11368 0,-4.11368 0,-1.04324 -0.4149,-1.8968 -1.76637,-1.8968 -1.03138,0 -1.77827,0.58089 -2.1102,1.43444 0,0 -0.0237,-0.0113 -0.0237,-0.0113 0.0593,-0.35565 0.0949,-0.92469 0.0949,-1.30406 0,0 -0.87729,0 -0.87729,0 l 0,5.89193 0.88912,0 c 0,0 0,-2.83335 0,-2.83335 0,-1.39888 0.74687,-2.44212 1.80198,-2.44212 0.85354,0 1.1025,0.53349 1.1025,1.45816 0,0 0,3.81731 0,3.81731 l 0.88911,0 z m 6.06611,0 c -0.0237,-0.52163 -0.0237,-1.18552 -0.0237,-1.76642 0,0 0,-2.31171 0,-2.31171 0,-1.11436 -0.46233,-1.9205 -2.08646,-1.9205 -0.79427,0 -1.48187,0.18968 -2.03905,0.43863 0,0 0.083,0.78243 0.083,0.78243 0.52161,-0.33193 1.23292,-0.50976 1.80196,-0.50976 1.01954,0 1.3396,0.4979 1.3396,1.38703 0,0 0,0.48607 0,0.48607 -2.29985,0 -3.5802,0.85354 -3.5802,2.08646 0,0.93655 0.67574,1.43444 1.61227,1.43444 1.00768,0 1.7664,-0.60461 2.05093,-1.35146 0,0 0.0237,0 0.0237,0 -0.0593,0.3438 -0.0593,0.79429 -0.0593,1.24479 0,0 0.87727,0 0.87727,0 z m -0.92468,-2.66738 c 0,1.01953 -0.68759,2.0509 -1.73082,2.0509 -0.58091,0 -0.96026,-0.34377 -0.96026,-0.87726 0,-0.56904 0.47421,-1.26849 2.69108,-1.26849 0,0 0,0.0949 0,0.0949 z m 6.02098,2.64365 c 0,0 0,-0.77057 0,-0.77057 -0.2371,0.0711 -0.54532,0.10675 -0.84168,0.10675 -0.69945,0 -0.88914,-0.27265 -0.88914,-1.32777 0,0 0,-3.17712 0,-3.17712 l 1.73082,0 0,-0.69945 -1.73082,0 0,-2.205 -0.88913,0.24894 0,1.95606 -1.28032,0 0,0.69945 1.28032,0 c 0,0 0,3.54464 0,3.54464 0,1.22106 0.3438,1.74268 1.52929,1.74268 0.36751,0 0.78244,-0.0474 1.09066,-0.11862 z m 6.17992,0.0237 0,-5.89194 -0.88912,0 c 0,0 0,2.83335 0,2.83335 0,1.39889 -0.74686,2.44212 -1.80195,2.44212 -0.85357,0 -1.10252,-0.53347 -1.10252,-1.45817 0,0 0,-3.8173 0,-3.8173 l -0.88913,0 c 0,0 0,4.11368 0,4.11368 0,1.04325 0.41494,1.8968 1.76642,1.8968 1.03136,0 1.77822,-0.5809 2.11017,-1.43445 0,0 0.0237,0.0113 0.0237,0.0113 -0.0593,0.35564 -0.0949,0.92467 -0.0949,1.30405 0,0 0.87728,0 0.87728,0 z m 4.91143,-5.99862 c -1.23291,-0.14225 -1.84936,0.73501 -2.08648,1.60041 0,0 -0.0118,-0.0113 -0.0118,-0.0113 0.083,-0.50979 0.13041,-1.09066 0.13041,-1.48189 0,0 -0.87726,0 -0.87726,0 l 0,5.89194 0.8891,0 c 0,0 0,-2.35914 0,-2.35914 0,-1.97979 0.61647,-2.9756 1.92051,-2.76221 0,0 0.0356,-0.87728 0.0356,-0.87728 z m 6.085,5.99862 c 0,0 0,-4.11367 0,-4.11367 0,-1.04324 -0.41492,-1.8968 -1.7664,-1.8968 -1.01951,0 -1.75453,0.55717 -2.09831,1.4226 0,0 -0.0237,-0.0113 -0.0237,-0.0113 0.0711,-0.29637 0.0948,-0.78242 0.0948,-1.17364 0,0 0,-2.88076 0,-2.88076 l -0.88912,0 0,8.65413 0.88912,0 c 0,0 0,-2.83335 0,-2.83335 0,-1.39888 0.74686,-2.44212 1.80195,-2.44212 0.85355,0 1.1025,0.53349 1.1025,1.45816 0,0 0,3.81731 0,3.81731 l 0.88914,0 z m 3.1166,-7.56347 c 0,-0.33195 -0.28453,-0.60462 -0.61647,-0.60462 -0.34378,0 -0.61645,0.27267 -0.61645,0.60462 0,0.3438 0.27267,0.60461 0.61645,0.60461 0.33194,0 0.61647,-0.26081 0.61647,-0.60461 z m -0.17783,7.56347 0,-5.89194 -0.88913,0 0,5.89194 0.88913,0 z m 5.41518,-1.75455 c 0,-2.00347 -2.88073,-1.19736 -2.88073,-2.60809 0,-0.58088 0.42676,-0.93655 1.29218,-0.93655 0.40307,0 0.82985,0.0711 1.22107,0.20154 0,0 0.0237,-0.77057 0.0237,-0.77057 -0.36752,-0.0711 -0.78244,-0.1304 -1.14994,-0.1304 -1.49373,0 -2.29986,0.74687 -2.29986,1.73082 0,2.09833 2.8689,1.20921 2.8689,2.63179 0,0.61647 -0.59275,0.99582 -1.44632,0.99582 -0.46233,0 -0.93652,-0.083 -1.3159,-0.18966 0,0 -0.0237,0.81799 -0.0237,0.81799 0.35564,0.0711 0.80614,0.1185 1.24478,0.1185 1.54114,0 2.46581,-0.81799 2.46581,-1.86123 z m 4.78814,1.73083 c 0,0 0,-0.77058 0,-0.77058 -0.2371,0.0711 -0.54534,0.10675 -0.8417,0.10675 -0.69944,0 -0.88912,-0.27265 -0.88912,-1.32776 0,0 0,-3.17713 0,-3.17713 l 1.73082,0 0,-0.69945 -1.73082,0 0,-2.205 -0.88913,0.24894 0,1.95606 -1.28034,0 0,0.69945 1.28034,0 c 0,0 0,3.54464 0,3.54464 0,1.22106 0.3438,1.74269 1.52929,1.74269 0.36751,0 0.78244,-0.0474 1.09066,-0.11863 z m 6.38736,-3.02302 c 0,-2.1576 -1.17362,-2.95188 -2.60808,-2.95188 -1.7664,0 -2.80963,1.39888 -2.80963,3.08228 0,2.06277 1.01954,3.02302 2.59625,3.02302 1.74266,0 2.82146,-1.39889 2.82146,-3.15342 z m -0.92467,0.0593 c 0,1.62413 -0.8417,2.33544 -1.76639,2.33544 -1.14994,0 -1.80196,-0.82985 -1.80196,-2.33544 0,-1.57671 0.87726,-2.27615 1.80196,-2.27615 1.17364,0 1.76639,0.85357 1.76639,2.27615 z m 5.41995,-3.01116 c -1.2329,-0.14225 -1.84936,0.73501 -2.08646,1.60041 0,0 -0.0119,-0.0112 -0.0119,-0.0112 0.083,-0.50978 0.13041,-1.09066 0.13041,-1.48188 0,0 -0.87729,0 -0.87729,0 l 0,5.89193 0.88913,0 c 0,0 0,-2.35913 0,-2.35913 0,-1.97979 0.61647,-2.9756 1.92051,-2.76222 0,0 0.0356,-0.87727 0.0356,-0.87727 z m 2.47044,-1.56485 c 0,-0.33195 -0.28454,-0.60461 -0.61648,-0.60461 -0.34377,0 -0.61645,0.27266 -0.61645,0.60461 0,0.3438 0.27268,0.60461 0.61645,0.60461 0.33194,0 0.61648,-0.26081 0.61648,-0.60461 z m -0.17784,7.56348 0,-5.89194 -0.88913,0 0,5.89194 0.88913,0 z m 5.41519,-1.75455 c 0,-2.00348 -2.88074,-1.19737 -2.88074,-2.60809 0,-0.58089 0.42676,-0.93655 1.29219,-0.93655 0.40306,0 0.82985,0.0711 1.22106,0.20154 0,0 0.0237,-0.77058 0.0237,-0.77058 -0.36751,-0.0711 -0.78244,-0.1304 -1.14994,-0.1304 -1.49372,0 -2.29986,0.74688 -2.29986,1.73083 0,2.09832 2.8689,1.20921 2.8689,2.63178 0,0.61648 -0.59275,0.99583 -1.44631,0.99583 -0.46234,0 -0.93654,-0.083 -1.3159,-0.18966 0,0 -0.0237,0.81798 -0.0237,0.81798 0.35563,0.0711 0.80612,0.1185 1.24477,0.1185 1.54114,0 2.46581,-0.81798 2.46581,-1.86122 z m 5.59426,1.50558 c 0,0 -0.083,-0.77057 -0.083,-0.77057 -0.39121,0.20154 -0.96025,0.33194 -1.48188,0.33194 -1.4226,0 -1.80197,-0.99583 -1.80197,-2.20503 0,-1.4226 0.62835,-2.35912 1.89681,-2.35912 0.49791,0 0.96025,0.10662 1.35146,0.26078 0,0 0.0948,-0.78241 0.0948,-0.78241 -0.41493,-0.1304 -0.90098,-0.20155 -1.38703,-0.20155 -1.92052,0 -2.89262,1.30406 -2.89262,3.23641 0,2.22874 1.23292,2.80963 2.54882,2.80963 0.72317,0 1.36331,-0.16596 1.75453,-0.32008 z m 6.14425,0.24897 c 0,0 0,-4.11368 0,-4.11368 0,-1.04324 -0.41493,-1.8968 -1.7664,-1.8968 -1.01951,0 -1.75453,0.55718 -2.09831,1.4226 0,0 -0.0237,-0.0112 -0.0237,-0.0112 0.0711,-0.29636 0.0948,-0.78241 0.0948,-1.17364 0,0 0,-2.88076 0,-2.88076 l -0.88913,0 0,8.65414 0.88913,0 c 0,0 0,-2.83335 0,-2.83335 0,-1.39889 0.74686,-2.44213 1.80195,-2.44213 0.85356,0 1.10251,0.53349 1.10251,1.45817 0,0 0,3.81731 0,3.81731 l 0.88912,0 z m 6.54032,-3.56837 c 0,-1.30403 -0.67573,-2.43026 -2.29988,-2.43026 -1.63599,0 -2.58438,1.31591 -2.58438,3.08229 0,2.06276 0.94839,3.02301 2.72665,3.02301 0.73501,0 1.39889,-0.1304 1.94421,-0.35564 0,0 -0.083,-0.75872 -0.083,-0.75872 -0.43863,0.22525 -1.09066,0.37935 -1.70711,0.37935 -1.3159,0 -2.01535,-0.735 -1.95606,-2.50139 0,0 3.93582,0 3.93582,0 0.0237,-0.17782 0.0237,-0.33194 0.0237,-0.43864 z m -0.92468,-0.22523 c 0,0 -2.98747,0 -2.98747,0 0.14225,-0.92469 0.735,-1.5293 1.56485,-1.5293 0.90099,0 1.4463,0.61646 1.42262,1.5293 z m 6.04467,2.03905 c 0,-2.00348 -2.88075,-1.19737 -2.88075,-2.60809 0,-0.58089 0.42678,-0.93655 1.29219,-0.93655 0.40306,0 0.82985,0.0711 1.22107,0.20154 0,0 0.0237,-0.77058 0.0237,-0.77058 -0.3675,-0.0711 -0.78242,-0.1304 -1.14993,-0.1304 -1.49373,0 -2.29987,0.74688 -2.29987,1.73083 0,2.09832 2.8689,1.20921 2.8689,2.63178 0,0.61648 -0.59275,0.99583 -1.4463,0.99583 -0.46233,0 -0.93652,-0.083 -1.3159,-0.18966 0,0 -0.0237,0.81798 -0.0237,0.81798 0.35565,0.0711 0.80615,0.1185 1.24478,0.1185 1.54114,0 2.46582,-0.81798 2.46582,-1.86122 z"
         id="path23495"
         style="fill:#000000;fill-opacity:1;fill-rule:nonzero;stroke:none" />
      <path
         d="m 293.09779,232.38678 c 0,0 0,-4.08996 0,-4.08996 0,-1.32776 -0.64018,-1.92049 -1.74269,-1.92049 -1.19735,0 -1.83754,0.85354 -2.05091,1.41073 -0.0237,-0.45049 -0.30823,-1.41073 -1.64784,-1.41073 -0.97211,0 -1.74269,0.56904 -2.07462,1.43444 0,0 -0.0237,-0.0112 -0.0237,-0.0112 0.0711,-0.36749 0.0948,-0.92469 0.0948,-1.30404 0,0 -0.87727,0 -0.87727,0 l 0,5.89192 0.88912,0 c 0,0 0,-2.80962 0,-2.80962 0,-1.44631 0.7943,-2.46583 1.7664,-2.46583 0.90097,0 1.06695,0.65202 1.06695,1.45816 0,0 0,3.81729 0,3.81729 l 0.87726,0 c 0,0 0,-2.80962 0,-2.80962 0,-1.5293 0.86542,-2.46583 1.7664,-2.46583 0.85355,0 1.06695,0.5809 1.06695,1.47001 0,0 0,3.80544 0,3.80544 l 0.88912,0 z m 6.72749,0 0,-5.89191 -0.88913,0 c 0,0 0,2.83333 0,2.83333 0,1.39888 -0.74686,2.44213 -1.80195,2.44213 -0.85356,0 -1.10252,-0.53346 -1.10252,-1.45817 0,0 0,-3.81729 0,-3.81729 l -0.88912,0 c 0,0 0,4.11368 0,4.11368 0,1.04322 0.41493,1.8968 1.7664,1.8968 1.03138,0 1.77824,-0.5809 2.11018,-1.43447 0,0 0.0237,0.0113 0.0237,0.0113 -0.0593,0.35567 -0.0948,0.9247 -0.0948,1.30405 0,0 0.87726,0 0.87726,0 z m 5.44846,-1.75452 c 0,-2.0035 -2.88075,-1.19736 -2.88075,-2.60809 0,-0.58091 0.42676,-0.93655 1.29219,-0.93655 0.40306,0 0.82983,0.0711 1.22105,0.20153 0,0 0.0237,-0.77057 0.0237,-0.77057 -0.36752,-0.0711 -0.78243,-0.13041 -1.14994,-0.13041 -1.49373,0 -2.29986,0.74686 -2.29986,1.73083 0,2.09833 2.8689,1.2092 2.8689,2.6318 0,0.61647 -0.59275,0.99582 -1.4463,0.99582 -0.46235,0 -0.93655,-0.083 -1.3159,-0.18969 0,0 -0.0237,0.81802 -0.0237,0.81802 0.35567,0.0711 0.80615,0.1185 1.24477,0.1185 1.54116,0 2.46585,-0.81799 2.46585,-1.86123 z m 6.16329,-1.81381 c 0,-1.30404 -0.67574,-2.43028 -2.29987,-2.43028 -1.63598,0 -2.58438,1.3159 -2.58438,3.0823 0,2.06276 0.9484,3.02301 2.72663,3.02301 0.73502,0 1.39889,-0.1304 1.94422,-0.35566 0,0 -0.083,-0.7587 -0.083,-0.7587 -0.43864,0.22524 -1.09067,0.37935 -1.70712,0.37935 -1.3159,0 -2.01535,-0.735 -1.95608,-2.5014 0,0 3.93585,0 3.93585,0 0.0237,-0.17781 0.0237,-0.33192 0.0237,-0.43862 z m -0.92469,-0.22524 c 0,0 -2.98746,0 -2.98746,0 0.14227,-0.9247 0.73502,-1.5293 1.56487,-1.5293 0.90098,0 1.4463,0.61646 1.42259,1.5293 z m 7.23255,3.79357 0,-5.89191 -0.88913,0 c 0,0 0,2.83333 0,2.83333 0,1.39888 -0.74686,2.44213 -1.80195,2.44213 -0.85355,0 -1.1025,-0.53346 -1.1025,-1.45817 0,0 0,-3.81729 0,-3.81729 l -0.88913,0 c 0,0 0,4.11368 0,4.11368 0,1.04322 0.41492,1.8968 1.7664,1.8968 1.03137,0 1.77823,-0.5809 2.11017,-1.43447 0,0 0.0237,0.0113 0.0237,0.0113 -0.0593,0.35567 -0.0949,0.9247 -0.0949,1.30405 0,0 0.87726,0 0.87726,0 z m 10.38844,0 c 0,0 0,-4.08996 0,-4.08996 0,-1.32776 -0.64017,-1.92049 -1.74269,-1.92049 -1.19734,0 -1.83753,0.85354 -2.0509,1.41073 -0.0237,-0.45049 -0.30823,-1.41073 -1.64783,-1.41073 -0.97212,0 -1.74268,0.56904 -2.07462,1.43444 0,0 -0.0237,-0.0112 -0.0237,-0.0112 0.0711,-0.36749 0.0948,-0.92469 0.0948,-1.30404 0,0 -0.87728,0 -0.87728,0 l 0,5.89192 0.88912,0 c 0,0 0,-2.80962 0,-2.80962 0,-1.44631 0.7943,-2.46583 1.7664,-2.46583 0.90097,0 1.06695,0.65202 1.06695,1.45816 0,0 0,3.81729 0,3.81729 l 0.87726,0 c 0,0 0,-2.80962 0,-2.80962 0,-1.5293 0.86542,-2.46583 1.7664,-2.46583 0.85356,0 1.06695,0.5809 1.06695,1.47001 0,0 0,3.80544 0,3.80544 l 0.88911,0 z m 13.30091,-5.89191 -0.94839,0 c 0,0 -1.05511,3.52093 -1.05511,3.52093 -0.17781,0.6046 -0.29636,0.98395 -0.40306,1.44631 0,0 -0.0237,0 -0.0237,0 -0.0948,-0.39123 -0.18969,-0.73503 -0.42679,-1.47004 0,0 -1.13808,-3.4972 -1.13808,-3.4972 l -1.00767,0 c 0,0 -1.12621,3.50906 -1.12621,3.50906 -0.15412,0.47422 -0.28453,0.97213 -0.40309,1.44632 0,0 -0.0119,0 -0.0119,0 -0.0948,-0.40307 -0.24896,-0.92469 -0.40309,-1.44632 0,0 -1.00766,-3.50906 -1.00766,-3.50906 l -0.99581,0 1.82566,5.89191 1.03137,0 c 0,0 1.07882,-3.4498 1.07882,-3.4498 0.1541,-0.49788 0.30822,-0.9721 0.42677,-1.48185 0,0 0.0119,0 0.0119,0 0.10668,0.39119 0.20153,0.75872 0.33194,1.12622 0,0 1.29219,3.80543 1.29219,3.80543 l 1.03137,0 1.92051,-5.89191 z m 2.44672,-1.67156 c 0,-0.33194 -0.28451,-0.60459 -0.61647,-0.60459 -0.34378,0 -0.61645,0.27265 -0.61645,0.60459 0,0.3438 0.27267,0.60461 0.61645,0.60461 0.33196,0 0.61647,-0.26081 0.61647,-0.60461 z m -0.17783,7.56347 0,-5.89191 -0.88912,0 0,5.89191 0.88912,0 z m 6.52485,-3.56833 c 0,-1.30404 -0.67574,-2.43028 -2.29989,-2.43028 -1.63596,0 -2.58438,1.3159 -2.58438,3.0823 0,2.06276 0.94842,3.02301 2.72665,3.02301 0.73502,0 1.39889,-0.1304 1.94422,-0.35566 0,0 -0.083,-0.7587 -0.083,-0.7587 -0.43863,0.22524 -1.09065,0.37935 -1.70712,0.37935 -1.3159,0 -2.01533,-0.735 -1.95606,-2.5014 0,0 3.93584,0 3.93584,0 0.0237,-0.17781 0.0237,-0.33192 0.0237,-0.43862 z m -0.92469,-0.22524 c 0,0 -2.98746,0 -2.98746,0 0.14227,-0.9247 0.735,-1.5293 1.56485,-1.5293 0.901,0 1.4463,0.61646 1.42261,1.5293 z m 7.27286,3.79357 c 0,0 0,-4.11367 0,-4.11367 0,-1.04324 -0.41492,-1.89678 -1.7664,-1.89678 -1.03136,0 -1.77824,0.58088 -2.11017,1.43444 0,0 -0.0237,-0.0112 -0.0237,-0.0112 0.0593,-0.35565 0.0949,-0.92469 0.0949,-1.30404 0,0 -0.87728,0 -0.87728,0 l 0,5.89192 0.88913,0 c 0,0 0,-2.83334 0,-2.83334 0,-1.39889 0.74686,-2.44211 1.80195,-2.44211 0.85356,0 1.1025,0.53347 1.1025,1.45816 0,0 0,3.81729 0,3.81729 l 0.88913,0 z"
         id="path23497"
         style="fill:#000000;fill-opacity:1;fill-rule:nonzero;stroke:none" />
      <path
         d="m 381.651,219.05126 0,13.32496 13.32496,0 0,-13.32496 -13.32496,0 z"
         id="path23501"
         style="fill:#751525;fill-opacity:1;fill-rule:nonzero;stroke:none" />
      <path
         d="m 403.85927,219.05126 0,13.32496 13.32496,0 0,-13.32496 -13.32496,0 z"
         id="path23505"
         style="fill:#751525;fill-opacity:1;fill-rule:nonzero;stroke:none" />
      <path
         d="m 426.06755,219.05126 0,13.32496 13.32497,0 0,-13.32496 -13.32497,0 z"
         id="path23509"
         style="fill:#751525;fill-opacity:1;fill-rule:nonzero;stroke:none" />
      <path
         d="m 366.79196,225.96249 c 0,4.09641 -0.051,4.66533 -1.93931,4.94981 0,0 -0.44619,0.17069 -0.44619,0.17069 -0.35723,0.28448 -0.25517,1.25168 0.102,1.42237 1.42898,-0.1138 3.46405,-0.17069 5.30128,-0.17069 1.78621,0 2.64068,0.0569 4.0186,0.17069 0.35725,-0.17069 0.45933,-1.13789 0.10213,-1.42237 0,0 -0.29308,-0.17069 -0.29308,-0.17069 -1.83724,-0.34138 -1.9393,-0.8534 -1.9393,-4.94981 0,0 0,-30.66128 0,-30.66128 0,-1.64995 0.102,-2.44649 0.76551,-3.41369 0.71448,-1.081 2.39863,-1.9913 4.33794,-1.9913 3.47035,0 4.79724,2.38957 4.79724,5.63255 0,0 0,8.4773 0,8.4773 0,4.09642 -0.051,4.60847 -1.9393,4.94984 0,0 -0.10638,0.17068 -0.10638,0.17068 -0.35725,0.28447 -0.25516,1.2517 0.102,1.42236 1.37793,-0.11379 3.48807,-0.17066 5.3253,-0.17066 1.78622,0 2.3279,0.0569 3.85893,0.17066 0.35726,-0.17066 0.45932,-1.13789 0.10212,-1.42236 0,0 -0.18446,-0.17068 -0.18446,-0.17068 -1.83722,-0.28447 -1.93929,-0.85342 -1.93929,-4.94984 0,0 0,-9.78587 0,-9.78587 0,-3.81194 -3.17755,-7.39169 -7.41341,-7.39169 -2.60275,0 -5.00137,1.42235 -7.14482,2.90161 -0.35724,0 -0.56138,-0.28446 -0.56138,-0.62581 0,-0.51207 0,-1.36547 0.102,-2.67406 -0.102,-0.28446 -0.35722,-0.39826 -0.56137,-0.39826 -1.0207,0.85341 -5.05924,2.33267 -6.23304,2.78783 -0.25519,0.17069 -0.25519,0.79652 -0.051,1.0241 0,0 0.45932,0.34138 0.45932,0.34138 1.37793,1.02409 1.37793,1.64534 1.37793,3.86421 0,0 0,31.91298 0,31.91298 z m 26.55079,-21.95642 c 0,4.09642 -0.051,4.72227 -1.93931,4.94984 0,0 -0.33756,0.17068 -0.33756,0.17068 -0.35724,0.28447 -0.25518,1.2517 0.10212,1.42236 1.63309,-0.11379 2.53859,-0.17066 4.37583,-0.17066 1.78621,0 3.14472,0.0569 4.67575,0.17066 0.35725,-0.17066 0.45932,-1.19478 0.10212,-1.42236 0,0 -0.1334,-0.17068 -0.1334,-0.17068 -1.83725,-0.28447 -1.93932,-0.85342 -1.93932,-4.94984 0,0 0,-9.55828 0,-9.55828 0,-1.99132 0.15311,-2.2758 1.07174,-3.12922 0.91861,-0.85341 2.24551,-1.53615 3.98068,-1.53615 3.2662,0 4.84828,2.44647 4.84828,6.08773 0,0 0,8.13592 0,8.13592 0,4.09642 -0.051,4.60847 -1.93931,4.94984 0,0 -0.39515,0.17068 -0.39515,0.17068 -0.35725,0.28447 -0.25517,1.2517 0.102,1.42236 1.37792,-0.11379 2.90895,-0.17066 4.74618,-0.17066 1.78622,0 2.83195,0.0569 4.66919,0.17066 0.35726,-0.17066 0.45933,-1.13789 0.10213,-1.42236 0,0 -0.43963,-0.17068 -0.43963,-0.17068 -1.83724,-0.22757 -1.93931,-0.85342 -1.93931,-4.94984 0,0 0,-9.5014 0,-9.5014 0,-3.98261 -2.86476,-7.67616 -7.71304,-7.67616 -2.60276,0 -5.05241,1.36548 -6.88966,2.95851 -0.1531,-0.11378 -0.20414,-0.56893 -0.20414,-1.08098 0,0 0,-11.94787 0,-11.94787 0,-2.50337 0.10213,-5.34811 0.15311,-7.05493 -0.10212,-0.22759 -0.3062,-0.34138 -0.51035,-0.34138 -1.83722,1.081 -5.36543,1.93443 -6.64131,2.38958 -0.25517,0.17067 -0.25517,0.96722 0,1.13788 0,0 0.51034,0.34137 0.51034,0.34137 1.53105,1.02411 1.58209,1.36547 1.58209,4.72227 0,0 0,26.05311 0,26.05311 z m 55.84258,21.95642 c 0,4.09641 -0.051,4.60843 -1.9393,4.94981 0,0 -0.29309,0.17069 -0.29309,0.17069 -0.35724,0.28448 -0.25516,1.25168 0.102,1.42237 1.42895,-0.1138 2.80688,-0.17069 4.64411,-0.17069 1.78622,0 3.14473,0.0569 4.82885,0.17069 0.35727,-0.17069 0.45935,-1.13789 0.10213,-1.42237 0,0 -0.59929,-0.17069 -0.59929,-0.17069 -1.83724,-0.28448 -1.9393,-0.8534 -1.9393,-4.94981 0,0 0,-31.74229 0,-31.74229 0,-3.92573 -3.11994,-7.39169 -7.2027,-7.39169 -2.39862,0 -4.89931,1.30858 -6.94069,2.90161 -0.45931,0.34139 -1.08692,0.79727 -1.27586,0.45518 -1.42896,-2.33269 -3.98752,-3.35679 -6.53925,-3.35679 -2.44965,0 -4.84827,1.36548 -6.78759,2.90161 -0.35725,0 -0.56137,-0.28446 -0.56137,-0.62581 0,-0.51207 0,-1.36547 0.102,-2.67406 -0.102,-0.28446 -0.35724,-0.39826 -0.56139,-0.39826 -1.02067,0.85341 -5.05924,2.33267 -6.23302,2.78783 -0.25518,0.17069 -0.25518,0.79652 -0.051,1.0241 0,0 0.45931,0.34138 0.45931,0.34138 1.37792,1.02409 1.37792,1.64534 1.37792,3.86421 0,0 0,9.95656 0,9.95656 0,4.09642 -0.051,4.66537 -1.9393,4.94984 0,0 -0.28652,0.17068 -0.28652,0.17068 -0.35724,0.28447 -0.25516,1.2517 0.10212,1.42236 1.58205,-0.11379 2.48754,-0.17066 4.32478,-0.17066 1.78621,0 3.45749,0.0569 4.83541,0.17066 0.35725,-0.17066 0.45934,-1.13789 0.10213,-1.42236 0,0 -0.29309,-0.17068 -0.29309,-0.17068 -1.83724,-0.34137 -1.9393,-0.85342 -1.9393,-4.94984 0,0 0,-8.81866 0,-8.81866 0,-1.82061 0.25517,-2.56025 0.76552,-3.24299 0.76552,-1.02411 2.19448,-2.0482 4.2869,-2.0482 3.16414,0 4.69517,2.0482 4.69517,5.86014 0,0 0,8.24971 0,8.24971 0,4.09642 -0.051,4.60847 -1.93932,4.94984 0,0 -0.29308,0.17068 -0.29308,0.17068 -0.35723,0.28447 -0.25517,1.2517 0.10212,1.42236 1.42894,-0.11379 3.31093,-0.17066 5.14816,-0.17066 1.78622,0 2.64067,0.0569 4.17169,0.17066 0.35726,-0.17066 0.45933,-1.13789 0.10213,-1.42236 0,0 -0.44619,-0.17068 -0.44619,-0.17068 -1.83723,-0.28447 -1.93931,-0.85342 -1.93931,-4.94984 0,0 0,-8.70486 0,-8.70486 0,-1.99131 0.1531,-2.56027 0.76551,-3.41369 0.7145,-1.02411 2.29655,-1.9913 4.23587,-1.9913 3.21517,0 4.7462,1.9913 4.7462,5.86014 0,0 0,30.20613 0,30.20613 z"
         id="path23513"
         style="fill:#5d5d5d;fill-opacity:1;fill-rule:nonzero;stroke:none" />
    </g>
  </g>
</svg>
