<svg version="1.1" id="Layer_1" xmlns="http://www.w3.org/2000/svg" width="286" x="0" y="0" viewBox="0 0 1345.7 386" style="enable-background:new 0 0 1345.7 386" xml:space="preserve"><style>.st0{fill:#9e75b2}.st1{fill:#ffec0a}.st2{fill:#50b3d8}</style><path d="M389.6 141c41.9 0 75.9 34.1 75.9 76.1 0 42-34 76.1-75.9 76.1s-75.9-34.1-75.9-76.1c0-42.1 34-76.1 75.9-76.1m0-26.2c-56.3 0-102 45.8-102 102.3s45.7 102.3 102 102.3 102-45.8 102-102.3-45.6-102.3-102-102.3M166.8 141c41.9 0 75.9 34.1 75.9 76.1 0 42-34 76.1-75.9 76.1s-75.9-34.1-75.9-76.1c0-42.1 34-76.1 75.9-76.1m0-26.2c-56.3 0-102 45.8-102 102.3s45.7 102.3 102 102.3 102-45.8 102-102.3-45.6-102.3-102-102.3M313.7 66.7h34.8v34.8h-34.8zM430.8 66.7h34.8v34.8h-34.8z"/><g><path d="M517.7 141h9.3v58.1h39.5v8.6h-48.9V141zM596.5 141h9.5l29.1 66.7H625l-7-16.5h-34l-7 16.5h-9.4l28.9-66.7zm18.1 42-13.4-31.7h-.2L587.5 183h27.1zM640.1 141h13l36.9 55.8h.2V141h9v66.7h-13l-36.9-55.8h-.3v55.8h-9V141zM711.4 141h25.2c22.1 0 36.4 10.9 36.4 33s-15.3 33.7-37.4 33.7h-24.2V141zm22.9 58.1c17.8 0 29.2-7.3 29.2-25.1s-10.6-24.4-28.4-24.4h-14.4v49.5h13.6zM782.1 141h50.8v8.6h-41.4v19.6H830v8.6h-38.6v21.3h42.4v8.6h-51.7V141zM837.5 181.4h9.3c.1 13.2 8.4 19 19.7 19 8.5 0 18.3-3 18.3-11.5 0-18.4-44.5-.4-44.5-28.9 0-13.3 11.9-20 25.4-20 16.4 0 27 9.7 27.3 25.8h-9.3c0-11-6.9-17.6-17.9-17.6-8 0-16.3 3.4-16.3 11.4 0 18.4 44.5.5 44.5 28.9 0 14.4-13.4 20.1-27.8 20.1-15.4 0-28.8-8.7-28.7-27.2zM897.3 169.7h27.6v8h-27.6v-8zM932 141h9.3v32.8h.2l33.8-32.8h12.9l-28.9 27.1 33.6 39.5h-12.3l-28-33.2-11.3 10.7v22.6H932V141zM995 180.4V141h9.3v39.1c0 12.3 7 19.9 19.2 19.9 12.3 0 19.2-7.6 19.2-19.9V141h9.3v39.4c0 17.2-11.3 28.2-28.6 28.2S995 197.7 995 180.4zM1064 141h9.3v58.1h39.5v8.6H1064V141zM1122.3 149.6h-23.4V141h56.2v8.6h-23.4v58.1h-9.3v-58.1zM1159.6 180.4V141h9.3v39.1c0 12.3 7 19.9 19.2 19.9 12.3 0 19.2-7.6 19.2-19.9V141h9.3v39.4c0 17.2-11.3 28.2-28.6 28.2s-28.4-10.9-28.4-28.2zM1225.7 141h28.6c13.7 0 23.8 5.8 23.8 19.5 0 9.6-5.6 18-18.5 19.7v.2l19.4 27.2h-11.8l-17.9-26.7H1235v26.7h-9.3V141zm27 31.4c9 0 15.9-2.6 15.9-11.5 0-7.3-5.1-11.3-14.4-11.3h-19.1v22.9h17.6zM514.9 259.8c0-20.2 14.6-34.3 34.8-34.3 15.8 0 27.8 8.6 30.9 24.3H571c-2.2-9.8-10.2-15.7-21.2-15.7-15.2 0-25.2 10.5-25.2 25.7s10 25.7 25.2 25.7c12.6 0 22.1-6.7 22.7-19.2h-34.4v-8.6h43.3v17.7l2.9 17.7h-8l-2-11.5h-.2c-4.3 8-13.1 12.5-24.3 12.5-20.4 0-34.9-14.1-34.9-34.3zM593.9 226.5h14.7l21.6 54.6h.2l21.6-54.6h14.5v66.7h-9.1v-55.8h-.2l-22.3 55.8h-9.5L603 237.3h-.2v55.8h-9v-66.6zM678.8 226.5h32.9c15.6 0 21.4 8.3 21.4 16.8 0 7.8-4.2 12.6-12 14.1v.2c9.3.8 14.9 6.7 14.9 16 0 13-9.8 19.6-22.3 19.6h-34.9v-66.7zm30.5 27.9c9.2 0 14.3-2.6 14.3-9.7 0-6.7-4.3-9.6-13.5-9.6h-21.9v19.3h21.1zm1.8 30.2c10.9 0 15.3-4.3 15.3-11s-3.9-11-14.2-11h-24.1v22h23zM745.3 226.5h9.3v28.3H795v-28.3h9.3v66.7H795v-29.8h-40.4v29.8h-9.3v-66.7z"/></g></svg>
