<?xml version="1.0" encoding="utf-8"?>
<!-- Generator: Adobe Illustrator 15.0.1, SVG Export Plug-In . SVG Version: 6.00 Build 0)  -->
<!DOCTYPE svg PUBLIC "-//W3C//DTD SVG 1.1//EN" "http://www.w3.org/Graphics/SVG/1.1/DTD/svg11.dtd">
<svg version="1.1" id="Ebene_1" xmlns="http://www.w3.org/2000/svg" xmlns:xlink="http://www.w3.org/1999/xlink" x="0px" y="0px"
	 width="455px" height="152px" viewBox="0 0 455 152" enable-background="new 0 0 455 152" xml:space="preserve">
<g>
	<path d="M133.978,81.837c-6.908,0-11.531,4.154-11.531,10.231c0,2.286,0.779,4.26,2.233,5.817c1.402,1.455,3.116,2.182,6.336,3.169
		l3.584,1.091c4.311,1.299,6.389,3.479,6.389,6.648c0,2.077-0.831,3.792-2.545,5.09c-1.506,1.143-2.96,1.559-5.662,1.559
		c-3.584,0-6.597-0.936-9.557-3.064l-1.87,3.324c3.532,2.182,7.167,3.22,11.427,3.22c3.272,0,5.662-0.675,7.999-2.181
		c3.168-2.026,4.935-5.246,4.935-8.57c0-2.234-0.883-4.623-2.337-6.285c-1.455-1.662-3.117-2.597-6.285-3.584l-4.103-1.299
		c-4.208-1.351-5.921-2.96-5.921-5.817c0-3.636,2.649-5.869,7.116-5.869c3.064,0,5.246,0.779,8.674,3.013l1.87-3.064
		C141.353,82.979,137.821,81.837,133.978,81.837L133.978,81.837z"/>
	<path fill-rule="evenodd" clip-rule="evenodd" d="M170.59,82.615l-11.895,35.632h4.311l3.428-10.96h13.297l3.376,10.96h4.831
		l-11.791-35.632H170.59L170.59,82.615z M167.578,103.808l5.61-17.452l5.454,17.452H167.578L167.578,103.808z"/>
	<polygon points="203.35,118.247 221.114,118.247 221.685,114.663 207.609,114.663 207.609,82.615 203.35,82.615 203.35,118.247 	
		"/>
	<path d="M235.694,86.199h13.297c2.182,0,3.688-0.052,3.688-0.052s-0.935,1.194-2.285,3.428l-15.219,25.399v3.272h21.141
		l1.091-3.636h-14.128c-1.61,0-3.064,0.052-3.064,0.052s0.986-1.402,2.181-3.428l14.804-24.983v-3.637h-20.31L235.694,86.199
		L235.694,86.199z"/>
	<path fill-rule="evenodd" clip-rule="evenodd" d="M275.004,118.247h9.194c5.298,0,6.647-0.312,8.57-1.039
		c3.479-1.351,5.558-4.83,5.558-8.726c0-2.598-0.884-5.506-3.221-7.271c-1.194-0.936-2.493-1.455-4.675-1.87
		c4.052-1.299,6.389-4.104,6.389-7.791c0-3.637-2.441-6.908-6.077-8.155c-1.817-0.623-3.531-0.779-10.596-0.779h-5.143V118.247
		L275.004,118.247z M284.146,86.199c1.817,0,2.908,0.053,3.895,0.312c2.441,0.624,4.052,2.806,4.052,5.61
		c0,0.986-0.208,1.922-0.571,2.753c-1.039,2.389-2.39,3.064-6.232,3.064h-6.182V86.199H284.146L284.146,86.199z M285.393,101.47
		c1.766,0,3.168,0.156,4.155,0.364c2.545,0.52,4.311,3.168,4.311,6.285c0,4.259-1.922,6.647-7.167,6.647h-7.584V101.47H285.393
		L285.393,101.47z"/>
	<path d="M316.646,108.171c0,1.558,0.104,3.843,1.039,5.558c1.922,3.531,5.038,5.142,10.544,5.142c4.311,0,7.168-0.883,9.35-2.753
		c2.129-1.817,2.701-3.844,2.701-8.154V82.615h-4.208v24.828c0,2.39-0.155,3.947-1.351,5.558c-1.091,1.454-3.324,2.233-6.284,2.233
		c-4.363,0-6.285-1.922-6.96-3.48c-0.468-1.09-0.624-3.376-0.624-5.142V82.615h-4.207V108.171L316.646,108.171z"/>
	<path fill-rule="evenodd" clip-rule="evenodd" d="M360.948,118.247h4.26v-16.102c1.766,0.052,2.545,0.52,3.947,2.285
		c4.727,6.025,8.051,11.479,9.09,13.816h5.35c0,0-6.7-10.076-8.207-12.103c-0.727-0.986-1.921-2.648-3.584-3.999h0.52
		c5.662,0,9.453-3.896,9.453-9.765c0-3.792-1.922-6.182-3.531-7.479c-1.714-1.402-4.104-2.286-8.986-2.286h-8.311V118.247
		L360.948,118.247z M369.363,86.199c1.922,0,3.324,0.26,4.467,0.728c2.025,0.831,3.479,3.064,3.479,5.401
		c0,2.338-0.623,4.26-1.817,5.351c-1.351,1.246-3.272,1.817-6.44,1.817h-3.792V86.199H369.363L369.363,86.199z"/>
	<path d="M413.551,82.2c-3.688,0-6.753,1.091-9.298,3.376c-3.688,3.324-5.506,8.154-5.506,14.959c0,6.129,1.402,10.544,4.415,13.816
		c2.701,2.908,6.493,4.467,10.96,4.467c3.636,0,7.479-1.039,10.024-2.701V99.496h-11.998l0.831,3.532h7.168v10.855
		c-1.507,0.936-3.429,1.402-5.662,1.402c-3.376,0-7.012-1.454-8.622-3.791c-1.61-2.338-2.493-6.13-2.493-10.804
		c0-3.377,0.467-6.389,1.402-9.038c1.454-4.104,4.727-6.025,8.882-6.025c2.753,0,4.83,0.779,7.739,2.753l1.922-2.648
		C420.614,83.395,417.342,82.2,413.551,82.2L413.551,82.2z"/>
	<path d="M123.381,29.194v25.139c0,3.48,0.364,4.935,1.558,6.804c2.026,3.168,6.077,4.831,11.583,4.831
		c7.791,0,11.323-3.947,12.258-6.804c0.519-1.558,0.571-2.233,0.571-5.662V29.194h-7.375v23.114c0,1.922,0,2.441-0.104,3.22
		c-0.312,2.649-2.337,4.207-5.506,4.207c-2.389,0-4.104-0.883-4.935-2.493c-0.416-0.779-0.623-2.078-0.623-4.312V29.194H123.381
		L123.381,29.194z"/>
	<path d="M157.865,29.194v36.099h7.012l-0.208-15.427c-0.052-3.013-0.104-7.272-0.364-10.232c0.675,2.233,2.857,7.324,4.882,11.843
		l6.181,13.816h7.583V29.194h-6.908l0.156,14.751c0.052,2.493,0.312,7.116,0.571,9.921c-0.727-2.597-2.129-6.389-3.947-10.232
		l-6.908-14.439H157.865L157.865,29.194z"/>
	<polygon points="191.666,29.194 191.666,65.293 199.25,65.293 199.25,29.194 191.666,29.194 	"/>
	<path d="M203.136,29.194l12.258,36.358h6.596l12.569-36.358h-7.635l-6.129,17.868c-0.675,1.974-1.61,4.986-2.078,7.22
		c-0.571-2.649-1.194-4.675-1.662-6.285l-5.973-18.803H203.136L203.136,29.194z"/>
	<polygon points="238.605,29.194 238.605,65.293 259.642,65.293 259.642,59.06 245.98,59.06 245.98,49.399 256.213,49.399 
		256.213,43.478 245.877,43.478 245.877,35.115 258.239,35.115 259.174,29.194 238.605,29.194 	"/>
	<path fill-rule="evenodd" clip-rule="evenodd" d="M266.438,29.194v36.099h7.116V50.23c0.468,0.052,0.779,0.156,1.143,0.312
		c1.299,0.571,2.39,2.337,5.974,8.83c1.402,2.545,1.974,3.532,3.376,5.921h8.57c0,0-6.597-11.427-8.674-14.024
		c-0.468-0.623-0.779-0.935-1.507-1.506c4.467-0.104,8.051-4.571,8.051-9.973c0-6.336-4.207-10.596-10.596-10.596H266.438
		L266.438,29.194z M273.554,35.011h2.597c1.767,0,3.272,0.208,4.104,0.519c1.714,0.624,2.598,2.182,2.598,4.415
		c0,1.506-0.52,2.805-1.403,3.636c-0.986,0.883-2.337,1.194-5.453,1.194h-2.441V35.011L273.554,35.011z"/>
	<path d="M321.537,31.739c-3.168-2.285-7.636-3.636-12.051-3.636c-7.635,0-12.933,4.571-12.933,11.167
		c0,2.025,0.52,3.896,1.506,5.505c1.299,2.182,3.532,3.584,7.116,4.571l3.999,1.091c3.221,0.883,4.727,2.337,4.727,4.675
		c0,3.22-2.181,4.935-6.336,4.935c-3.637,0-6.545-1.143-9.921-2.909l-2.701,5.662c3.636,2.077,8.207,3.272,12.31,3.272
		c8.986,0,14.907-4.831,14.907-12.154c0-5.35-3.22-9.142-9.142-10.751l-4.362-1.195c-3.013-0.831-4-1.766-4-3.636
		c0-2.441,2.078-4.155,5.038-4.155c2.701,0,5.143,0.779,8.415,2.753L321.537,31.739L321.537,31.739z"/>
	<polygon points="328.706,29.194 328.706,65.293 336.29,65.293 336.29,29.194 328.706,29.194 	"/>
	<polygon points="341.476,29.194 341.476,35.219 350.305,35.219 350.305,65.293 357.681,65.293 357.681,35.219 366.303,35.219 
		367.497,29.194 341.476,29.194 	"/>
	<path fill-rule="evenodd" clip-rule="evenodd" d="M377.397,20c-2.181,0-4.051,1.818-4.051,4s1.817,4,3.947,4c2.182,0,4-1.818,4-4
		S379.527,20,377.397,20L377.397,20z M392.253,24c0-2.182-1.766-4-3.896-4c-2.233,0-4.052,1.818-4.052,4s1.767,4,3.948,4
		S392.253,26.181,392.253,24L392.253,24z M378.853,29.09L367.01,65.293h7.583l2.546-8.571h10.596l2.545,8.571h7.791L386.695,29.09
		H378.853L378.853,29.09z M378.904,50.697c0.779-2.389,1.246-4.104,1.922-6.7c0.675-2.701,1.714-6.96,1.714-6.96
		s1.091,4.727,1.454,6.389c0.779,3.48,1.974,7.271,1.974,7.271H378.904L378.904,50.697z"/>
	<polygon points="398.476,29.194 398.476,35.219 407.306,35.219 407.306,65.293 414.681,65.293 414.681,35.219 423.304,35.219 
		424.498,29.194 398.476,29.194 	"/>
	<path fill="#009757" d="M32.001,29.197h83.341v89.066c0.038,0-2.041,0.003-2.589,0c-8.334-59.403-70.044-59.403-78.378,0
		c0.046,0-2.328,0-2.374,0C31.999,118.264,32.001,29.024,32.001,29.197L32.001,29.197z"/>
</g>
</svg>
