<?xml version="1.0" standalone="no"?>
<!DOCTYPE svg PUBLIC "-//W3C//DTD SVG 20010904//EN"
 "http://www.w3.org/TR/2001/REC-SVG-20010904/DTD/svg10.dtd">
<svg version="1.0" xmlns="http://www.w3.org/2000/svg"
 width="1472.000000pt" height="1472.000000pt" viewBox="0 0 1472.000000 1472.000000"
 preserveAspectRatio="xMidYMid meet">
<metadata>
Created by potrace 1.14, written by Peter Selinger 2001-2017
</metadata>
<g transform="translate(0.000000,1472.000000) scale(0.100000,-0.100000)"
fill="#000000" stroke="none">
<path d="M10720 10500 c-1 -3 -3 -23 -4 -45 -5 -56 -16 -164 -22 -200 -8 -59
-15 -111 -19 -155 -3 -25 -7 -56 -10 -70 -3 -14 -7 -43 -10 -65 -2 -22 -7 -53
-9 -70 -12 -80 -17 -111 -21 -125 -2 -8 -7 -42 -11 -75 -3 -33 -9 -64 -12 -69
-3 -5 -7 -23 -9 -40 -5 -53 -11 -87 -32 -196 -12 -58 -23 -116 -26 -130 -3
-14 -16 -79 -31 -145 -14 -66 -28 -129 -30 -140 -2 -11 -10 -49 -19 -85 -8
-36 -18 -75 -20 -86 -23 -101 -67 -282 -72 -294 -3 -8 -7 -21 -9 -29 -6 -31
-38 -149 -56 -211 -11 -36 -21 -74 -24 -84 -5 -25 -54 -197 -61 -216 -7 -18
-11 -30 -16 -50 -2 -8 -7 -22 -10 -30 -4 -13 -73 -233 -92 -299 -6 -21 -5 -23
22 -17 15 3 66 8 113 12 47 4 101 8 120 9 34 3 124 10 285 21 246 17 529 26
857 27 164 1 298 4 298 6 0 2 -19 38 -42 80 -124 223 -418 813 -418 837 0 2
-14 34 -31 71 -40 89 -43 95 -139 328 -20 50 -64 166 -100 268 -58 162 -61
171 -64 182 -2 6 -6 17 -9 25 -23 62 -124 401 -133 450 -2 14 -7 32 -11 40 -5
13 -12 41 -29 120 -3 14 -11 50 -19 80 -8 30 -17 71 -20 90 -28 153 -53 284
-55 280z"/>
<path d="M1309 9426 c-2 -2 -60 -6 -129 -10 -69 -3 -135 -8 -146 -10 -12 -2
-38 -7 -58 -10 -179 -29 -383 -115 -510 -216 -118 -94 -232 -236 -300 -375
-41 -83 -98 -243 -111 -311 -15 -80 -35 -218 -42 -289 -10 -104 -10 -2300 0
-2385 4 -36 10 -83 12 -105 15 -133 46 -261 92 -380 121 -304 327 -522 593
-626 30 -11 64 -25 75 -29 26 -11 83 -28 115 -34 14 -3 63 -13 110 -22 139
-28 436 -24 578 6 30 7 61 13 70 15 9 2 17 4 17 5 0 1 11 4 25 6 59 11 259 97
272 118 4 6 8 7 8 3 0 -15 155 106 215 167 71 74 91 97 129 156 16 25 36 56
45 70 14 21 42 81 81 175 23 56 51 156 64 230 3 17 8 41 11 54 2 14 7 47 10
75 3 28 8 68 11 89 3 21 7 81 10 135 6 115 11 2053 6 2065 -2 5 -6 52 -8 105
-1 53 -5 113 -8 132 -2 19 -7 58 -11 85 -3 28 -9 61 -11 75 -3 14 -6 34 -8 45
-12 68 -21 101 -52 194 -67 201 -167 368 -288 480 -21 20 -44 41 -50 47 -14
13 -150 108 -153 106 -1 0 -37 15 -79 34 -106 49 -238 88 -374 109 -14 2 -63
7 -110 11 -47 3 -88 8 -91 10 -3 2 -8 2 -10 0z m111 -690 c105 -22 205 -80
258 -148 48 -65 97 -186 116 -293 3 -16 8 -41 11 -55 3 -14 8 -63 12 -110 10
-110 10 -2143 1 -2235 -31 -293 -96 -449 -226 -539 -104 -72 -304 -98 -482
-63 -141 28 -248 123 -305 268 -13 33 -24 61 -23 62 0 1 -5 20 -10 42 -6 22
-14 63 -18 90 -3 28 -8 58 -10 68 -13 69 -16 330 -17 1177 0 837 4 1086 18
1200 6 52 37 205 43 215 4 5 7 15 8 21 4 25 56 124 79 148 14 15 25 30 25 34
0 13 95 72 146 91 27 11 67 22 88 25 22 4 41 8 43 9 5 6 210 0 243 -7z"/>
<path d="M4409 9426 c-2 -2 -53 -6 -114 -9 -60 -3 -117 -8 -125 -11 -8 -3 -33
-7 -55 -10 -43 -5 -208 -51 -240 -66 -11 -5 -45 -20 -75 -33 -149 -64 -345
-227 -437 -362 -77 -114 -153 -291 -169 -395 -3 -19 -7 -37 -9 -40 -22 -36
-22 -400 0 -462 2 -7 7 -25 10 -40 12 -65 17 -81 41 -150 35 -97 133 -288 164
-318 3 -3 27 -34 54 -70 77 -102 246 -263 421 -402 88 -70 165 -131 170 -135
6 -5 37 -30 70 -56 33 -27 67 -54 75 -60 8 -7 35 -28 60 -47 25 -19 47 -37 50
-40 3 -3 21 -17 40 -32 19 -14 50 -39 67 -54 18 -16 49 -42 69 -59 170 -139
384 -359 384 -394 0 -6 4 -11 8 -11 5 0 25 -33 44 -72 56 -114 60 -131 63
-283 1 -66 -1 -124 -5 -130 -4 -5 -10 -25 -14 -43 -13 -71 -121 -240 -153
-242 -7 0 -13 -4 -13 -8 0 -12 -100 -69 -152 -86 -46 -15 -145 -29 -203 -29
-278 2 -522 200 -630 513 -1 3 -5 13 -9 22 -4 9 -8 22 -10 30 -1 7 -4 18 -7
23 -4 6 -14 40 -24 77 -18 69 -60 127 -94 129 -9 1 -27 3 -40 4 -32 3 -114
-16 -281 -66 -161 -49 -186 -59 -226 -96 -66 -60 -74 -112 -39 -268 25 -114
121 -356 160 -402 6 -6 25 -36 44 -67 18 -31 37 -56 42 -56 5 0 9 -6 9 -13 0
-20 166 -186 245 -245 141 -104 373 -204 530 -227 11 -2 34 -6 50 -9 73 -15
150 -20 285 -20 132 0 198 4 300 20 54 8 191 44 230 61 19 8 44 18 55 22 358
135 628 472 690 859 3 17 8 47 11 65 7 39 7 293 0 324 -2 11 -8 43 -12 70 -3
26 -8 57 -11 68 -2 11 -6 31 -9 45 -14 71 -92 254 -151 355 -49 83 -139 192
-252 306 -127 127 -210 197 -536 453 -60 48 -126 99 -145 115 -37 30 -145 116
-194 154 -34 26 -32 25 -125 107 -109 95 -216 208 -245 259 -5 9 -12 18 -16
21 -12 10 -79 156 -89 195 -34 134 -24 316 22 373 5 6 6 12 1 12 -5 0 -4 4 1
8 6 4 16 19 24 33 28 55 151 164 195 174 6 1 25 7 41 14 37 15 74 22 145 25
49 2 77 -1 160 -19 96 -20 232 -127 304 -239 33 -52 106 -198 106 -213 0 -4
12 -35 26 -69 19 -46 35 -67 67 -87 54 -35 81 -34 229 9 67 20 141 41 162 46
22 5 44 12 50 16 6 3 19 8 29 9 49 8 119 59 142 104 19 36 13 132 -14 209 -43
123 -164 352 -215 406 -6 7 -27 31 -46 54 -155 191 -400 350 -625 405 -5 1
-13 3 -17 5 -56 16 -140 30 -213 35 -49 4 -93 9 -96 11 -3 2 -8 2 -10 0z"/>
<path d="M7347 9424 c-2 -2 -26 -6 -53 -8 -68 -6 -122 -15 -169 -28 -22 -6
-44 -12 -50 -14 -85 -18 -298 -117 -340 -157 -7 -7 -23 -19 -35 -27 -50 -32
-129 -108 -187 -180 -58 -71 -163 -237 -163 -257 0 -6 -7 -23 -15 -39 -28 -57
-70 -236 -81 -344 -2 -25 -6 -65 -9 -90 -14 -128 -18 -406 -18 -1230 0 -891 3
-1170 13 -1170 3 0 5 -17 6 -38 1 -43 11 -141 19 -192 4 -19 8 -44 10 -55 31
-187 153 -458 265 -589 173 -203 395 -325 695 -382 132 -25 428 -24 545 1 14
3 38 8 54 11 48 8 158 41 201 59 73 31 177 85 192 100 8 8 18 15 22 15 8 0 16
6 109 87 54 46 134 142 184 219 59 92 153 316 172 414 3 14 12 59 21 100 9 41
18 95 21 120 3 25 7 56 10 70 2 14 7 100 10 192 4 154 3 171 -15 207 -30 58
-65 82 -137 96 -10 2 -19 4 -19 5 0 1 -21 2 -48 3 -26 1 -47 -1 -47 -4 0 -4
-15 -4 -32 -2 -18 3 -39 4 -45 4 -23 -2 -134 -3 -160 -2 -7 1 -19 1 -25 2 -86
3 -170 -64 -183 -146 -5 -34 -13 -151 -18 -262 -1 -18 -6 -33 -10 -33 -5 0 -6
-4 -3 -8 4 -7 -4 -53 -29 -163 -2 -9 -16 -47 -31 -85 -101 -256 -288 -369
-564 -341 -77 8 -107 16 -171 48 -69 34 -139 110 -179 194 -28 58 -67 190 -75
254 -1 14 -6 46 -9 71 -4 25 -9 77 -13 115 -9 100 -9 2064 0 2160 26 268 87
435 194 524 55 46 74 58 103 66 3 0 21 6 40 12 68 23 205 31 283 18 65 -11
177 -54 177 -67 0 -5 6 -8 13 -8 17 0 92 -75 129 -128 54 -78 111 -227 124
-326 8 -56 15 -120 19 -171 7 -83 20 -116 61 -159 47 -50 74 -55 290 -56 109
0 208 1 219 4 11 2 23 5 26 5 20 3 87 68 106 103 20 36 21 52 18 147 -3 58 -6
120 -9 136 -4 34 -19 155 -21 170 -6 47 -64 246 -76 259 -5 6 -9 16 -9 23 0
14 -80 185 -91 193 -3 3 -18 24 -32 46 -52 84 -135 176 -221 246 -12 10 -28
24 -36 31 -8 8 -30 22 -47 31 -18 9 -33 21 -33 26 0 6 -6 10 -13 10 -7 0 -39
14 -69 30 -57 31 -218 93 -218 84 0 -3 -8 0 -17 5 -18 9 -35 13 -153 33 -60
10 -365 20 -373 12z"/>
<path d="M11357 7294 c-1 -1 -105 -5 -232 -9 -251 -7 -341 -11 -485 -20 -52
-3 -124 -8 -160 -10 -113 -7 -234 -15 -275 -19 -49 -5 -205 -18 -223 -19 -17
0 -24 -17 -107 -235 -64 -169 -73 -198 -57 -188 4 2 43 7 87 11 44 4 88 9 99
11 10 2 51 6 90 9 39 3 91 8 116 10 25 3 74 7 110 10 36 2 92 7 125 9 55 5
167 12 335 22 200 12 511 18 963 18 279 1 507 2 507 4 0 1 -22 36 -50 78 -27
41 -50 80 -50 85 0 5 -4 9 -10 9 -5 0 -10 4 -10 9 0 12 -121 204 -133 213 -8
5 -634 7 -640 2z"/>
<path d="M11257 6544 c-1 -1 -90 -5 -197 -9 -258 -9 -316 -12 -440 -19 -58 -4
-132 -9 -165 -11 -77 -4 -213 -15 -290 -21 -33 -3 -76 -7 -95 -9 -114 -9 -188
-17 -210 -20 -44 -7 -164 -18 -183 -17 -18 1 -32 -24 -120 -218 -13 -30 -38
-84 -55 -120 -37 -79 -41 -96 -23 -92 15 3 56 8 155 17 33 4 62 8 65 10 3 1
40 6 81 10 41 3 89 8 105 10 17 2 64 7 105 11 41 4 89 8 105 10 17 2 59 6 95
9 36 2 88 7 115 9 28 3 91 8 140 11 50 3 115 8 145 10 59 5 197 13 375 21 198
10 1249 12 1272 3 13 -5 25 -4 28 2 4 5 10 7 14 5 4 -3 63 -8 132 -12 164 -9
204 -12 204 -13 0 -1 39 -3 87 -6 49 -2 92 -7 98 -10 22 -13 8 13 -40 75 -28
36 -63 83 -78 105 -15 22 -29 42 -32 45 -3 3 -17 21 -30 40 -14 19 -30 42 -37
50 -7 8 -27 35 -45 60 -18 25 -39 46 -47 48 -51 11 -1223 26 -1234 16z"/>
<path d="M11597 5804 c-3 -3 -103 -7 -223 -9 -224 -4 -457 -12 -599 -20 -44
-2 -127 -7 -185 -10 -58 -3 -127 -7 -155 -9 -27 -2 -93 -7 -145 -11 -52 -4
-113 -9 -135 -11 -22 -2 -67 -6 -100 -9 -76 -5 -165 -14 -300 -30 -22 -2 -65
-7 -95 -10 -30 -3 -66 -7 -80 -10 -14 -2 -47 -7 -75 -10 -27 -3 -70 -8 -95
-11 -25 -2 -56 -7 -70 -10 -14 -3 -34 -6 -45 -5 -15 0 -28 -13 -45 -46 -14
-26 -40 -73 -58 -105 -18 -32 -31 -59 -30 -61 2 -2 -3 -12 -11 -21 -15 -17
-59 -95 -89 -156 -9 -19 -20 -36 -24 -38 -5 -2 -8 -7 -8 -11 0 -9 34 -6 140
13 47 8 108 17 135 21 50 6 83 10 140 20 17 3 59 8 95 11 61 6 95 11 95 14 0
0 26 3 57 5 32 3 70 7 85 9 32 5 128 16 188 21 127 10 202 18 215 20 25 5 232
19 282 20 27 0 48 2 48 5 0 3 19 5 43 6 23 0 89 4 147 7 202 12 457 20 657 21
112 1 203 5 203 9 0 5 4 6 8 3 11 -7 88 -8 307 -5 33 0 65 0 70 0 6 0 91 -2
190 -5 176 -4 350 -12 470 -22 33 -2 88 -6 122 -9 33 -2 84 -7 112 -10 28 -3
72 -7 99 -10 26 -2 72 -7 102 -11 30 -3 66 -7 80 -8 14 -2 41 -6 60 -9 43 -8
91 -15 150 -23 46 -5 66 -9 110 -19 38 -8 90 -15 90 -10 0 2 -24 28 -52 59
-29 30 -70 74 -90 98 -20 24 -49 57 -65 74 -15 17 -53 59 -83 94 -125 144
-116 138 -207 142 -24 1 -43 5 -43 8 0 3 -19 5 -43 6 -23 1 -76 4 -117 8 -75
7 -99 8 -265 21 -160 11 -568 28 -620 25 -30 -2 -32 -2 -158 1 -65 1 -120 -1
-123 -4 -3 -3 -18 -1 -34 3 -16 4 -31 6 -33 4z"/>
<path d="M11510 5050 c-58 -3 -178 -5 -267 -5 -90 0 -163 -2 -163 -5 0 -3 -37
-5 -83 -6 -91 -1 -352 -13 -437 -19 -30 -3 -91 -7 -135 -10 -77 -4 -108 -7
-275 -21 -41 -3 -93 -8 -115 -9 -22 -2 -69 -7 -105 -10 -68 -8 -71 -8 -185
-19 -38 -4 -81 -9 -95 -11 -14 -2 -50 -6 -80 -9 -30 -4 -64 -8 -75 -10 -11 -2
-46 -7 -79 -11 -32 -3 -68 -8 -80 -11 -11 -2 -41 -6 -66 -8 -25 -3 -56 -8 -70
-10 -14 -3 -46 -7 -72 -10 -26 -3 -58 -8 -70 -11 -32 -7 -76 -14 -123 -20 -39
-6 -84 -13 -115 -20 -8 -2 -18 -4 -22 -4 -6 -1 -129 -174 -163 -229 -5 -9 -14
-22 -20 -29 -20 -25 -31 -40 -65 -88 -19 -28 -38 -51 -42 -53 -4 -2 -8 -8 -8
-13 0 -6 -9 -19 -20 -31 -11 -12 -18 -23 -16 -25 1 -2 34 3 73 11 38 8 80 17
93 19 28 6 94 18 125 23 11 2 47 9 80 15 67 12 85 15 135 23 19 3 46 8 59 11
14 2 47 7 74 10 28 3 53 8 56 9 3 2 33 7 66 11 59 6 100 12 100 15 0 1 16 3
35 5 19 1 58 6 85 10 28 4 68 9 90 11 22 3 54 7 70 9 17 3 48 6 70 9 22 2 58
7 80 10 22 3 71 8 110 11 38 3 81 7 95 10 14 2 54 6 90 9 36 4 85 8 110 11
151 14 181 16 400 30 36 3 99 7 140 9 327 22 1148 33 1495 21 248 -9 449 -19
550 -29 39 -4 90 -9 115 -11 132 -11 242 -24 336 -40 12 -2 48 -7 80 -11 33
-4 61 -9 64 -9 3 -1 28 -5 55 -9 83 -13 89 -14 105 -20 8 -2 33 -7 55 -11 40
-5 60 -9 195 -40 41 -9 86 -19 100 -21 14 -3 50 -11 80 -19 30 -8 68 -16 83
-19 15 -3 51 -12 80 -20 29 -8 63 -17 77 -20 72 -13 424 -126 503 -160 30 -14
18 8 -19 34 -19 14 -41 30 -47 35 -7 6 -35 28 -62 50 -28 21 -52 42 -55 45 -3
3 -23 19 -45 35 -22 16 -47 36 -56 45 -9 8 -37 33 -63 55 -27 22 -56 47 -66
55 -42 36 -162 144 -225 204 -76 71 -49 60 -295 112 -14 3 -50 9 -80 14 -30 6
-66 12 -80 15 -14 3 -41 7 -60 10 -19 3 -44 7 -55 9 -17 3 -75 12 -200 31 -11
2 -42 6 -70 9 -27 3 -63 8 -80 11 -16 2 -60 7 -96 10 -36 4 -79 8 -95 10 -16
2 -63 7 -104 10 -41 4 -91 9 -110 11 -61 6 -232 16 -297 18 -35 0 -63 3 -63 6
0 4 -109 7 -605 13 -71 1 -177 0 -235 -3z"/>
</g>
</svg>
