<svg xmlns="http://www.w3.org/2000/svg" width="308.405" height="302.362" viewBox="0 0 81.599 80"><path d="M78.239 21.642C70.507 4.748 46.252-3.3 25.49 3.445 14.642 6.971 4.786 14.761 1.856 25.761-.859 35.957 2.981 47.283 13.96 55.117c-.24 4.3-1.067 10.817-4.397 20.246-.652 1.849.751 3.7 2.614 3.7.59 0 1.18-.192 1.679-.572 6.936-5.282 14.67-10.084 21.311-15.565 6.789.748 14.044.168 20.923-2.068 19.635-6.38 29.268-23.662 22.15-39.216" fill="#fab20b"/><path d="M40.81 59.177c-3.39 0-5.77-.345-7.204-.532C27.04 64.19 22.09 67.301 14.918 72.43a82.63 82.63 0 0 0 1.907-7.785c1.054-5.487 1.14-9.35 1.22-11.54l-1.085-.721C1.527 42.138.35 24.173 15.027 12.896c6.861-5.272 16.017-8.175 25.782-8.175 15.1 0 28.045 7.01 33.447 16.908 5.167 9.468 3.053 21.14-7.664 29.373-7.229 5.554-16.556 8.175-25.783 8.175M79.22 21.17C71.289 3.843 46.41-4.413 25.119 2.506 13.99 6.122 3.882 14.113.877 25.395-1.907 35.852 2.032 47.468 13.29 55.503c-.247 4.41-1.095 11.094-4.51 20.765-.67 1.896.77 3.794 2.68 3.794.606 0 1.21-.195 1.723-.586 7.114-5.418 15.046-10.343 21.858-15.963 6.963.766 14.404.171 21.459-2.121 20.139-6.544 30.018-24.27 22.718-40.222" fill="#b88208"/><path d="M42.746 49.648c-.382-.01-.7.328-.7.702-.005.483.449.746.889.708a8.255 8.255 0 0 1 1.71.456c-3.762-.157-7.59-.273-11.328.247 6.07-4.603 7.932 1.92 7.046-5.107-.055-.707-.085-1.415 0-2.12a.945.945 0 0 0 .009-.695c.88-.082 1.758-.229 2.625-.444 2.347-.261 1.668-2.432.194-1.487-10.228 3.019-22.522-5.123-20.685-16.36 1.748-9.122 9.096-14.88 18.422-13.049.603.032.938-.793.496-1.198-.392-.348-.984-.17-1.463-.277-1.382-.157-2.775-.192-4.164-.178-9.943.408-17.562 12.729-13.977 21.902 2.653 7.098 9.927 11.337 17.271 11.166-.486 1.21.017 3.573.043 4.705-3.633-.612-6.767 1.966-9.439 4.053-.348.6.29 1.346.945 1.134a24.566 24.566 0 0 1 7.323-.98c2.324.037 4.665-.132 6.978.13.912.04 2.787 1.258 2.67-.471-.754-1.87-2.985-2.685-4.865-2.837" fill="#fff"/><path d="M52.625 34.65a12.38 12.38 0 0 1-1.893 1.747 17.937 17.937 0 0 0-3.366-2.15c.392-1.927.478-3.934.39-5.932a47.58 47.58 0 0 0 3.25.031c1.082.013 2.174.045 3.232.28 0 1.985-.502 4.037-1.613 6.024m-5.57.888c.856.436 1.703.97 2.546 1.617a14.478 14.478 0 0 1-3.867 1.585 14.711 14.711 0 0 0 1.32-3.202m-6.773 3.66c-.002-1.794-.026-3.59-.008-5.383 1.953.114 3.802.457 5.596 1.182a12.634 12.634 0 0 1-1.143 2.914c-.201.36-.42.712-.663 1.046-.069.046-.14.092-.206.141a17.57 17.57 0 0 1-3.576.1m-13.496-9.671c-.25-.811-.279-1.66-.267-2.505.307-.03.645-.146.915-.177 1.391-.161 2.786-.076 4.177.042-.381 2.105-.482 4.251-.07 6.336-.678.16-1.347.348-2.002.568-.11.045-.214.1-.315.16a12.194 12.194 0 0 1-2.438-4.424m.396-7.495c.795-1.713 2.046-2.983 3.546-3.909.554.613 1.28 1.183 1.586 1.45.417.35.877.643 1.36.892a12.162 12.162 0 0 0-.85 1.851 36.26 36.26 0 0 0-.946 3.284c-.85-.058-1.699-.108-2.55-.147-.535.067-1.892-.03-2.775.209.05-1.233.159-2.477.629-3.63m9.217-5.856c-.369.53-.713 1.077-1.044 1.633-.338.51-.68 1.017-1.008 1.534a7.638 7.638 0 0 1-1.874-1.322 7.383 7.383 0 0 1-.557-.54c1.391-.653 2.93-1.069 4.483-1.305m4.116-.273c.05 1.511-.166 3.007-.386 4.501-.935-.034-1.868-.094-2.79-.151a9.979 9.979 0 0 1-1.784-.41c.685-1.092 1.438-2.147 2.117-3.235.13-.228.336-.422.512-.629a25.104 25.104 0 0 1 1.987-.061c.115-.007.23-.01.344-.015m5.797 11.07c-1.845-.168-3.69-.36-5.536-.552.106-1.58.3-3.151.5-4.72 1.405.013 2.818-.01 4.191-.273.604 1.764.76 3.696.922 5.55l-.077-.006m-4.505-9.893a4.527 4.527 0 0 1 0-.575c1.13.586 1.905 1.635 2.556 2.7.22.318.413.647.584.985-1.154.185-2.33.247-3.51.243.141-1.116.274-2.232.37-3.353m1.743-.943a13.362 13.362 0 0 1 5.769 2.638c-.981.49-2.042.793-3.092 1.105-.644-1.423-1.554-2.785-2.677-3.743m-8.673 4.85c.167.06.334.118.503.17 1.483.436 3.028.526 4.565.535l-.06.474c-.165 1.37-.25 2.75-.386 4.123a251.796 251.796 0 0 0-6.325-.592c.247-1.07.565-2.118.937-3.124a14.85 14.85 0 0 1 .766-1.586m2.26 11.53a28.2 28.2 0 0 0-4.333.441c-.31-1.951-.234-3.977.106-5.957h.007c2.15.113 4.291.336 6.432.57-.224 1.628-.322 3.265-.36 4.904-.604-.003-1.22.01-1.851.041m-5.289 1.936c.211.776.423 1.563.708 2.314a14.418 14.418 0 0 1-2.371-1.805c.49-.231 1.064-.389 1.663-.51m7.139 4.604a17.622 17.622 0 0 1-4.42-1.247 12.686 12.686 0 0 1-1.497-3.56c.71-.104 1.397-.19 1.97-.32a45.795 45.795 0 0 1 3.928-.155c-.013 1.76.021 3.523.019 5.282m7.16-5.34c-1.847-.72-3.777-1.087-5.852-1.2.04-1.606.13-3.209.318-4.806 1.942.213 3.884.417 5.831.539.051 1.82.016 3.676-.297 5.467m8.015-6.416c-2.13-.382-4.318-.222-6.484-.265a54.3 54.3 0 0 0-.445-3.805 11.854 11.854 0 0 0-.52-2.117c.153-.049.306-.101.458-.159.963-.391 2.355-.571 3.122-1.328 2.127 2.042 3.537 4.748 3.869 7.674M49.7 16.007c-3.964-2.748-8.952-2.52-13.558-2.721-2.279-.003-4.45.948-6.236 2.32-.842.37-2.242.527-2.146 1.736-3.672 2.896-4.093 7.94-3.474 12.264 2.858 14.504 30.084 17.098 32.13 1.136 1.02-5.806-1.808-11.57-6.716-14.735" fill="#fff"/></svg>