<svg xmlns="http://www.w3.org/2000/svg" width="308.405" height="302.362" viewBox="0 0 81.599 80"><path d="M78.253 21.681C70.522 4.787 46.266-3.263 25.505 3.484 14.656 7.009 4.801 14.8 1.871 25.8-.845 35.996 2.996 47.322 13.974 55.156c-.241 4.3-1.068 10.816-4.397 20.246-.653 1.849.75 3.699 2.613 3.699.59 0 1.18-.191 1.68-.571 6.935-5.283 14.669-10.084 21.311-15.565 6.788.748 14.044.168 20.922-2.068 19.636-6.38 29.269-23.663 22.15-39.216" fill="#8f3988"/><path d="M40.824 59.216c-3.39 0-5.77-.345-7.203-.532-6.566 5.544-11.517 8.656-18.689 13.783a82.63 82.63 0 0 0 1.907-7.784c1.054-5.487 1.14-9.35 1.221-11.54l-1.086-.722C1.542 42.177.364 24.211 15.042 12.935c6.86-5.272 16.017-8.175 25.782-8.175 15.1 0 28.045 7.01 33.447 16.908 5.167 9.467 3.053 21.139-7.665 29.373-7.228 5.554-16.555 8.175-25.782 8.175m38.41-38.007C71.303 3.882 46.425-4.375 25.132 2.545 14.006 6.161 3.897 14.151.893 25.433c-2.786 10.458 1.153 22.074 12.413 30.11-.247 4.41-1.095 11.093-4.51 20.764-.67 1.896.77 3.794 2.68 3.794.605 0 1.21-.196 1.723-.586 7.113-5.418 15.045-10.343 21.858-15.963 6.962.766 14.403.171 21.458-2.121 20.14-6.545 30.02-24.27 22.718-40.222" fill="#68285f"/><path d="M28.5 43.299c.089-.367.185-.733.287-1.097v-.008c.121-.038.241-.077.362-.112l.019-.006.31-.092-.02.144-.056.4c-.076.538-.186 1.071-.289 1.605l-.086.027-.77.24c.076-.369.154-.736.242-1.101m-1.918 1.593c.004-.185.007-.368.017-.552.009-.114.017-.23.029-.344.014-.138.023-.279.044-.417.02-.139.037-.28.064-.417l.07-.357a.066.066 0 0 1 .02-.006v.001c.218-.063.436-.128.653-.194v-.004c.15-.046.302-.088.451-.135l.038-.013c-.06.223-.12.445-.175.669-.122.503-.225 1.01-.331 1.518-.293.085-.586.17-.88.25m-1.21.136c.008-.126.016-.252.031-.377.023-.189.05-.376.078-.564.048-.316.103-.63.154-.946l.383-.109v.001c-.018.091-.028.185-.042.277-.01.064-.02.128-.027.192-.02.185-.039.37-.054.556-.028.347-.036.695-.046 1.043l-.022.006c-.151.043-.306.08-.46.114 0-.064.002-.13.005-.193m11.8-3.535a.972.972 0 0 1 .03.49c-.004.023-.006.048-.012.071a1.004 1.004 0 0 1-.067.183l-.005.01c-.118.236-.313.384-.553.482-.005.002-.01.003-.014.006-.194.078-.382.147-.597.147h-.223c-.141.002-.282.003-.423.01l-.058.002c.013-.057.024-.115.035-.172l.063-.314c.048-.24.096-.48.142-.719.048-.247.088-.496.133-.743l.176-.001.083-.035.054-.023a.882.882 0 0 1 .5-.034.98.98 0 0 1 .736.64m-3.137-.194c.015-.088.027-.176.04-.264.171-.02.342-.038.513-.05.097-.008.193-.011.29-.017-.037.2-.069.4-.107.599-.048.248-.098.495-.147.742l-.063.317a30.408 30.408 0 0 1-.066.315v.004l-.071.006-.075.007v.001c-.216.023-.43.048-.645.077.007-.02.019-.035.023-.055.106-.56.212-1.12.308-1.682m-2.078 2.065c.06-.323.119-.647.17-.972.026-.172.051-.344.07-.517.021-.184.032-.367.037-.552.335-.07.67-.136 1.008-.184l.082-.01-.004.025a93.325 93.325 0 0 1-.308 1.682c-.02.107.01.211.073.292l-.412.076c-.24.051-.478.106-.716.16m-2.054.53c.082-.426.163-.85.223-1.278.027-.188.06-.376.076-.565l.018-.265.347-.088c.31-.078.623-.147.936-.215v.035c-.025.302-.071.6-.118.9-.059.376-.132.75-.202 1.124l-.268.064-.09.021v.003c-.152.038-.304.076-.453.12-.157.046-.313.096-.469.143m-.075-17.228c.02-.017.04-.035.061-.051.083-.066.168-.128.258-.182l.04-.023a2.64 2.64 0 0 1 .255-.128l.067-.029a2.403 2.403 0 0 1 1.379-.127 2.443 2.443 0 0 1 1.823 1.597l.125.618a8.01 8.01 0 0 0 .111 1.563c.018.121.039.242.061.363.045.193.118.379.181.566.21.617.163 1.303-.132 1.885a2.449 2.449 0 0 1-1.383 1.203 2.36 2.36 0 0 1-.613.122l-.061.001A2.434 2.434 0 0 1 31.43 34c-.013-.002-.026-.006-.038-.009a2.413 2.413 0 0 1-.307-.087 2.475 2.475 0 0 1-.252-.103l-.043-.024a2.578 2.578 0 0 1-.202-.114l-.003-.002a2.46 2.46 0 0 1-.234-.169c-.025-.02-.051-.04-.076-.062a2.445 2.445 0 0 1-.376-.415l-.055-.082a2.51 2.51 0 0 1-.101-.171c-.015-.029-.031-.057-.045-.086l-.001-.002a2.28 2.28 0 0 1-.107-.254l-.006-.015c-.034-.101-.07-.201-.102-.302a.896.896 0 0 1-.02-.069 3.085 3.085 0 0 1-.077-.278 58.63 58.63 0 0 1-.17-.83c-.033-.17-.065-.339-.094-.509a9.59 9.59 0 0 1-.14-1.701v-.055a2.565 2.565 0 0 1 0-.28c.001-.033.005-.065.009-.098a2.395 2.395 0 0 1 .104-.512c.007-.024.013-.049.022-.073.034-.097.074-.194.121-.288l.356-.521.004-.005c.071-.079.149-.15.229-.22m29.308 5.49c.052-.579.08-1.164.024-1.744a17.93 17.93 0 0 0-.171-1.33 17.883 17.883 0 0 0-.396-1.764c-.11-.396-.238-.793-.366-1.184a11.522 11.522 0 0 0-1.375-2.863 5.642 5.642 0 0 0-.365-.478c-.24-.287-.48-.58-.75-.842-.31-.302-.625-.597-.957-.875-.342-.285-.684-.572-1.033-.848a21.29 21.29 0 0 0-1.462-1.036 13.212 13.212 0 0 0-1.132-.674 14.65 14.65 0 0 0-1.185-.58 8.348 8.348 0 0 0-1.563-.489l-.012-.002-.723-.145a57.144 57.144 0 0 0-1.29-.242 24.516 24.516 0 0 0-2.553-.3c-.628-.043-1.252-.086-1.881-.085a17.96 17.96 0 0 0-1.308.058c-1.044.08-2.064.293-3.083.528-.428.099-.848.226-1.27.348-.395.115-.789.247-1.17.406-.99.415-1.94.899-2.845 1.477-.877.559-1.664 1.256-2.443 1.94-.43.377-.844.778-1.225 1.205-.382.428-.71.894-1.033 1.366-.221.314-.438.63-.654.948-.126.186-.258.372-.367.567a12.26 12.26 0 0 0-.136.248c.115.106.218.227.309.363l.224.455a30.263 30.263 0 0 1 .261.638c.074.189.144.378.204.572.13.42.233.843.324 1.274.046.217.09.436.134.655l.021.116c.028.144.054.288.077.433.057.35.103.702.124 1.054.037.598.022 1.196-.007 1.794l-.027.479a19.36 19.36 0 0 1-.086 1.14l-.01.121c-.05.445-.1.896-.201 1.332a2.29 2.29 0 0 1-.109.337c-.011.03-.025.058-.038.086a1.954 1.954 0 0 1-.702.837c-.074.05-.152.092-.23.13a1.999 1.999 0 0 1-.857.2 2.431 2.431 0 0 1 .245 1.235l-.002.025a2.426 2.426 0 0 1-.036.263c-.005.031-.013.062-.02.093a2.357 2.357 0 0 1-.054.2c-.01.029-.019.059-.03.088-.032.09-.068.179-.112.266l-.002.005-.355.521-.26.335a6.796 6.796 0 0 0-.231.445l-.02.04v.002c-.133.28-.256.566-.383.85l-.145.323h-.001c-.084.187-.169.373-.25.56a5.257 5.257 0 0 0-.101.25l-.003.005c0 .002 0 .004-.002.005l-.03.103h.004l.084.001-.001-.002c.188.002.375-.008.562-.028l.098-.01a.091.091 0 0 1-.006.005l.092-.013c-.048.292-.097.584-.141.876-.029.19-.047.381-.06.571-.01.133-.018.266-.025.398-.002.046-.001.091-.001.137a4.09 4.09 0 0 1-.066.004l-.11.005-.163-.001-.103-.001c-.06-.002-.12-.006-.179-.009l-.087-.004-.18-.012-.075-.005-.008-.001a.985.985 0 0 1-.182-.056l-.004.017c-.109.436-.197.877-.303 1.314a44.994 44.994 0 0 0-.38 1.719h-.002a126.437 126.437 0 0 0-.102.502l-.024.117-.025.12c-.051.254-.104.506-.149.76l-.02.108.004.044.077-.026c.275-.09.551-.177.827-.266v.001c.134-.043.268-.087.402-.133l.03-.01c.058-.02.116-.042.173-.063l.02-.007.03-.01v-.001l.051-.019v-.002c.07-.026.138-.052.207-.08.235-.092.47-.187.706-.278.803-.311 1.63-.568 2.451-.821.418-.13.84-.25 1.25-.403.42-.158.833-.329 1.256-.477.025-.01.05-.016.075-.025.186-.064.372-.124.56-.181.189-.057.378-.112.567-.167.417-.12.833-.25 1.256-.348.33-.076.662-.146.993-.218.085-.018.17-.036.253-.056l.075-.016c.412-.094.818-.215 1.232-.305l.093-.019a36.361 36.361 0 0 1 1.77-.334c.439-.07.875-.148 1.318-.2.071-.007.143-.019.215-.028v.002l.183-.027c.108-.016.215-.03.323-.048l.42-.065a20.972 20.972 0 0 1 .86-.115c.16-.017.32-.032.48-.04.422-.02.846-.05 1.269-.054.131-.002.261.001.39.008l.008-.207c-.124-.42-.235-.843-.318-1.276a11.115 11.115 0 0 1-.165-1.366 29.59 29.59 0 0 1-.066-1.336c-.01-.453.11-.877.419-1.222a1.674 1.674 0 0 1 1.566-.521c.288.058.56.191.78.388.309.276.542.704.552 1.125.01.469.038.935.07 1.402.02.31.052.617.096.922a9.1 9.1 0 0 0 1.024.325c.41.096.83.172 1.245.24.603.1 1.212.171 1.824.16.598-.01 1.185-.137 1.763-.28.208-.053.412-.12.614-.192.1-.035.195-.076.292-.116.088-.037.175-.077.262-.117.26-.122.55-.253.796-.414.183-.12.365-.24.543-.368a10.543 10.543 0 0 0 1.748-1.614c.297-.339.583-.684.86-1.04.377-.484.707-1.003 1.044-1.517.112-.17.212-.346.313-.523.105-.184.22-.366.315-.557.352-.71.647-1.455.81-2.235.182-.868.37-1.743.45-2.627" fill="#fff"/><path d="m24.023 43.392.007-.02v.003-.004l-.007.021" fill="#fff"/></svg>