<svg xmlns="http://www.w3.org/2000/svg" width="308.405" height="302.362" viewBox="0 0 81.599 80"><path d="M78.287 21.715C70.556 4.82 46.3-3.23 25.54 3.518 14.69 7.043 4.835 14.834 1.905 25.834-.811 36.03 3.03 47.356 14.008 55.19c-.241 4.3-1.068 10.816-4.397 20.246-.653 1.848.75 3.699 2.613 3.699.59 0 1.18-.191 1.68-.571 6.935-5.283 14.669-10.085 21.311-15.565 6.788.748 14.044.168 20.922-2.068 19.636-6.38 29.269-23.663 22.15-39.216" fill="#9f9280"/><path d="M40.858 59.25c-3.39 0-5.77-.345-7.203-.532-6.566 5.544-11.517 8.656-18.689 13.783a82.63 82.63 0 0 0 1.907-7.785c1.054-5.486 1.14-9.35 1.22-11.54l-1.085-.72C1.575 42.21.398 24.245 15.076 12.968c6.86-5.272 16.017-8.175 25.782-8.175 15.1 0 28.045 7.01 33.447 16.908 5.167 9.467 3.053 21.139-7.665 29.373-7.228 5.553-16.555 8.175-25.782 8.175m38.41-38.007C71.337 3.916 46.46-4.341 25.166 2.579 14.04 6.195 3.93 14.185.927 25.467-1.86 35.925 2.08 47.541 13.34 55.576c-.247 4.41-1.095 11.093-4.51 20.765-.67 1.896.77 3.794 2.68 3.794.605 0 1.21-.196 1.723-.586 7.113-5.418 15.045-10.343 21.858-15.964 6.962.767 14.403.172 21.458-2.12 20.14-6.545 30.02-24.27 22.718-40.222" fill="#5d5449"/><path d="m43.853 35.221-.002.002.021-.024-.019.022M29.302 51.815a3.437 3.437 0 0 1-.16.01c-.052 0-.104.002-.156 0a3.603 3.603 0 0 1-.682-.08 3.32 3.32 0 0 1-2.337.1c-.004 0-.008-.003-.011-.004a3.232 3.232 0 0 1-1.5-1.067 3.388 3.388 0 0 1-.492-.843c-.3-.012-.6-.066-.896-.165l-.031-.013a3.332 3.332 0 0 1-.265-.104c-.037-.017-.073-.037-.109-.055-.058-.029-.116-.057-.172-.09-.04-.022-.077-.047-.115-.072-.05-.031-.1-.062-.147-.096l-.112-.085-.04-.033a3.44 3.44 0 0 1-.172-.147 3.254 3.254 0 0 1-.242-.25 3.368 3.368 0 0 1-.834-2.146c-.001-.045-.004-.09-.003-.136.002-.064.008-.128.013-.192l.005-.063a3.16 3.16 0 0 1 .035-.236l.008-.048c.004-.022.006-.045.011-.067.026-.117.056-.234.095-.35L21 45.57c.03-.089.064-.175.101-.26.014-.032.03-.061.046-.092.027-.057.053-.114.084-.168.02-.035.041-.068.062-.102.029-.048.057-.097.088-.143.024-.035.05-.068.075-.101.032-.043.062-.086.096-.127.027-.034.057-.066.085-.098.034-.039.067-.077.103-.114.03-.032.063-.062.095-.092.036-.034.072-.069.11-.102.033-.03.069-.057.103-.084.039-.031.077-.062.116-.091.036-.027.074-.052.111-.077l.094-.061a3.026 3.026 0 0 1 .257-.146 3.64 3.64 0 0 1 .436-.185l.1-.034.042-.011a2.42 2.42 0 0 1 .146-.04l.084-.02.071-.015c.048-.01.095-.018.143-.025l.065-.01a3.659 3.659 0 0 1 .243-.022c.013-.001.026-.003.04-.003a5.193 5.193 0 0 1 .285 0 3.276 3.276 0 0 1 .37.034c.021-.086.046-.171.074-.256a3.29 3.29 0 0 1 .174-.408l.025-.048c.017-.032.035-.062.053-.093.051-.09.105-.18.164-.264a3.412 3.412 0 0 1 .625-.67c.036-.03.071-.06.109-.089a3.435 3.435 0 0 1 .767-.43c.042-.016.085-.029.127-.044a3.32 3.32 0 0 1 .412-.119 3.13 3.13 0 0 1 .641-.074c.044 0 .087-.003.131-.002.066.001.132.007.198.013.04.004.08.005.12.01.076.009.15.023.226.038.03.006.062.01.094.017a3.116 3.116 0 0 1 .785.292l.02.01c.107.058.21.121.31.19l.063.043.017.013c.105.077.205.16.3.248l.014.014.048.048c.087.086.168.175.245.27l.038.045c.024.03.046.062.069.093.033.046.066.091.097.139.023.033.043.068.064.102.028.047.056.095.082.143a3.731 3.731 0 0 1 .125.257c.025.058.05.115.073.174.014.039.025.079.038.118.016.047.033.095.047.143l.028.118c.012.05.026.099.035.15.008.037.012.076.018.113.009.053.018.106.024.16.004.036.005.072.008.109.004.055.01.111.01.167.002.032 0 .064 0 .097-.001.06 0 .121-.004.182l-.007.066a2.919 2.919 0 0 1-.022.214l-.003.014a3.228 3.228 0 0 1-.338 1.02 3.19 3.19 0 0 1 .66.549c.044.047.089.093.13.142.062.074.117.151.172.23.034.049.071.096.103.147a3.4 3.4 0 0 1 .151.278c.023.045.049.087.069.132.06.135.112.273.154.415l.017.063c.038.138.07.28.09.422.001.006.003.012.003.019.02.145.028.294.028.442v.076c-.003.145-.016.29-.039.436l-.013.07a3.21 3.21 0 0 1-.113.451c-.43 1.277-1.605 2.124-2.884 2.23m-7.829-7.743c-.126.375-.253.751-.378 1.127l-.037.117c-.035.107-.067.215-.102.322a.16.16 0 0 1-.01.012c-.053.167-.102.333-.152.5l-.05.164-.029.096-.007.024.002-.001c-.066.231-.13.463-.185.698l.01-.01c-.021.088-.048.173-.068.261-.07.472-.08.948-.062 1.424a7.2 7.2 0 0 0 .312 1.334l.002.002c.037.098.079.194.12.29l-.002.002.014.028.02.05.003-.003.042.084c.082.18.168.357.26.531.043.08.084.162.129.242.017.03.032.062.049.093l.004-.004c.121.212.244.424.375.63.108.153.22.302.34.445a3.435 3.435 0 0 0 .758.665c.138.084.277.164.418.24.168.071.339.132.51.19l.13.042v.001l.353.113.036.012.368.114.001-.002.119.036.026.008c.187.055.375.106.565.152.217.031.432.048.656.045.183-.003.367-.013.55-.02a21.047 21.047 0 0 0 1.559-.2c.568-.095 1.13-.22 1.68-.394.28-.104.55-.222.817-.362a9.99 9.99 0 0 0 .786-.47l.103-.07c.23-.16.456-.328.682-.494.097-.072.195-.142.293-.211.186-.169.374-.336.556-.51.397-.379.78-.772 1.175-1.153a24.917 24.917 0 0 0 1.531-1.616c.247-.284.484-.578.726-.868a61.13 61.13 0 0 0 1.436-1.574l-.392.442c.205-.223.408-.447.61-.672.2-.225.43-.421.64-.634.292-.294.576-.595.854-.902.43-.4.857-.803 1.277-1.213a199.07 199.07 0 0 0 2.816-2.804c.325-.33.65-.66.965-1a130.65 130.65 0 0 0 1.61-1.782.995.995 0 0 0 .1-.076c.076-.067.16-.18.234-.266l.143-.163.181-.208c.092-.105.18-.213.27-.319a213.24 213.24 0 0 0 1.578-1.907l2.198-2.69c.672-.827 1.345-1.652 2.02-2.477l1.619-1.975c.55-.669 1.087-1.347 1.636-2.016a95.688 95.688 0 0 1 2.192-2.572l-.001.002.366-.411c0-.002-.001-.003-.002-.002a105.895 105.895 0 0 1-3.917 3.812c-.419.39-.826.791-1.238 1.188-.711.688-1.423 1.374-2.136 2.06l.052-.065a585.884 585.884 0 0 1 2.133-2.773c.153-.197.293-.408.438-.611.206-.289.411-.577.618-.864a65.76 65.76 0 0 1 1.264-1.71c.001-.002-.001-.003-.002-.002l-.354.402.003-.004a56.442 56.442 0 0 1-2.533 2.695c-.578.572-1.157 1.143-1.736 1.713-.867.85-1.773 1.66-2.67 2.478-.9.82-1.812 1.623-2.717 2.437-.716.643-1.447 1.27-2.172 1.905.334-.374.668-.75 1-1.125.74-.82 1.456-1.66 2.185-2.49.82-.933 1.634-1.87 2.449-2.806l2.686-3.013c.71-.798 1.436-1.58 2.158-2.367 1.761-1.919 3.522-3.838 5.287-5.753 1.456-1.58 2.896-3.177 4.366-4.746.001-.001 0-.003-.002-.001-2.726 2.729-5.508 5.401-8.284 8.08-.92.887-1.856 1.757-2.784 2.635a1036.839 1036.839 0 0 0-7.576 7.233c-.981.945-1.953 1.898-2.918 2.859.741-.93 1.483-1.86 2.214-2.797.887-1.137 1.772-2.275 2.66-3.411.731-.935 1.492-1.849 2.24-2.77 1.609-1.978 3.208-3.962 4.897-5.873 0 0-.001-.003-.002-.001-1.659 1.74-3.4 3.396-5.108 5.088-.919.91-1.845 1.814-2.763 2.725-.593.589-1.186 1.176-1.78 1.763l1.28-1.48c.544-.632 1.09-1.264 1.636-1.894.532-.613 1.049-1.237 1.573-1.857.553-.653 1.111-1.301 1.677-1.942l.009-.01a102.592 102.592 0 0 1 1.299-1.443 105.802 105.802 0 0 1-3.908 3.725c-.474.429-.948.856-1.42 1.287-1.071.979-2.146 1.954-3.22 2.93-.299.271-.607.533-.91.8-.657.574-1.313 1.15-1.968 1.727-.305.268-.603.546-.914.806a273.082 273.082 0 0 0-2.361 1.998l-.364.315-.161.14c-.013.01-.022.02-.034.031l.117-.141.343-.414.479-.583c.21-.255.43-.502.646-.752.796-.924 1.589-1.851 2.379-2.78 1.517-1.69 3.032-3.384 4.54-5.082l2.182-2.453c.786-.881 1.559-1.774 2.34-2.658l-.02.024a191.408 191.408 0 0 1 2.788-3.094c-2.881 2.904-5.875 5.696-8.845 8.51-.791.747-1.603 1.474-2.406 2.209-.368.337-.732.677-1.1 1.015.259-.277.519-.553.783-.824.002-.001 0-.003-.002-.002a61.57 61.57 0 0 1-4.088 3.493c-.124.097-.242.203-.363.304l-.046.039.35-.413c.208-.245.42-.485.631-.727.926-1.058 1.846-2.12 2.766-3.182 1.46-1.64 2.918-3.284 4.387-4.917 1.293-1.439 2.6-2.866 3.883-4.316l.003-.003a279.22 279.22 0 0 1 4.705-5.201c.001-.002 0-.004-.001-.003-3.006 3.023-6.112 5.947-9.199 8.886-1.606 1.529-3.229 3.04-4.85 4.553-1.816 1.696-3.63 3.392-5.405 5.131-.07.07-.141.14-.201.217a175.022 175.022 0 0 0-3.668 3.728c-.403.422-.826.825-1.235 1.24a110.9 110.9 0 0 0-2.657 2.786l-.938 1.009c-.449.48-.885.972-1.335 1.45l-.361.385a1.375 1.375 0 0 1-.362.551l-1.063.99-.176.19c-.048.09-.094.18-.14.27-.154.342-.262.7-.38 1.054" fill="#fff"/><path d="M29.925 46.473a2.36 2.36 0 0 0-2.963 1.47 2.36 2.36 0 0 0 1.47 2.962 2.36 2.36 0 0 0 2.963-1.47 2.36 2.36 0 0 0-1.47-2.962m-.902-1.03a1.305 1.305 0 0 0-.812-1.638 1.305 1.305 0 0 0-1.638.813 1.305 1.305 0 0 0 .812 1.638 1.305 1.305 0 0 0 1.638-.813" fill="#fff"/></svg>