<svg xmlns="http://www.w3.org/2000/svg" width="308.405" height="302.362" viewBox="0 0 81.599 80"><path d="M78.173 21.52C70.44 4.626 46.186-3.424 25.424 3.323 14.576 6.848 4.72 14.639 1.79 25.639-.925 35.834 2.915 47.16 13.893 54.995c-.241 4.3-1.068 10.816-4.397 20.246-.653 1.848.751 3.699 2.613 3.699.59 0 1.18-.191 1.68-.572 6.936-5.282 14.67-10.084 21.311-15.564 6.788.747 14.044.167 20.922-2.068 19.636-6.38 29.269-23.663 22.15-39.216" fill="#049d51"/><path d="M40.743 59.054c-3.39 0-5.77-.344-7.203-.531-6.566 5.544-11.517 8.655-18.689 13.783a82.63 82.63 0 0 0 1.907-7.785c1.055-5.486 1.14-9.35 1.221-11.54l-1.085-.72C1.46 42.014.284 24.05 14.96 12.772 21.82 7.502 30.978 4.6 40.743 4.6c15.1 0 28.045 7.01 33.447 16.907 5.167 9.468 3.053 21.14-7.664 29.374-7.229 5.554-16.556 8.174-25.783 8.174m38.41-38.007C71.223 3.72 46.345-4.536 25.052 2.384 13.925 6 3.816 13.99.812 25.272c-2.786 10.457 1.153 22.074 12.413 30.109-.247 4.41-1.095 11.093-4.51 20.765-.67 1.896.77 3.794 2.68 3.793.606 0 1.21-.195 1.723-.585 7.114-5.418 15.045-10.343 21.858-15.964 6.962.767 14.403.172 21.458-2.12 20.14-6.545 30.02-24.27 22.719-40.223" fill="#037339"/><path d="M55.061 29.061c.01-.132.018-.264.026-.396a24.678 24.678 0 0 1 .27-2.366 1.044 1.044 0 0 0-.224-.023h-.008c-.275.002-.434.077-.68.187-.05.022-.097.049-.146.073-.074.037-.147.076-.221.114-.323.168-.64.345-.958.521-.31.171-.622.34-.932.51-.308.17-.613.347-.92.52-.633.353-1.266.706-1.903 1.05a51.07 51.07 0 0 0-3.665 2.174c-.615.402-1.242.785-1.858 1.185-.292.189-.582.38-.872.575l.16-.254c.377-.597.776-1.181 1.134-1.79.147-.248.293-.497.439-.747a1.153 1.153 0 0 1-.074-.682l.003-.013a1.26 1.26 0 0 1 .023-.088l.006-.02a1.152 1.152 0 0 1 .14-.288l.002-.005a1.46 1.46 0 0 1 .14-.176c.182-.193.367-.384.54-.584.112-.167.207-.344.292-.527.146-.369.28-.744.417-1.116.173-.473.352-.943.552-1.405.078-.192.152-.386.22-.582.092-.266.2-.527.31-.786.174-.425.34-.852.527-1.273.147-.332.3-.664.446-.997a3.81 3.81 0 0 0 .105-.28c.21-.65.442-1.296.612-1.958.086-.334.175-.666.26-1 .086-.338.193-.67.284-1.007.178-.658.294-1.333.424-2.001.055-.282.111-.564.157-.847l.005-.108c.015-.354.005-.711.005-1.066 0-.34 0-.68-.003-1.02-.19.138-.337.337-.403.576-.14.509-.269 1.021-.423 1.526-.044.145-.097.288-.146.432l-.249.734c-.032.095-.061.19-.098.284-.284.72-.568 1.438-.861 2.154l-.255.62-.471 1.118c-.148.35-.312.696-.468 1.043-.153.342-.297.687-.442 1.031l-.353.847a20.42 20.42 0 0 0-.023-1.175c-.045-.915-.123-1.826-.195-2.738l-.039-.285a1.066 1.066 0 0 0-.738-.743c.01.332.036.664.052.996.016.34.015.682.016 1.024.001.33.006.66-.02.988-.031.432-.112.856-.178 1.283-.028.21-.057.42-.088.629-.026.203-.052.406-.09.606-.026.152-.061.302-.09.454-.062.335-.114.674-.19 1.007l-.121.536c-.035.158-.087.311-.132.466-.088.312-.207.613-.309.921-.108.329-.214.658-.34.98a14.6 14.6 0 0 1-.532 1.203 51.314 51.314 0 0 1-.683 1.33l-.033.063c-.178.327-.34.662-.507.995a.764.764 0 0 1-.11.164l-.014.017a.952.952 0 0 1-.141.132l-.025.019c-.024.018-.05.036-.075.052l-.027.016a1.22 1.22 0 0 1-.274.123l-.12.215c-.115.207-.236.412-.356.618a6.062 6.062 0 0 0-.293.537 6.55 6.55 0 0 0-.093.213c-.168.24-.34.477-.511.714a34.06 34.06 0 0 1-1.177 1.452l-.195.221c.1-.294.191-.592.244-.898.046-.263.08-.53.08-.797 0-.176-.002-.352-.008-.529-.013-.387-.06-.768-.111-1.151l.007.051c-.056-.426-.106-.851-.216-1.267a10.501 10.501 0 0 0-1.392-3.103 26.57 26.57 0 0 0-.608-.883c-.255-.36-.54-.688-.838-1.013-.235-.255-.482-.498-.725-.746-.236-.243-.5-.456-.745-.69-.255-.242-.5-.495-.749-.742a31.784 31.784 0 0 0-.811-.777c-.183-.169-.374-.329-.557-.496a17.59 17.59 0 0 1-.543-.392c-.093-.07-.187-.137-.278-.208a10.903 10.903 0 0 1-1.003-.843 8.491 8.491 0 0 0-.273-.256l-.035-.032a14.193 14.193 0 0 0-.154-.136l-.047-.041-.192-.168a7.916 7.916 0 0 1-.313-.29 7.534 7.534 0 0 1-.13 1.032 7.302 7.302 0 0 1-.275 1.02c-.117.336-.247.67-.348 1.01a39.5 39.5 0 0 1-.305.995c-.106.329-.228.652-.329.982a50.347 50.347 0 0 0-.575 2.02c-.04.267-.078.533-.116.8a15 15 0 0 0-.163 2.345c-.004.36-.003.718-.003 1.077 0 .347 0 .693.027 1.04.035.446.12.883.24 1.312.116.409.273.798.44 1.188.141.326.287.648.475.95.191.306.404.596.619.886.25.339.5.684.788.993.25.267.52.507.804.737.276.223.555.441.834.661l.216.167a1.061 1.061 0 0 0 .683.135c.198.189.466.307.744.307.283 0 .557-.114.756-.313.206-.206.302-.469.313-.756a9.856 9.856 0 0 0-.006-1.114c-.03-.43-.094-.862-.151-1.29-.047-.347-.116-.692-.183-1.036-.065-.34-.129-.68-.208-1.018a12.15 12.15 0 0 0-.28-1.026 17.476 17.476 0 0 1-.293-.992c-.087-.33-.172-.66-.277-.985-.112-.342-.233-.68-.333-1.026-.094-.322-.173-.647-.265-.97-.098-.341-.2-.68-.32-1.015a14.246 14.246 0 0 1-.563-2.03l-.03-.167c.088.21.179.42.28.624.162.326.327.65.486.978.132.272.27.54.395.816.12.266.252.527.383.788.242.486.51.955.734 1.45.24.62.426 1.258.612 1.896.094.324.183.65.276.974.093.322.149.654.204.983l.035.215c.055.505.063 1.014.063 1.523 0 .26.003.519-.002.778-.004.252-.028.502-.05.753-.23.408-.178.939.168 1.285.203.203.477.307.751.309l-.198.22c-.117.13-.223.272-.334.407-.24.292-.479.586-.717.878-.21.257-.417.514-.625.77-.267.33-.534.663-.78 1.008-.42.588-.844 1.18-1.225 1.795-.382.62-.752 1.245-1.111 1.879-.363.64-.723 1.281-1.089 1.92-.173.302-.337.61-.5.918-.185.348-.375.692-.566 1.036a28.48 28.48 0 0 0-.955 1.92c-.339.733-.64 1.485-.953 2.23-.195.467-.38.94-.518 1.426-.072.253-.147.51-.19.77-.026.15-.054.299-.075.449-.005.031-.01.062-.013.092l.02-.033c.07-.109.143-.215.209-.325.274-.462.534-.931.816-1.388.362-.586.75-1.152 1.16-1.705.163-.22.329-.437.504-.648.102-.122.21-.24.313-.362l.36-.43c.11-.131.236-.25.359-.37.245-.24.51-.458.767-.683l.227-.197.136-.246c.152-.273.293-.554.444-.828.194-.353.39-.703.59-1.052.354-.615.697-1.236 1.05-1.851a31.54 31.54 0 0 1 1.017-1.682c.372-.562.755-1.114 1.145-1.662.409-.516.823-1.029 1.24-1.54l.717-.877c.2-.243.416-.474.627-.706.49-.538.99-1.067 1.51-1.577a24.928 24.928 0 0 1 2.49-2.178c.569-.42 1.135-.841 1.703-1.26.28-.206.574-.398.862-.594.32-.217.642-.434.964-.65.588-.395 1.195-.762 1.794-1.14l.188-.122c-.254.244-.499.499-.765.73-.233.168-.47.33-.705.492-.354.245-.69.511-1.016.793-.531.46-1.035.949-1.56 1.416-.25.223-.506.441-.755.665-.247.222-.452.488-.676.732a4.138 4.138 0 0 1-.344.318c-.14.122-.283.241-.43.356-.306.24-.602.49-.897.742a.93.93 0 0 0-.271.46 1.073 1.073 0 0 0-.103.243l-.038.284c0 .192.05.372.146.54.28.37.557.743.847 1.106.112.139.22.283.336.416.168.192.345.352.554.501.25.18.534.288.82.401.314.124.633.252.96.34.33.089.672.161 1.015.163.173 0 .345 0 .518-.003a9.784 9.784 0 0 0 1.042-.052c.255-.03.512-.06.763-.12.187-.045.371-.097.557-.151.16-.048.318-.11.472-.175a27.72 27.72 0 0 0 1.727-.79c.302-.152.596-.322.887-.493.161-.095.323-.19.482-.288.163-.1.318-.207.474-.32.215-.154.418-.323.623-.49.108-.09.21-.184.308-.282.203-.234.4-.475.595-.715.26-.367.466-.76.68-1.157.224-.41.46-.814.657-1.239.074-.186.144-.373.207-.564.105-.315.203-.633.29-.953a9.59 9.59 0 0 0 .21-.991c.055-.349.13-.693.2-1.04.033-.167.08-.332.114-.5a8.21 8.21 0 0 0 .075-.439c.035-.277.067-.554.106-.83.031-.216.07-.43.105-.644.024-.22.05-.44.08-.66l-.023.169c.026-.195.05-.39.072-.586l.002-.003.029-.275c.017-.18.04-.36.068-.538l.005-.033.038-.23.006-.034c.015-.085.03-.17.047-.255l.001-.024a12.556 12.556 0 0 0 .033-.39" fill="#fff"/><path d="M40.298 31.25a1.992 1.992 0 0 0 1.974-1.973 1.991 1.991 0 0 0-1.974-1.973 1.992 1.992 0 0 0-1.973 1.973c0 1.076.898 1.974 1.973 1.974" fill="#fff"/></svg>