<svg xmlns="http://www.w3.org/2000/svg" width="308.405" height="302.362" viewBox="0 0 81.599 80"><path d="M78.25 21.606C70.518 4.712 46.263-3.338 25.502 3.409 14.653 6.934 4.797 14.725 1.868 25.725-.848 35.92 2.992 47.247 13.97 55.08c-.24 4.3-1.067 10.816-4.397 20.246-.652 1.848.751 3.699 2.614 3.699.59 0 1.18-.191 1.679-.571 6.936-5.283 14.67-10.085 21.312-15.565 6.788.748 14.043.168 20.922-2.068 19.635-6.38 29.268-23.663 22.15-39.216" fill="#9e8a29"/><path d="M40.82 59.14c-3.39 0-5.769-.344-7.203-.531-6.565 5.544-11.516 8.656-18.688 13.783a82.63 82.63 0 0 0 1.907-7.784c1.054-5.487 1.14-9.35 1.22-11.54l-1.085-.722C1.538 42.102.361 24.136 15.038 12.86 21.9 7.588 31.056 4.685 40.821 4.685c15.1 0 28.044 7.01 33.446 16.908 5.167 9.467 3.053 21.139-7.664 29.373-7.229 5.553-16.556 8.175-25.782 8.175M79.23 21.134C71.3 3.807 46.423-4.45 25.13 2.47 14.001 6.086 3.893 14.076.888 25.358c-2.785 10.458 1.154 22.074 12.413 30.109-.247 4.41-1.095 11.093-4.51 20.765-.67 1.896.77 3.794 2.68 3.794a2.84 2.84 0 0 0 1.723-.586c7.114-5.418 15.046-10.343 21.858-15.963 6.963.766 14.404.171 21.459-2.121C76.65 54.81 86.53 37.086 79.23 21.134" fill="#6e5f1b"/><path d="M54.043 23.747c-.763-.643-1.574-1.22-2.388-1.796-.975-.69-1.991-1.3-3.067-1.816-.441-.212-.88-.427-1.33-.621a12.142 12.142 0 0 0-1.313-.465c-.226-.068-.453-.138-.688-.175-.469-.074-.934-.1-1.411-.123-.51-.025-.997.095-1.496.198-.317.065-.714.3-.952.422-.336.174-.617.47-.882.727-.03.029-.06.06-.088.093-.08.09-.151.19-.223.287-.277.373-.535.764-.772 1.165-.5.843-.79 1.782-1.168 2.681-.468 1.11-.884 2.252-1.154 3.428-.22.952-.332 1.935-.437 2.906a82.71 82.71 0 0 0-.274 2.85 49.11 49.11 0 0 1-.139 1.528 29.21 29.21 0 0 0-.156 2.122c-.015.473-.032.946-.05 1.42-.016.207-.03.415-.044.623a13.693 13.693 0 0 1-.093-.589c-.06-.467-.044-.946-.049-1.416-.001-.165-.008-.33-.013-.495l.003-.002c-.009-.317-.021-.633-.028-.95-.01-.49-.01-.98.01-1.469.02-.502.052-1.003.06-1.506v-.027c.016-.95.094-1.898.106-2.848.01-.741.042-1.481.112-2.22l.104-1.067c.01-.406.012-.812.025-1.218.02-.61.051-1.222.092-1.832.01-.313.01-.626-.004-.939l-.134-.142c-.16-.168-.35-.312-.525-.464l-.55-.48c-.36-.311-.718-.623-1.086-.924-.39-.318-.786-.63-1.185-.937-.357-.274-.747-.517-1.12-.761a7.527 7.527 0 0 0-.308-.195c-.402-.237-.814-.374-1.27-.507-.828-.24-1.904-.055-2.58.482-.214.17-.413.326-.583.52a1.94 1.94 0 0 0-.11.138c-.173.24-.331.491-.488.742-.178.285-.285.713-.367.992-.044.15-.053.305-.064.46-.051.712-.065 1.41.011 2.119.102.947.211 1.903.393 2.839.142.73.288 1.46.447 2.188.101.464.226.924.342 1.384.238.936.567 1.853.888 2.764.17.484.339.968.522 1.448.174.454.37.9.563 1.347.185.427.404.839.592 1.264.207.466.42.928.628 1.393l.023.05c-.021-.032-.04-.063-.062-.094-.454-.665-1.37-.865-2.048-.416a1.426 1.426 0 0 0-.288.253c-.426.488-.508 1.24-.128 1.795.289.422.56.855.846 1.279.341.506.747.958 1.157 1.408.328.36.703.683 1.064 1.01.365.33.738.652 1.109.977.354.31.706.624 1.075.917.289.23.588.444.892.653.244.113.488.223.733.335.768.349 1.517.762 2.31 1.057.145.045.291.088.439.128.896.24 1.777.55 2.685.745l.062.006c.446.018.892.034 1.339.066l.418.03c.438.007.88-.004 1.314-.061.164-.039.329-.08.494-.116.378-.086.757-.156 1.138-.223a8.211 8.211 0 0 0 1.239-.401l.02-.01a11.462 11.462 0 0 1-.739-.153c-.247-.06-.494-.122-.74-.184-.448-.114-.893-.239-1.34-.352-.483-.121-.974-.23-1.45-.37-.312-.093-.621-.19-.932-.285.07-.062.14-.126.204-.195.1.004.201.003.303-.004.492-.007.977-.207 1.443-.354.238-.075.477-.145.717-.211.448-.124.898-.238 1.341-.38.97-.313 1.899-.718 2.82-1.152.38-.18.757-.367 1.134-.553a83.107 83.107 0 0 0 2.825-1.431 62.915 62.915 0 0 0 2.583-1.476c.433-.258.852-.536 1.272-.813.782-.516 1.554-1.089 2.154-1.814.461-.556.892-1.138 1.24-1.773a9.08 9.08 0 0 0 .321-.658c.046-.103.08-.212.119-.317.202-.54.375-1.09.434-1.664.044-.435.068-.906.066-1.35a5.985 5.985 0 0 0-.261-1.688c-.13-.433-.345-.828-.55-1.231a4.4 4.4 0 0 0-.16-.295 13.873 13.873 0 0 0-1.256-1.739c-.467-.554-.934-1.093-1.471-1.577a92.289 92.289 0 0 0-2.217-1.915" fill="#fff"/><path d="M27.41 37.874A1.493 1.493 0 0 0 28.338 36c-.062-.185-.135-.427-.252-.571-.114-.14-.235-.274-.356-.409-.072-.08-.144-.16-.217-.238-.177-.192-.349-.39-.522-.585l-.33-.218a1.479 1.479 0 0 0-.296-.102c-.116-.2-.225-.404-.328-.61-.305-.634-.54-1.3-.747-1.971a21.064 21.064 0 0 1-.322-1.153l-.405-1.65-.37-2.057c-.015-.086-.025-.174-.037-.26l-.096-.673-.188-1.311c-.132-.918-.237-1.84-.354-2.76a.317.317 0 0 0-.562-.181.287.287 0 0 0-.073.225c.115.899.216 1.8.345 2.697l.17 1.186.159 1.11c.011.08.028.16.042.24l.12.671.215 1.193c.017.096.042.19.065.286l.162.656.26 1.056c.057.234.128.466.197.697.073.25.151.5.235.747.157.467.333.927.542 1.374.078.167.164.33.251.494-.08.02-.157.051-.232.085-.063-.097-.127-.194-.186-.294a17.32 17.32 0 0 1-.646-1.188c-.22-.454-.423-.916-.618-1.382a25.06 25.06 0 0 1-.55-1.421c-.164-.472-.31-.951-.444-1.433-.08-.286-.164-.575-.225-.866l-.514-2.464-.013-.065c-.12-.772-.242-1.543-.364-2.315-.048-.308-.1-.615-.14-.924-.134-1.014-.232-2.034-.343-3.051l-.04-.366a.323.323 0 0 0-.34-.296.328.328 0 0 0-.221.113.295.295 0 0 0-.075.227c.115 1.017.213 2.035.337 3.051.047.38.103.755.163 1.132l.388 2.474c.012.08.032.159.048.237l.115.553.306 1.467.092.44c.011.054.025.108.039.162.063.251.13.502.2.752.135.482.283.96.448 1.432.167.48.357.952.554 1.421.2.48.412.954.64 1.421.226.46.472.907.735 1.346.044.074.093.145.14.217-.252.293-.38.678-.354 1.064l.074.37c.086.253.229.467.43.643.165.187.334.372.501.558a1.493 1.493 0 0 0 1.859.89" fill="#fff"/></svg>