<svg xmlns="http://www.w3.org/2000/svg" width="308.405" height="302.362" viewBox="0 0 81.599 80"><path d="M78.166 21.496C70.434 4.602 46.178-3.448 25.417 3.299 14.57 6.824 4.713 14.615 1.783 25.615-.933 35.81 2.908 47.137 13.886 54.97c-.241 4.3-1.068 10.816-4.397 20.246-.653 1.848.751 3.699 2.613 3.699.59 0 1.18-.191 1.68-.572 6.935-5.282 14.67-10.084 21.311-15.564 6.788.747 14.044.167 20.922-2.068 19.636-6.38 29.269-23.663 22.15-39.216" fill="#be9d04"/><path d="M40.736 59.03c-3.39 0-5.77-.344-7.203-.531-6.566 5.544-11.517 8.655-18.689 13.783a82.63 82.63 0 0 0 1.907-7.785c1.055-5.486 1.14-9.35 1.221-11.54l-1.085-.72C1.454 41.991.276 24.025 14.954 12.748c6.86-5.271 16.017-8.174 25.782-8.174 15.1 0 28.045 7.01 33.447 16.907 5.167 9.468 3.053 21.14-7.665 29.374-7.228 5.554-16.555 8.174-25.782 8.174m38.41-38.007C71.215 3.696 46.337-4.56 25.044 2.36 13.918 5.976 3.809 13.966.805 25.248c-2.786 10.457 1.153 22.074 12.413 30.109-.247 4.41-1.095 11.093-4.51 20.765-.67 1.896.77 3.794 2.68 3.794a2.84 2.84 0 0 0 1.723-.586c7.114-5.418 15.045-10.343 21.858-15.964 6.962.767 14.403.172 21.458-2.12 20.14-6.545 30.02-24.27 22.718-40.223" fill="#7b6502"/><path d="M49.055 38.615c-3.135.06-6.271.142-9.407.222a631.575 631.575 0 0 0-3.48.1l.017-.05c.283-.612.682-1.17 1.032-1.744.615-1.008 1.09-2.087 1.569-3.165 0 0 0-.002-.002-.002-.824.745-1.649 1.49-2.38 2.325-.289.328-.608.668-.8 1.058-.144.291-.28.583-.393.887a2.77 2.77 0 0 0-.149.744l-.908.055c.023-.088.048-.175.075-.263.202-.655.364-1.32.622-1.957.48-1.101 1.088-2.131 1.646-3.193.001-.002 0-.003-.002-.003-1.124.904-2.34 1.75-2.975 3.095-.311.66-.421 1.405-.487 2.128-.009.09-.01.181-.01.272-.607.05-1.216.094-1.823.15l.023-.11c.105-.476.26-.947.396-1.415.123-.427.264-.847.415-1.265.128-.212.192-.49.267-.724.056-.175.122-.346.18-.52.115-.343.219-.69.328-1.035.436-1.374.723-2.778 1.053-4.18l-.002-.002-.001.001c-.815 1.196-1.66 2.365-2.391 3.615a15.41 15.41 0 0 0-.508.96 17.32 17.32 0 0 0-.238.495c-.06.13-.113.267-.167.4l-.072.18a1.107 1.107 0 0 0-.06.217.153.153 0 0 0 .005-.032c-.193.525-.298 1.064-.369 1.617-.061.477-.126.98-.112 1.461.004.154.013.307.023.46l-1.036.116c-.03-.19-.082-.376-.131-.562a17.134 17.134 0 0 0-.237-.814c-.15-.474-.32-.943-.498-1.408a142.984 142.984 0 0 0 .73-2.407l-.001.001c-.38.467-.767.924-1.128 1.402l-.118-.291-.001-.002c-.001 0-.002 0-.002.002l-.016.476a9.475 9.475 0 0 0-.583.891c-.16.282-.313.568-.454.86-.129.265-.217.55-.313.828-.14.4-.255.807-.278 1.232-.003.059 0 .117.001.176l-.086.012-.97.141c.045-.104.091-.208.135-.314.065-.1.1-.23.141-.343a16.655 16.655 0 0 0 .364-1.166c.244-.89.378-1.815.536-2.723l-.001-.003-.002.001c-.795 1.262-1.615 2.532-2.13 3.937a11 11 0 0 0-.257.796c-.831.132-1.66.274-2.485.444-.307.063-.612.132-.918.2.163-.224.328-.446.494-.668.902-1.144 1.824-2.27 2.766-3.382a72.704 72.704 0 0 0 3.066-3.884 40.678 40.678 0 0 0 1.801-2.69c.185-.302.38-.6.554-.907.378-.664.753-1.33 1.142-1.989.415-.7.828-1.401 1.24-2.104a112.061 112.061 0 0 0 1.77-3.141c.25-.463.473-.943.69-1.423.082.105.167.209.253.312.142.17.283.338.433.501.19.206.406.387.626.562.243.192.487.383.734.572.362.278.751.514 1.153.729.572.305 1.18.525 1.794.728.274.09.555.168.836.233.323.074.647.145.974.201a314.377 314.377 0 0 0 .533.09l.01.07c.07.529.15 1.056.344 1.559.11.284.235.558.39.82.195.327.46.629.738.889.389.366.842.638 1.304.898.734.414 1.556.668 2.387.802.38.06.76.106 1.141.146.089.164.166.335.245.504a22.306 22.306 0 0 0 .818 1.571c.172.304.36.6.551.893.227.346.468.674.715 1.005.499.667 1.078 1.273 1.653 1.874.515.54 1.077 1.025 1.642 1.51.568.488 1.163.94 1.767 1.382-1.914.015-3.827.036-5.74.073m-21.492-.406c.028.316.062.632.105.947.022.167.053.332.085.497-.28.034-.561.069-.841.105a3.11 3.11 0 0 1 .086-.261c.146-.333.298-.66.436-.997.053-.087.093-.189.129-.291m19.651-8.86a9.536 9.536 0 0 0 1.317.311 24.446 24.446 0 0 1-.443-.057c-.207-.03-.42-.056-.622-.115a7.513 7.513 0 0 1-1.287-.512c.344.127.687.26 1.035.372m-1.744-.796.02.024-.029-.02.009-.004m24.858 12.592c-.089-.323-.29-.536-.558-.725-.19-.133-.373-.274-.568-.4-.121-.079-.253-.132-.386-.188-.27-.114-.538-.228-.812-.33-.32-.12-.645-.226-.974-.318a17.26 17.26 0 0 0-2.273-.466 1.247 1.247 0 0 0 .605-.36l-.147-.058a14.1 14.1 0 0 1-.825-.353l-.077-.036a6.141 6.141 0 0 1-.366-.194l-.065-.04a4.25 4.25 0 0 1-.362-.236 20.08 20.08 0 0 1-.491-.379c-.05-.039-.098-.08-.147-.12a9.621 9.621 0 0 1-.439-.377l-.003-.003a6.654 6.654 0 0 1-.72-.743l-.008-.011-.001-.001a12.448 12.448 0 0 1-.839-1.152 16.375 16.375 0 0 1-.541-.933c-.477-.9-.966-1.84-1.175-2.839a7.875 7.875 0 0 1-.095-.552 18.42 18.42 0 0 1-1.642-.627 44.2 44.2 0 0 1-1.373-.613c-.466-.216-.949-.448-1.363-.756a16.834 16.834 0 0 1-1.188-.959c-.26-.233-.5-.492-.736-.748a25.796 25.796 0 0 1-.544-.61l-.182-.211a18.64 18.64 0 0 1-.549-.674l-.02-.024a11.438 11.438 0 0 1-.721-.692c-.412-.429-.805-.898-1.097-1.417-.049-.086-.096-.174-.143-.261a1.048 1.048 0 0 0-.246.112 4.293 4.293 0 0 0-.33.25c-.09.111-.182.222-.264.34-.11.156-.213.316-.321.473-.21.238-.447.45-.677.668-.242.23-.504.44-.764.649a6.236 6.236 0 0 1-.73.446c-.305.16-.629.29-.945.428a.662.662 0 0 0-.08.044 1.26 1.26 0 0 0-1.287.804 41.377 41.377 0 0 1-.155-.218c-.084-.12-.172-.242-.241-.37a9.042 9.042 0 0 1-.517-1.167 2.821 2.821 0 0 1-.134-.431 7.41 7.41 0 0 1-.141-1.378c-.893-.054-1.794-.155-2.664-.364-.586-.14-1.131-.362-1.683-.611a7.641 7.641 0 0 1-.957-.49c-.76-.482-1.451-1.06-2.156-1.617l-.173-.136c-.532-.405-1.064-.813-1.52-1.307a12.899 12.899 0 0 1-1.012-1.283c-.052.06-.1.124-.141.195-.08.14-.135.292-.198.44-.06.143-.113.29-.17.433-.082.209-.166.417-.252.624a28.624 28.624 0 0 1-.92 1.88c-.385.709-.783 1.412-1.18 2.115-.71 1.251-1.471 2.473-2.183 3.724-.545.955-1.094 1.906-1.696 2.826-.318.486-.638.966-.974 1.44-.298.42-.605.836-.912 1.253a77.997 77.997 0 0 1-1.203 1.514c-.491.599-.992 1.19-1.49 1.785a133.66 133.66 0 0 0-1.507 1.838c-.508.63-1.02 1.264-1.49 1.924-.19.265-.379.531-.566.798-.18.257-.203.644-.122.936.014.052.036.102.058.151-.428.088-.855.172-1.286.248-.509.089-1.019.17-1.53.25a38.06 38.06 0 0 1-1.69.172c-.331.026-.617.115-.858.355a1.219 1.219 0 0 0-.331 1.099c.653-.135 1.302-.292 1.954-.437.698-.156 1.39-.336 2.09-.485.88-.187 1.773-.302 2.666-.403.72-.111 1.435-.244 2.156-.34 1.066-.144 2.133-.293 3.204-.4l.226-.023.022-.002a82.01 82.01 0 0 1 2.14-.166l.251-.017 1.458-.092.651-.04.141-.01c.449-.029.898-.057 1.346-.087v.002c.219-.014.437-.03.655-.047v-.001l.112-.008a48.085 48.085 0 0 1 2.307-.148h.016l.073-.002a98.771 98.771 0 0 1 3.406-.031h3.151c.435 0 .871-.005 1.307-.005.328 0 .654.003.98.013 1.475.048 2.944.153 4.416.244 2.464-.05 4.928-.084 7.393-.122 1.471-.023 2.943-.021 4.415-.024.35.204.703.403 1.06.595.582.315 1.318.15 1.66-.435.03-.051.051-.106.073-.161.918.002 1.836.014 2.75.098.144.013.289.03.432.048a14.788 14.788 0 0 1 3.233.841l-.29-.122.402.169c.303.128.558.345.824.533.255.18.644.203.936.123.303-.084.566-.287.725-.558.164-.28.208-.622.122-.936" fill="#fff"/></svg>