<svg xmlns="http://www.w3.org/2000/svg" width="308.405" height="302.362" viewBox="0 0 81.599 80"><path d="M78.239 21.64C70.507 4.746 46.252-3.304 25.49 3.443 14.642 6.968 4.786 14.759 1.856 25.759-.859 35.954 2.981 47.28 13.96 55.115c-.24 4.3-1.067 10.816-4.397 20.246-.652 1.848.751 3.698 2.614 3.698.59 0 1.18-.19 1.679-.57 6.936-5.283 14.67-10.085 21.311-15.565 6.789.747 14.044.167 20.923-2.068 19.635-6.381 29.268-23.663 22.15-39.216" fill="#789934"/><path d="M40.81 59.174c-3.39 0-5.77-.345-7.204-.531-6.566 5.544-11.516 8.655-18.688 13.783a82.63 82.63 0 0 0 1.907-7.785c1.054-5.487 1.14-9.35 1.22-11.54l-1.085-.721C1.527 42.135.35 24.17 15.027 12.893 21.888 7.622 31.044 4.72 40.809 4.72c15.1 0 28.045 7.01 33.447 16.907 5.167 9.468 3.053 21.14-7.664 29.374-7.229 5.553-16.556 8.174-25.783 8.174m38.41-38.007C71.289 3.84 46.41-4.416 25.119 2.504 13.99 6.12 3.882 14.11.877 25.392-1.907 35.849 2.032 47.465 13.29 55.5c-.247 4.41-1.095 11.093-4.51 20.765-.67 1.896.77 3.794 2.68 3.793.606 0 1.21-.195 1.723-.585C20.298 74.056 28.23 69.13 35.042 63.51c6.963.767 14.404.172 21.459-2.12 20.139-6.545 30.018-24.27 22.718-40.223" fill="#566d24"/><path d="M20.248 24.171a76.67 76.67 0 0 1 1.545 2.225c.105.157.212.314.318.47.318.47.67.904 1.045 1.33.367.418.776.786 1.222 1.12.552.412 1.14.787 1.75 1.106.597.313 1.238.52 1.871.743.473.165.952.334 1.436.465 1.169.317 2.332.613 3.544.715 1.77.15 3.547.174 5.323.21.647.058 1.29.124 1.933.223.818.127 1.636.258 2.451.408.825.151 1.651.3 2.466.5.808.199 1.626.38 2.423.622.414.126.828.25 1.238.383.74.275 1.446.634 2.114 1.055a13.07 13.07 0 0 1 2.232 2.01l.65.736.867 1.087c.616.772 1.165 1.595 1.74 2.396.297.415.695.713 1.202.817.492.102 1.01.003 1.43-.272.134-.09.256-.196.362-.316a.782.782 0 0 1 .41-.735c.16-.526.106-1.114-.228-1.581-.553-.773-1.08-1.57-1.672-2.312l-.968-1.213c-.357-.447-.757-.866-1.136-1.295a15.031 15.031 0 0 0-1.945-1.86 13.11 13.11 0 0 0-3.178-1.851c-.744-.3-1.523-.52-2.29-.754-.802-.244-1.623-.428-2.436-.628-1.614-.397-3.266-.656-4.907-.91a35.483 35.483 0 0 0-2.388-.267c-.931-.08-1.866-.045-2.799-.083a150.94 150.94 0 0 1-2.259-.106c-1.468-.149-2.887-.532-4.292-.979l-.442-.155a9.08 9.08 0 0 1-1.818-.892 8.392 8.392 0 0 1-1.219-1.047c-.448-.56-.83-1.172-1.234-1.766a73.427 73.427 0 0 0-1.185-1.686c-.3-.415-.693-.712-1.203-.817a1.91 1.91 0 0 0-1.428.272c-.837.55-1.151 1.792-.545 2.632" fill="#fff"/><path d="M12.98 24.158a.982.982 0 0 0-.05.12l.082-.035c.17-.07.339-.139.514-.194.172-.056.355-.085.532-.122.375-.079.753-.142 1.13-.204a7.16 7.16 0 0 1 1.13-.118c.228 0 .46.03.686.066.24.039.478.1.702.198.186.082.367.178.54.287.113-.026.228-.05.343-.073.395-.067.79-.116 1.191-.137a9.94 9.94 0 0 1 1.17.025l.321.033.261.02a1.03 1.03 0 0 0 .952-.817 1.031 1.031 0 0 0-.147-.772c-.136-.207-.394-.415-.65-.441-.669-.067-1.342-.118-2.014-.098-.716.022-1.434.165-2.13.32-1.378.307-2.657.894-3.96 1.422a1.44 1.44 0 0 0-.255.13.975.975 0 0 0-.349.39" fill="#fff"/><path d="m23.5 15.069-.001.002v.003l-.03.084.024-.069a3.414 3.414 0 0 0-.025.071l-.008.021.003-.005-.013.036.006-.017c-.382 1.107-.764 2.214-1.135 3.325-.192.576-.386 1.15-.536 1.739a8.759 8.759 0 0 0-.271 1.916c-.008.264.155.548.348.717.2.176.465.267.73.254a1.03 1.03 0 0 0 .718-.348c.188-.213.246-.455.254-.73 0-.035.002-.07.003-.103a11.413 11.413 0 0 1 .223-1.28 5.171 5.171 0 0 1-.12-.275 6.905 6.905 0 0 1-.239-.733 4.818 4.818 0 0 1-.185-1.127c-.012-.349-.056-.698-.055-1.047.002-.791.154-1.563.303-2.337a7.31 7.31 0 0 1 .05-.249.981.981 0 0 0-.044.152m-.008.02.007-.019-.007.019" fill="#fff"/><path d="m23.456 15.194.005-.013a.15.15 0 0 0-.005.013m33.755 25.299c-.067.282-.137.564-.2.847a6.502 6.502 0 0 0-.148 1.098c-.018.352.03.712.093 1.058.073.402.171.789.302 1.176.223.662.502 1.312.786 1.95.318.715.67 1.413 1 2.123l.118.248a1.026 1.026 0 0 0 1.087.437 12.901 12.901 0 0 1-.67-1.36 8.836 8.836 0 0 1-.327-.962c-.091-.326-.14-.66-.214-.99a24.203 24.203 0 0 1-.227-1.192 2.783 2.783 0 0 1 0-1.044c.042-.204.106-.405.181-.6a4.487 4.487 0 0 1-.015-.067 5.002 5.002 0 0 1-.062-.87c.064-.486.194-.962.306-1.436.13-.545-.262-1.102-.797-1.213a1 1 0 0 0-.759.145 1.077 1.077 0 0 0-.454.652" fill="#fff"/><path d="M57.868 39.837a1.03 1.03 0 0 0-.254.73c.028.54.523 1.027 1.079.972.377-.038.763-.094 1.143-.095l.027.005a.715.715 0 0 1 .07-.025c.38-.112.76-.223 1.14-.327.296-.081.607-.17.916-.165.287.005.55.11.799.245a9.24 9.24 0 0 0-1.41-1.221 7.743 7.743 0 0 0-.435-.28c-.18-.106-.386-.165-.585-.225a2.132 2.132 0 0 0-.496-.055 3.144 3.144 0 0 0-.404.01c-.29.027-.582.054-.873.083a1.14 1.14 0 0 0-.518.174.993.993 0 0 0-.2.174M27.802 23.336c-.518.733-1.023 1.464-1.474 2.24-.276.476-.526.968-.777 1.458-.3.583-.59 1.17-.88 1.76-.31.636-.6 1.285-.896 1.929-.19.413-.04.914.378 1.12.399.198.93.037 1.12-.377a86.62 86.62 0 0 1 1.612-3.368c.265-.518.535-1.032.807-1.546.234-.443.508-.867.785-1.286.192-.277.388-.55.582-.825.132-.186.22-.361.207-.596a.84.84 0 0 0-.88-.792.905.905 0 0 0-.431.14.566.566 0 0 0-.153.143m.773 1.782-.03.046.03-.046m2.011-.781c-.316.502-.64.998-.916 1.524-.178.34-.354.68-.527 1.021a49.546 49.546 0 0 0-.93 1.92c-.13.284-.258.564-.367.856-.148.395-.314.788-.435 1.191l-.2.669c-.043.145-.097.292-.13.44-.1.435-.202.87-.291 1.307a.844.844 0 0 0 .649.988.844.844 0 0 0 .988-.65c.09-.44.193-.876.293-1.313.044-.194.115-.385.172-.576l.147-.492.233-.626c.072-.195.139-.391.225-.58.233-.512.463-1.023.712-1.526.221-.445.44-.894.67-1.335.118-.225.235-.452.357-.675.263-.48.557-.936.848-1.4.11-.174.108-.44.047-.628a.84.84 0 0 0-1.053-.539l-.202.097a.83.83 0 0 0-.29.327m2.942 1.433a17.05 17.05 0 0 0-.634 1.322c-.143.346-.273.7-.39 1.055a86.413 86.413 0 0 0-.622 2.003c-.093.31-.156.633-.233.948-.067.279-.122.551-.17.835-.052.314-.115.627-.147.944-.05.505-.1 1.01-.138 1.516-.015.21.133.453.284.584a.84.84 0 0 0 .596.207.841.841 0 0 0 .584-.283l.121-.18a.843.843 0 0 0 .086-.416l.01-.141c.037-.446.076-.893.149-1.333l.151-.907c.032-.188.084-.372.129-.556l.196-.81c.055-.224.132-.446.199-.668.131-.44.272-.877.414-1.314.09-.248.178-.497.28-.74.187-.454.409-.887.634-1.323a.844.844 0 0 0-.378-1.121.847.847 0 0 0-1.12.377m3.541-.145c-.175.35-.352.698-.513 1.056-.075.167-.145.337-.218.506-.173.405-.3.834-.424 1.257a12.123 12.123 0 0 0-.458 4.163c.035.558.125 1.116.208 1.669.035.23.102.425.283.585.163.143.38.217.596.206a.844.844 0 0 0 .585-.283c.132-.15.237-.391.207-.596a25.019 25.019 0 0 1-.209-1.669 10.5 10.5 0 0 1-.005-1.475c.062-.658.179-1.306.339-1.948.059-.236.136-.47.206-.704.085-.23.17-.459.266-.684.194-.455.414-.897.637-1.34a.845.845 0 0 0-.378-1.12.841.841 0 0 0-1.121.377m2.979 2.318c-.167.437-.342.87-.502 1.31a9.275 9.275 0 0 0-.397 1.444 8.304 8.304 0 0 0-.12 1.197c-.017.403.002.809.053 1.209.051.401.142.803.272 1.187.119.36.293.706.454 1.049l.097.202a.835.835 0 0 0 1.448-.088c.086-.173.133-.444.047-.629a23.32 23.32 0 0 1-.364-.813 4.63 4.63 0 0 1-.262-.867 7.367 7.367 0 0 1-.064-1.54c.037-.373.102-.74.192-1.106.046-.189.105-.374.163-.56.155-.419.32-.834.481-1.251.081-.211.118-.407.047-.63a.843.843 0 0 0-.425-.492.843.843 0 0 0-.84.057.714.714 0 0 0-.28.321m5.252-.45c-.345.673-.695 1.342-.942 2.06-.358 1.038-.708 2.08-.834 3.18-.067.588-.142 1.175-.18 1.766-.019.292-.052.586-.055.877-.005.36-.01.72-.008 1.08.003.456.44.815.879.792a.844.844 0 0 0 .585-.284.869.869 0 0 0 .207-.596c-.002-.212 0-.423.002-.635.002-.16-.005-.324.005-.485l.062-.936.13-1.144c.094-.818.295-1.614.542-2.398l-.07.202c.123-.357.243-.715.383-1.067.071-.174.142-.347.218-.518.173-.393.379-.769.575-1.15a.844.844 0 0 0-.378-1.122.837.837 0 0 0-.83.056.852.852 0 0 0-.29.322m4.865-.296c-.213.264-.432.522-.632.797-.153.21-.283.436-.414.661a19.68 19.68 0 0 0-.405.743c-.1.192-.192.384-.28.583l-.233.518c-.03.067-.064.133-.09.202-.228.64-.466 1.28-.672 1.928a15.538 15.538 0 0 0-.528 2.17c-.127.762-.157 1.542-.198 2.312-.012.213.13.45.283.585a.844.844 0 0 0 .596.207.842.842 0 0 0 .584-.283c.156-.178.194-.37.207-.596.018-.344.04-.688.064-1.032.05-.566.14-1.124.261-1.68.122-.559.29-1.105.466-1.648l.333-.93c.1-.277.215-.54.335-.81.288-.643.603-1.279.983-1.874.19-.256.396-.5.597-.75.285-.354.277-.869-.077-1.18a.862.862 0 0 0-1.013-.075.731.731 0 0 0-.167.152m-1.724 8.866-.005.057.005-.057m5.14-5.744c-.29.35-.586.698-.856 1.064-.218.293-.424.591-.629.893a36.637 36.637 0 0 0-1.2 1.928c-.15.256-.282.521-.419.786-.136.266-.274.53-.4.8-.337.715-.671 1.43-1.01 2.144a.847.847 0 0 0 .378 1.121c.403.2.925.034 1.12-.378.446-.937.868-1.886 1.343-2.81l.366-.715c.122-.238.275-.463.41-.692.236-.399.486-.787.735-1.177.173-.254.347-.506.53-.753.282-.38.588-.742.889-1.107.29-.352.273-.873-.077-1.18a.858.858 0 0 0-1.014-.073.74.74 0 0 0-.166.149m3.858 3.252c-.307.234-.606.483-.924.7l-.387.264a108.6 108.6 0 0 0-.814.57c-.441.311-.865.65-1.266 1.013a5.602 5.602 0 0 0-.487.502c-.17.197-.31.422-.452.64-.259.395-.448.84-.65 1.266a.845.845 0 0 0 .377 1.12c.403.2.924.034 1.12-.377.208-.434.408-.872.663-1.281.218-.3.465-.562.738-.813.42-.35.865-.665 1.31-.98.16-.112.319-.222.48-.33.415-.283.81-.592 1.21-.897.18-.139.312-.3.359-.53a.84.84 0 0 0-.12-.628.84.84 0 0 0-.53-.36.829.829 0 0 0-.627.12m1.543 2.478c-.128.133-.253.268-.385.397-.38.287-.774.557-1.139.863-.24.2-.492.392-.718.606l-.578.545c-.178.168-.338.355-.505.532-.147.156-.288.318-.43.48-.367.42-.717.85-1.062 1.29a.866.866 0 0 0-.207.594.843.843 0 0 0 .284.585c.328.288.898.282 1.18-.077.235-.298.474-.592.713-.887.195-.242.408-.469.612-.702.374-.428.786-.818 1.199-1.209.281-.233.563-.463.852-.688.125-.096.252-.192.379-.286.106-.078.211-.157.32-.232.28-.198.507-.462.743-.708.315-.329.254-.89-.077-1.18a.832.832 0 0 0-1.02-.057.92.92 0 0 0-.16.134" fill="#fff"/></svg>