<svg xmlns="http://www.w3.org/2000/svg" width="308.405" height="302.362" viewBox="0 0 81.599 80"><path d="M78.295 21.56C70.563 4.664 46.308-3.385 25.547 3.361 14.698 6.887 4.842 14.678 1.913 25.678-.803 35.874 3.037 47.2 14.016 55.034c-.241 4.3-1.068 10.816-4.397 20.246-.653 1.849.75 3.699 2.613 3.699.59 0 1.18-.19 1.68-.571 6.935-5.283 14.669-10.084 21.31-15.565 6.789.748 14.045.168 20.923-2.068 19.636-6.38 29.269-23.663 22.15-39.216" fill="#d1a273"/><path d="M40.866 59.094c-3.39 0-5.77-.345-7.204-.532-6.565 5.544-11.516 8.656-18.688 13.784a82.63 82.63 0 0 0 1.907-7.785c1.054-5.487 1.14-9.35 1.22-11.54l-1.085-.721C1.583 42.055.406 24.09 15.083 12.813c6.861-5.272 16.018-8.175 25.783-8.175 15.1 0 28.045 7.01 33.447 16.908 5.167 9.467 3.053 21.139-7.665 29.373-7.228 5.554-16.556 8.175-25.782 8.175m38.41-38.007C71.344 3.76 46.467-4.497 25.174 2.423 14.048 6.04 3.939 14.03.935 25.311c-2.786 10.458 1.153 22.074 12.412 30.11-.247 4.41-1.094 11.093-4.51 20.764-.669 1.896.77 3.794 2.681 3.794a2.83 2.83 0 0 0 1.722-.586C20.354 73.975 28.286 69.05 35.1 63.43c6.962.766 14.403.171 21.458-2.121 20.139-6.544 30.019-24.27 22.718-40.222" fill="#9b7753"/><path d="M58.049 29.534c-.01.325-.041.649-.075.972-.043.29-.09.58-.148.867-.072.359-.17.709-.303 1.049-.14.304-.308.59-.504.862-.322.387-.713.714-1.107 1.026a4.508 4.508 0 0 1-.71.43 4.715 4.715 0 0 1-.918.243c-.439.045-.884.028-1.325.025-.333-.003-.671-.003-1.004-.023a16.4 16.4 0 0 1-1.017-.086c-.306-.038-.611-.077-.917-.117-.8-.114-1.607-.237-2.393-.432-.414-.103-.826-.21-1.235-.33-.405-.12-.807-.248-1.212-.367a31.132 31.132 0 0 0-3.713-.842c-.484-.082-.973-.137-1.46-.198a83.408 83.408 0 0 0-1.256-.15c-.42-.046-.842-.059-1.263-.076-.417-.016-.837-.013-1.255-.019-.426-.006-.85-.03-1.275-.055a49.454 49.454 0 0 1-1.898-.15 13.64 13.64 0 0 1-.572-.087 26.074 26.074 0 0 1-.868-.176 7.22 7.22 0 0 1-.697-.197c-.12-.04-.24-.074-.357-.12l-.304-.122-.323-.157c-.105-.051-.204-.112-.305-.171a8.25 8.25 0 0 1-.715-.463 3.31 3.31 0 0 1-.423-.424 4.958 4.958 0 0 1-.505-.849 3.4 3.4 0 0 1-.175-.634 6.772 6.772 0 0 1-.022-.825c.006-.245.012-.49.024-.735.02-.402.061-.8.112-1.2a5.92 5.92 0 0 1 .255-1.01l.145-.402c.126-.281.255-.56.413-.826.101-.17.194-.35.306-.513l.325-.47.282-.352c.118-.148.252-.285.379-.426.246-.275.515-.53.782-.785.253-.243.507-.486.77-.718.142-.125.279-.258.428-.374l.367-.287c.252-.18.502-.362.764-.528.31-.194.623-.38.94-.562.553-.32 1.134-.591 1.714-.861.235-.097.47-.192.709-.282.287-.108.577-.224.872-.31.658-.193 1.318-.384 1.997-.49.53-.058 1.062-.046 1.594-.032.366.01.729.038 1.093.073.137.02.273.042.41.07.192.041.39.077.578.135.42.128.84.258 1.265.369a.829.829 0 0 0 .514-.033l.983.277c.505.142.994.34 1.478.54l-.086-.037c.362.152.725.3 1.089.447.367.169.724.35 1.072.555.336.197.662.42.982.642.689.48 1.405.914 2.08 1.414.16.119.317.241.475.363.206.16.412.319.62.477.303.245.596.498.883.763l.861.79c.56.51 1.066 1.07 1.55 1.65.3.406.589.812.8 1.27a8.195 8.195 0 0 1 .425 1.532c.05.484.019.977.004 1.462m1.6.45.005-.116c.633-.028 1.268-.03 1.902-.038a.821.821 0 0 0 .813-.813.82.82 0 0 0-.803-.812h-.01c-.626.007-1.251.01-1.877.037a7.736 7.736 0 0 0-.125-.91 4.53 4.53 0 0 0-.137-.54 9.576 9.576 0 0 0-.464-1.22c-.008-.017-.019-.032-.027-.049.17-.076.339-.152.507-.23.667-.31 1.33-.63 1.992-.951.182-.089.32-.296.373-.486a.817.817 0 0 0-.082-.626.82.82 0 0 0-.689-.401.964.964 0 0 0-.423.11c-.652.316-1.303.631-1.96.937-.212.098-.425.193-.638.29-.156-.193-.317-.38-.481-.565-.264-.296-.533-.59-.822-.863-.278-.264-.562-.521-.845-.78.25-.218.5-.434.752-.649.437-.372.893-.722 1.343-1.079.159-.126.238-.38.238-.574a.816.816 0 0 0-.813-.813l-.216.03a.816.816 0 0 0-.358.208c-.45.357-.905.707-1.342 1.08-.282.239-.562.479-.84.723-.145-.114-.29-.23-.437-.341a49.922 49.922 0 0 0-1.01-.774 18.59 18.59 0 0 0-.867-.601c.517-.508 1.01-1.04 1.505-1.569a.83.83 0 0 0 .238-.574.814.814 0 0 0-.238-.574.828.828 0 0 0-.583-.236.768.768 0 0 0-.566.236c-.57.607-1.138 1.218-1.741 1.793a16.67 16.67 0 0 0-.856-.547 10.21 10.21 0 0 0-1.2-.586c.135-.201.27-.402.4-.606.292-.45.542-.924.805-1.391a.822.822 0 0 0-.292-1.112.798.798 0 0 0-.405-.108.808.808 0 0 0-.706.4c-.257.457-.501.921-.786 1.362a41.54 41.54 0 0 1-.543.825l-.094-.04c-.137-.056-.28-.1-.42-.149-.136-.049-.273-.108-.412-.146-.369-.104-.737-.208-1.105-.31-.164-.047-.33-.085-.496-.127.212-.627.437-1.25.66-1.872.07-.198.021-.45-.082-.627a.818.818 0 0 0-.7-.401.817.817 0 0 0-.411.11c-.193.113-.3.28-.374.485-.23.645-.464 1.288-.682 1.936a.856.856 0 0 0-.326.01 7.24 7.24 0 0 0-.787-.123 17.685 17.685 0 0 0-1.91-.089h-.013c-.161 0-.32.006-.481.015-.084.004-.166.015-.25.024l-.067-2.408a.822.822 0 0 0-.813-.812c-.433 0-.824.37-.812.812l.076 2.712c-.118.03-.237.058-.355.092a16.33 16.33 0 0 0-1.184.383c-.45.17-.906.336-1.342.54l-.362.168c-.129-.474-.207-.962-.305-1.441-.041-.2-.202-.385-.373-.486a.816.816 0 0 0-1.112.292c-.116.198-.127.406-.082.626.075.363.137.728.218 1.09.052.23.117.454.192.676a9.937 9.937 0 0 0-.44.257c-.185.116-.38.224-.558.35l-.575.409c-.226.16-.441.342-.66.512-.16.126-.31.268-.464.403-.31.273-.605.56-.903.845-.085.081-.166.166-.249.249-.014-.184-.089-.401-.232-.514l-.39-.302c-.244-.19-.483-.383-.714-.588a39.624 39.624 0 0 1-.637-.58.832.832 0 0 0-.574-.238.816.816 0 0 0-.575.238c-.305.305-.323.847 0 1.15.219.204.441.403.664.602.29.259.597.495.905.733a57.456 57.456 0 0 1 .337.26.797.797 0 0 0 .41.112h.004c-.247.291-.48.594-.696.907a9.585 9.585 0 0 0-1.22 2.486 5.46 5.46 0 0 0-.137.508.756.756 0 0 0-.445-.149h-.021l-1.315.039a.823.823 0 0 0-.813.812c0 .434.37.826.813.813l1.315-.039a.86.86 0 0 0 .267-.054l-.011.108c-.037.404-.043.811-.053 1.217-.009.37.012.735.061 1.102.024.175.066.347.116.517-.006.003-.011.003-.016.006-.52.226-1.038.45-1.548.697-.182.087-.321.296-.373.485a.818.818 0 0 0 .082.626.818.818 0 0 0 .485.374l.216.029a.813.813 0 0 0 .41-.111c.484-.233.974-.447 1.466-.661.106.146.215.289.33.426.218.26.494.467.768.664.039.028.082.051.121.079-.501 1.01-.965 2.037-1.436 3.06l-.083.195a.825.825 0 0 0 0 .432.82.82 0 0 0 .374.485.82.82 0 0 0 .626.083c.186-.052.402-.192.485-.374.479-1.037.948-2.08 1.457-3.103l.402.162c.178.072.365.124.547.184.18.059.368.108.553.148.315.068.63.13.948.185l-.208 1.218-.028.216a.81.81 0 0 0 1.222.701c.166-.097.34-.287.373-.485l.249-1.456c.055.005.11.012.166.016a43.347 43.347 0 0 0 2.98.136v.701c0 .443.37.812.812.812a.82.82 0 0 0 .812-.812v-.63c.162.013.324.027.485.044a78.88 78.88 0 0 1 1.699.212l-.409.892-.082.194a.817.817 0 0 0 .373.918c.188.11.417.14.627.082.185-.052.401-.191.485-.373l.425-.929.082-.194a.81.81 0 0 0 .016-.317c.338.068.675.137 1.01.22.411.1.826.198 1.233.318.179.052.357.107.535.161a.984.984 0 0 0-.028.076l-.425 1.586a.822.822 0 0 0 .567 1 .82.82 0 0 0 1-.568l.425-1.586c.005-.019.006-.038.01-.057.518.14 1.04.268 1.57.36l.511.089c-.003.03-.012.058-.012.088l-.116 1.277c-.018.204.098.434.238.574a.816.816 0 0 0 1.15 0l.126-.164a.814.814 0 0 0 .111-.41l.103-1.134c.213.028.426.058.639.084.597.075 1.195.1 1.795.11a.83.83 0 0 0-.023.166l-.232 2.05c-.023.202.1.437.238.575a.815.815 0 0 0 1.15 0l.126-.164a.814.814 0 0 0 .111-.41l.232-2.051a.533.533 0 0 0-.017-.184 5.114 5.114 0 0 0 1.935-.554c.064-.033.124-.072.185-.109.118.284.23.571.32.865.106.346.184.7.276 1.049a.82.82 0 0 0 .999.567.822.822 0 0 0 .567-1c-.085-.325-.162-.654-.255-.978a9.045 9.045 0 0 0-.364-.994l-.082-.194a.812.812 0 0 0-.246-.257c.021-.019.044-.036.064-.056l.254-.242a4.61 4.61 0 0 0 .584-.717c.18-.26.328-.538.456-.826.547.299 1.095.595 1.645.889.195.104.41.141.627.081a.818.818 0 0 0 .485-.373c.217-.37.099-.903-.291-1.111-.647-.346-1.293-.69-1.935-1.045-.018-.01-.039-.014-.058-.023.015-.077.032-.153.045-.23.078-.452.144-.91.171-1.367" fill="#fff"/><path d="M42.537 46.22a3.671 3.671 0 0 1-.057.146 5.28 5.28 0 0 1-.43.768 4.253 4.253 0 0 1-.643.622 6.371 6.371 0 0 1-.605.39 5.21 5.21 0 0 1-.458.215c-.178.072-.357.14-.54.196-.21.065-.423.108-.64.142-.604.067-1.218.037-1.825.008-.385-.019-.767-.06-1.15-.104a13.367 13.367 0 0 1-1.386-.27 9.003 9.003 0 0 1-1.312-.456c-.315-.138-.634-.274-.936-.44-.437-.24-.867-.49-1.268-.786a5.475 5.475 0 0 1-.794-.813l-.442-.589c-.085-.113-.163-.231-.243-.347a5.062 5.062 0 0 1-.432-.723 3.925 3.925 0 0 1-.173-.672c-.04-.406-.02-.822-.012-1.23.006-.31.027-.618.05-.927.01-.061.018-.122.026-.183a3.66 3.66 0 0 1 .21-.807c.13-.28.289-.538.472-.786.329-.41.7-.794 1.108-1.126a4.35 4.35 0 0 1 .724-.426c.154-.06.31-.115.466-.171.131-.047.27-.079.405-.116.261-.074.532-.118.8-.165.067-.009.134-.017.202-.024a.816.816 0 0 0 .21.363.83.83 0 0 0 .574.238c.707.024 1.418.025 2.122.106a7 7 0 0 1 .868.213 8.6 8.6 0 0 1 .696.232c.531.24 1.019.556 1.495.89a10.565 10.565 0 0 1 .87.774c.16.154.325.307.472.474.123.14.242.281.358.426.243.347.487.695.695 1.065.106.188.214.376.315.567.102.192.198.384.29.58.081.21.147.425.188.647.022.27.007.538-.004.807a6.1 6.1 0 0 1-.037.446c-.048.29-.128.57-.229.846m3.22-2.817-.194-.082a.842.842 0 0 0-.432 0l-.813.14a4.119 4.119 0 0 0-.16-.49c-.162-.406-.367-.79-.58-1.172l1.028-.795.127-.165a.813.813 0 0 0-.701-1.222l-.216.029a.814.814 0 0 0-.359.209l-.746.578a8.879 8.879 0 0 0-.783-.934c-.085-.087-.174-.17-.262-.255a.905.905 0 0 0 .398-.339l.735-1.044c.12-.171.136-.431.082-.627a.819.819 0 0 0-.785-.595.816.816 0 0 0-.214.028c-.217.06-.36.195-.486.373l-.735 1.045a.604.604 0 0 0-.085.206c-.045-.035-.088-.072-.134-.104-.196-.138-.392-.27-.594-.398a9.721 9.721 0 0 0-.42-.253c-.093-.053-.19-.099-.286-.145a.79.79 0 0 0 .093-.366.82.82 0 0 0-.812-.812.82.82 0 0 0-.788.623 8.06 8.06 0 0 0-.427-.11 7.263 7.263 0 0 0-1.022-.132l-.024-.002a.812.812 0 0 0-.067-.186.794.794 0 0 0 .084-.348.82.82 0 0 0-.812-.813.822.822 0 0 0-.795.646 5.904 5.904 0 0 0-1.032.041c-.48.063-.959.134-1.426.266a9.348 9.348 0 0 0-.64.208l-.048.02-.083-.832-.029-.216a.816.816 0 0 0-.783-.597.816.816 0 0 0-.575.238c-.139.14-.258.371-.237.575l.154 1.547.023.169-.018.013c-.36.292-.676.635-.98.983-.17.195-.326.404-.473.616-.05.072-.088.149-.132.222a275.04 275.04 0 0 1-1.337-.654.946.946 0 0 0-.421-.11.818.818 0 0 0-.69.401.818.818 0 0 0-.082.626c.052.191.19.396.373.486.525.259 1.05.517 1.577.772l-.008.035c-.021.12-.034.244-.05.365a12.08 12.08 0 0 0-.092 1.422c-.004.212-.004.424-.004.636v.014h-1.013a.82.82 0 0 0-.812.812c0 .444.37.813.812.813h1.33c.032.079.06.16.096.237.16.349.39.661.608.975.102.147.211.29.32.433l.175.23-.015.006a6.27 6.27 0 0 0-.686.321c-.39.215-.744.49-1.116.733a.838.838 0 0 0-.373.485.815.815 0 0 0 .082.627c.215.368.74.533 1.111.291.256-.166.504-.345.758-.513.235-.155.479-.292.734-.408a2.02 2.02 0 0 1 .334-.104l.108-.015a.85.85 0 0 0 .27-.141c.208.162.426.313.648.451.192.12.382.238.58.347.046.025.093.047.138.071-.012.018-.028.032-.04.051-.431.59-.854 1.184-1.276 1.78-.12.17-.135.431-.082.626.056.203.192.38.374.485a.82.82 0 0 0 .626.083l.194-.083a.812.812 0 0 0 .291-.291c.422-.596.845-1.191 1.277-1.78a.56.56 0 0 0 .083-.196c.087.037.174.073.261.105.193.07.384.147.58.205.214.062.427.124.643.177.298.072.599.125.9.174a.792.792 0 0 0-.112.402.82.82 0 0 0 .812.812.82.82 0 0 0 .812-.812.781.781 0 0 0-.035-.22c.087.005.174.015.26.02.596.028 1.2.067 1.795.015a7.56 7.56 0 0 0 .47-.056c.005.037.005.073.015.109l.155.967c.031.197.208.389.373.485.188.11.417.14.626.082a.817.817 0 0 0 .486-.373l.081-.194a.817.817 0 0 0 0-.432l-.154-.967a.508.508 0 0 0-.045-.136c.31-.134.611-.27.899-.451a7.75 7.75 0 0 0 .717-.535 4.36 4.36 0 0 0 .476-.456c.028.02.055.043.086.058l1.16.58c.201.1.406.143.627.082a.818.818 0 0 0 .485-.373.818.818 0 0 0 .082-.626c-.053-.192-.19-.394-.373-.486l-1.16-.58c-.022-.01-.043-.015-.064-.025l.099-.233c.19-.47.304-.96.345-1.467.007-.076.01-.153.015-.229.01-.002.02-.001.03-.004l1.121-.193c.198-.034.388-.206.486-.373a.818.818 0 0 0 .081-.627.817.817 0 0 0-.373-.485M55.885 28.07c-.007.12-.017.239-.03.357a2.591 2.591 0 0 1-.126.473c-.14.304-.325.588-.523.859-.13.16-.272.311-.43.444a2.174 2.174 0 0 1-.3.177 1.965 1.965 0 0 1-.322.087c-.303.024-.61.003-.913-.009a6.57 6.57 0 0 1-.565-.053l-.32-.065c-.115-.023-.227-.06-.34-.089-.2-.052-.394-.126-.587-.199a8.176 8.176 0 0 1-.559-.272 6.584 6.584 0 0 1-.753-.467 4.105 4.105 0 0 1-.593-.578 2.858 2.858 0 0 1-.247-.42 1.627 1.627 0 0 1-.068-.25 2.807 2.807 0 0 1 .017-.53l.023-.14c.022-.133.064-.263.113-.389.104-.217.241-.41.385-.602.156-.193.316-.38.506-.54a2.38 2.38 0 0 1 .363-.216c.112-.04.227-.07.344-.09a6.5 6.5 0 0 1 .777-.01c.103.002.205.008.307.015.015.12.069.231.154.317a.568.568 0 0 0 .383.159c.42.031.842.043 1.26.093.236.033.47.072.695.15.061.03.12.065.177.104.167.138.327.284.49.426.185.16.39.305.554.488.034.05.066.101.094.155.015.046.028.092.038.14a3.44 3.44 0 0 1-.004.476m.563-1.616c-.078-.079-.166-.147-.25-.218-.151-.124-.296-.255-.444-.381l-.211-.18a5.408 5.408 0 0 0-.232-.188 1.916 1.916 0 0 0-.477-.249c-.128-.05-.267-.076-.401-.103-.139-.026-.279-.045-.418-.064a8.45 8.45 0 0 0-.35-.04.522.522 0 0 0-.36-.328 15.482 15.482 0 0 0-.728-.161 5.248 5.248 0 0 0-.72-.075 8.58 8.58 0 0 0-.595-.007c-.22.006-.436.023-.652.063a2.323 2.323 0 0 0-.861.373c-.359.242-.643.564-.899.907-.074.099-.147.197-.218.298a2.818 2.818 0 0 0-.48 1.346 8.239 8.239 0 0 0-.031.323 2.39 2.39 0 0 0 .06.67c.032.147.099.29.162.426.07.15.156.29.252.426.169.235.365.448.581.64.207.182.429.355.665.498.19.114.379.228.573.333.18.098.368.18.555.262.234.103.476.182.72.258.426.132.873.207 1.318.24.205.016.411.028.618.032.143.002.286.005.43.001.163-.005.327-.03.486-.064.169-.034.33-.108.485-.178.263-.119.496-.312.7-.514a4.34 4.34 0 0 0 .545-.678c.134-.202.26-.404.368-.621.122-.247.212-.505.26-.776.03-.182.046-.366.063-.55.03-.338.036-.693-.068-1.02a1.79 1.79 0 0 0-.446-.701" fill="#fff"/><path d="M40.249 43.476c-.011.143-.025.285-.041.428a4.93 4.93 0 0 1-.204.845c-.042.09-.09.174-.145.255-.052.06-.107.115-.167.167a2.105 2.105 0 0 1-.267.158 2.122 2.122 0 0 1-.331.087 2.676 2.676 0 0 1-.502-.011 3.226 3.226 0 0 1-.635-.16 2.226 2.226 0 0 1-.322-.189 3 3 0 0 1-.357-.35 1.882 1.882 0 0 1-.147-.249 1.943 1.943 0 0 1-.073-.274 3.88 3.88 0 0 1 .027-.806c.03-.195.077-.383.145-.567.067-.136.146-.264.235-.387.107-.133.223-.26.347-.378.112-.014.224-.028.337-.04.254-.028.508-.029.762-.004.19.032.375.08.555.15.163.076.32.163.468.267.076.065.147.134.213.21.03.045.06.091.085.14.012.038.022.076.031.115.015.197 0 .397-.014.593m.58-1.707a2.679 2.679 0 0 0-.681-.488 3.227 3.227 0 0 0-.83-.304 3.537 3.537 0 0 0-.674-.077.564.564 0 0 0-.504-.318.48.48 0 0 0-.262.076 8.52 8.52 0 0 0-.52.36 6.955 6.955 0 0 1-.085.01.544.544 0 0 0-.386.411 7.393 7.393 0 0 0-.167.192c-.1.118-.193.243-.28.372a2.873 2.873 0 0 0-.248.5c-.12.288-.16.606-.195.914-.016.133-.023.267-.03.4-.015.288.014.584.096.86.093.32.276.593.49.843.2.233.455.433.717.59.144.086.305.146.462.205.14.052.289.085.436.113.3.058.61.093.917.072a2.42 2.42 0 0 0 .952-.268 2.225 2.225 0 0 0 .627-.508c.097-.118.18-.24.25-.374.084-.16.146-.332.198-.504.093-.31.144-.635.18-.956.025-.207.041-.413.051-.62a2.75 2.75 0 0 0-.038-.69c-.062-.31-.262-.587-.476-.811m-9.215.498a.644.644 0 0 0-.638.638c0 .348.29.639.638.639a.645.645 0 0 0 .638-.639.644.644 0 0 0-.638-.638m.155-2.592a.644.644 0 0 0-.638.638c0 .348.29.639.638.639a.645.645 0 0 0 .638-.639.644.644 0 0 0-.638-.638m2.862 1.199c.348 0 .639-.29.639-.638a.644.644 0 0 0-.639-.638.644.644 0 0 0-.638.638c0 .348.29.638.638.638m.252 3.308a.644.644 0 0 0-.638-.638.644.644 0 0 0-.639.638c0 .348.29.638.639.638.347 0 .638-.29.638-.638m.407 2.185a.644.644 0 0 0-.64.639c0 .348.291.638.64.638.347 0 .637-.29.637-.638a.644.644 0 0 0-.638-.639m-3.52-19.226a.996.996 0 0 0-.987.986c0 .538.45.987.987.987a.996.996 0 0 0 .986-.987.996.996 0 0 0-.986-.986m.116-4.061a.996.996 0 0 0-.987.985c0 .538.45.987.987.987a.996.996 0 0 0 .986-.987.996.996 0 0 0-.986-.986m3.095-3.056a.996.996 0 0 0-.987.986c0 .538.449.987.987.987a.996.996 0 0 0 .986-.987.996.996 0 0 0-.986-.986m7.524.754a.996.996 0 0 0-.987-.986.996.996 0 0 0-.986.986c0 .538.449.987.986.987a.996.996 0 0 0 .987-.987m-5.049 5.01a.996.996 0 0 0-.986.986c0 .538.449.987.986.987a.996.996 0 0 0 .987-.987.996.996 0 0 0-.987-.986m2.825 4.178a.996.996 0 0 0-.987.986c0 .538.449.987.986.987a.996.996 0 0 0 .987-.987.996.996 0 0 0-.987-.986m5.997-1.122a.996.996 0 0 0-.987.987c0 .537.449.986.987.986a.996.996 0 0 0 .986-.986.996.996 0 0 0-.986-.987m-3.173-4.255a.996.996 0 0 0-.986.986c0 .538.449.987.986.987.538 0 .987-.45.987-.987a.996.996 0 0 0-.987-.986m3.482-3.946a.996.996 0 0 0-.986.986c0 .538.448.987.986.987s.986-.449.986-.987a.996.996 0 0 0-.986-.986m4.139 2.05a.996.996 0 0 0 .987-.986.996.996 0 0 0-.987-.987.996.996 0 0 0-.986.987c0 .538.449.986.986.986m.078 9.053a.996.996 0 0 0-.987.986c0 .538.45.987.987.987.537 0 .986-.45.986-.987a.996.996 0 0 0-.986-.986" fill="#fff"/></svg>