<svg xmlns="http://www.w3.org/2000/svg" width="308.405" height="302.362" viewBox="0 0 81.599 80"><path d="M78.221 21.58C70.49 4.686 46.234-3.363 25.473 3.383 14.624 6.908 4.768 14.7 1.838 25.7-.877 35.895 2.963 47.221 13.941 55.055c-.24 4.3-1.067 10.816-4.397 20.246C8.892 77.15 10.295 79 12.158 79c.59 0 1.18-.19 1.679-.571 6.936-5.283 14.67-10.084 21.312-15.565 6.788.748 14.043.168 20.922-2.068 19.635-6.38 29.268-23.663 22.15-39.216" fill="#12a0c2"/><path d="M40.792 59.115c-3.39 0-5.77-.345-7.204-.532-6.565 5.544-11.516 8.656-18.688 13.784a82.63 82.63 0 0 0 1.907-7.785c1.054-5.487 1.14-9.35 1.22-11.54l-1.085-.721C1.51 42.076.332 24.11 15.01 12.834c6.861-5.272 16.018-8.175 25.783-8.175 15.1 0 28.044 7.01 33.446 16.908 5.168 9.467 3.053 21.139-7.664 29.373-7.228 5.554-16.556 8.175-25.782 8.175M79.2 21.108C71.271 3.78 46.394-4.476 25.101 2.444 13.972 6.06 3.864 14.051.86 25.332c-2.785 10.458 1.154 22.074 12.413 30.11-.247 4.41-1.094 11.093-4.51 20.764-.669 1.896.77 3.794 2.681 3.794.605 0 1.21-.196 1.722-.586 7.114-5.418 15.046-10.343 21.858-15.963 6.963.766 14.404.171 21.459-2.121C76.622 54.785 86.502 37.06 79.2 21.108" fill="#0d7590"/><path d="m33.605 13.289.286.607c.037.077.078.152.116.229.098.197.198.394.298.59.112.218.22.437.334.654l.56 1.08c.468.918.915 1.847 1.397 2.756h-.011c.177.344.37.678.57 1.009l.014.025.108.176c.203.338.414.671.64.997l.322.487h-.002l.479.73.138.216c.157.245.313.492.457.745l.013.021.94-.035.006-.015c.216-.498.441-.992.671-1.484.05-.103.097-.207.15-.309h-.003c.088-.186.175-.374.265-.559l.014-.001c.083-.181.17-.36.258-.54.22-.44.447-.876.678-1.31.234-.428.474-.852.719-1.273h.003c.15-.268.307-.53.462-.795l.364-.616a60.43 60.43 0 0 1 2.254-3.442c-3.953-.047-7.9-.261-11.854-.22h-.775c.043.094.09.185.133.279a.057.057 0 0 0-.004-.002M25.38 23.986l-.005.005c.366-.004.733-.012 1.1-.018.28-.003.56-.005.84-.01l-.004-.003.163-.002c.521.11 1.132.112 1.816-.03-.02-.128-.029-.258-.043-.387a13.429 13.429 0 0 1-.028-2.14c.057-.748.164-1.495.28-2.232l-.007-.001c.233-1.345.563-2.68.86-3.996v.001l-.438.513.002.006a243.05 243.05 0 0 0-2.269 2.696c-.257.312-.509.629-.763.944l-.008.004a4.54 4.54 0 0 0-.979 1.232l-.722.913.025-.033c-.664.847-1.305 1.713-1.963 2.563l.12-.001c.674-.005 1.349-.015 2.024-.024m27.199 5.526c.185-.344.366-.689.547-1.035a204.94 204.94 0 0 0 2.38-4.511l-.223.022c-.468.042-.937.077-1.406.107v-.002l-.938.056c-.13-.002-.26.004-.39.021-.52.025-1.04.046-1.559.064a70.804 70.804 0 0 1-1.732 4.948c-1.442 3.374-2.916 6.736-4.388 10.1-1.167 2.559-2.32 5.119-3.364 7.706-.182.407-.346.83-.505 1.255v-.002l-.86 2.068.005.13c-.113.25-.23.494-.359.721a1.108 1.108 0 0 0-.008.02l-.339.814.002.002c-.081.195-.163.389-.242.584.044.143.085.287.125.431l.395-.735c.295-.55.596-1.098.895-1.646a231.146 231.146 0 0 1 2.393-4.296h-.005c3.172-5.616 6.461-11.164 9.557-16.82l.02-.002M45.712 15.76v.002l-.003.004c-.3.428-.568.878-.83 1.33a57.06 57.06 0 0 0-1.475 2.54c-.485.878-.93 1.777-1.362 2.683-.194.391-.385.783-.56 1.183-.004.007-.008.014-.01.021 2.141-.104 4.284-.191 6.426-.274l1.59-.062.107-.004-.004-.02-.023-.112c-.145-.69-.29-1.38-.43-2.07l-.055-.282h.001l-.04-.195-.17-.868c-.033-.173-.068-.346-.1-.52a205.737 205.737 0 0 1-.609-3.333c-.036-.202-.073-.404-.108-.607l-1.132-1.198-1.213 1.783Zm-15.098 3.348c-.009.059-.015.118-.024.176-.049.287-.095.575-.136.862a18.514 18.514 0 0 0-.172 1.972h-.002a9.544 9.544 0 0 0 0 .56l-.001.032.003-.003.007.187.003.087.017.215c.019.236.044.471.083.706 1.63-.062 3.26-.11 4.889-.157.931-.028 1.862-.054 2.794-.085a1.973 1.973 0 0 1-.023-.035c-.238-.37-.48-.739-.724-1.106l-.387-.593h-.002a29.743 29.743 0 0 1-.27-.417l-.058-.09a29.55 29.55 0 0 1-.496-.806c-.525-.902-.984-1.841-1.447-2.778h.003a25.238 25.238 0 0 0-.716-1.411c-.423-.8-.858-1.595-1.228-2.415a10.526 10.526 0 0 1-.385-.997h-.12l-.082.094-.166.193c-.148.558-.294 1.118-.436 1.678a32.693 32.693 0 0 0-.767 3.23 3.01 3.01 0 0 0-.157.901m18.884-2.088c.093.53.19 1.06.29 1.589l-.002-.001c.02.11.042.22.064.33l.128.636c.078.396.157.793.238 1.19l.106.517h-.003c.125.615.26 1.227.384 1.842l.004.02c.387-.013.774-.027 1.161-.043l.557-.026a71.9 71.9 0 0 0 2.798-.177 221.842 221.842 0 0 0-5.108-5.544 2.65 2.65 0 0 0-.687-.73l.07.397M39.24 30.085c.008-.222.012-.444.018-.666.014-.432.022-.864.037-1.295h-.003c.016-.662.032-1.324.054-1.985l.004-.12a1.227 1.227 0 0 1-.303-.413c-.096-.203-.163-.428-.26-.63a2.164 2.164 0 0 0-.116-.239c-.69.027-1.381.053-2.072.073-1.146.025-2.292.062-3.439.1l-.763.023c-.985.033-1.97.067-2.956.093.119.433.24.868.366 1.3.092.37.187.739.319 1.094l.016-.002c.052.16.106.32.16.48l-.01-.001.063.154c.245.704.518 1.398.84 2.073h.012c.765 1.827 1.545 3.648 2.27 5.491.64 1.69 1.243 3.394 1.823 5.106.234.905.456 1.824.865 2.594.838 2.554 1.655 5.115 2.517 7.66.455-1.545.597-3.219.36-4.825-.006-5.356.04-10.711.197-16.065m-4.842 11.389c-.782-2.514-1.737-4.961-2.733-7.394a202.328 202.328 0 0 0-2.633-6.527c-.111-.403-.275-.82-.397-1.239a5.24 5.24 0 0 1-.117-1.27 613.89 613.89 0 0 1-3.034.046l-.315.005c-.495.006-.99.01-1.486.014 3.995 9.104 9.258 17.545 13.975 26.271-1.113-3.504-2.268-7-3.486-10.47.085.184.161.371.226.564m12.587-17.093c-1.999.079-3.997.17-5.995.265-.03.055-.054.113-.082.169-.077.14-.143.285-.208.43a6.76 6.76 0 0 1-.234.47l-.001.002v.015c-.022.445-.035.89-.045 1.334h.004c-.018.706-.04 1.412-.059 2.118-.19 6.092-.24 12.185-.221 18.28.436-1.035.878-2.068 1.323-3.1-.04.113-.086.224-.125.337.669-1.536 1.328-3.077 1.988-4.618 1.487-3.391 2.986-6.779 4.434-10.186l.03-.001c.49-1.088.926-2.2 1.327-3.324h.002c.024-.066.045-.133.069-.199.085-.242.17-.483.252-.726.12-.363.24-.725.358-1.089l.012-.037.08-.249c-.97.035-1.939.072-2.909.11" fill="#fff"/></svg>