<svg xmlns="http://www.w3.org/2000/svg" width="308.405" height="302.362" viewBox="0 0 81.599 80"><path d="M78.271 21.659C70.54 4.765 46.284-3.285 25.523 3.462 14.674 6.987 4.818 14.778 1.889 25.778-.827 35.974 3.014 47.3 13.992 55.134c-.241 4.3-1.068 10.816-4.397 20.246-.653 1.849.75 3.699 2.613 3.699.59 0 1.18-.191 1.68-.571 6.935-5.283 14.669-10.084 21.31-15.565 6.789.748 14.045.168 20.923-2.068 19.636-6.38 29.269-23.663 22.15-39.216" fill="#1f79bf"/><path d="M40.842 59.194c-3.39 0-5.77-.345-7.204-.532-6.565 5.544-11.516 8.656-18.688 13.783a82.63 82.63 0 0 0 1.907-7.784c1.054-5.487 1.14-9.35 1.22-11.54l-1.085-.722C1.56 42.155.382 24.19 15.06 12.913c6.86-5.273 16.017-8.175 25.782-8.175 15.1 0 28.045 7.01 33.447 16.908 5.167 9.467 3.053 21.139-7.665 29.373-7.228 5.553-16.556 8.175-25.782 8.175m38.41-38.007C71.321 3.86 46.443-4.397 25.15 2.523 14.024 6.139 3.915 14.129.91 25.411c-2.786 10.458 1.153 22.074 12.412 30.11-.247 4.41-1.094 11.093-4.51 20.764-.669 1.896.77 3.794 2.681 3.794.605 0 1.21-.196 1.722-.586 7.115-5.418 15.047-10.343 21.86-15.963 6.962.766 14.403.171 21.458-2.121 20.139-6.545 30.019-24.27 22.718-40.222" fill="#16578c"/><path d="M58.329 35.164c.046.093.094.185.144.276-.182.347-.385.685-.574 1.028-.149.27-.293.541-.446.808l-.54.942c-.134.232-.288.45-.436.672-.143.216-.286.432-.43.646-.182.27-.377.536-.547.814a64.61 64.61 0 0 0-.979 1.65c-.29.508-.55 1.036-.822 1.554l-.083.155c-1.019.61-2.012 1.26-3.038 1.859-.97.567-1.934 1.15-2.899 1.727-.256.154-.51.31-.768.459-.272.156-.541.33-.822.471a156.273 156.273 0 0 1-2.115 1.039 385.08 385.08 0 0 1-4.239-.041c-.479-.007-.957-.01-1.436-.013-.152 0-.305-.003-.457-.004l-1.809-.003-.626-.002c-.325 0-.65.003-.975.02-.355.018-.711.026-1.065.058-.855.078-1.71.211-2.543.416-.48.117-.958.235-1.434.362l-1.17-.5c-.54-.233-1.085-.469-1.597-.76-.622-.352-1.197-.782-1.761-1.22l-.001-.01a11.097 11.097 0 0 0-.186-1.364c-.059-.298-.101-.605-.179-.899l-.243-.92c-.082-.311-.196-.616-.294-.921-.35-1.098-.712-2.19-1.09-3.278a259.861 259.861 0 0 1-1.2-3.532c-.107-.32-.204-.643-.298-.967l-.016-.05v-.003c-.213-.74-.41-1.485-.64-2.22-.195-.626-.39-1.254-.613-1.872l-.038-.103c.083-.28.165-.558.245-.838.332-1.164.619-2.334.916-3.507.166-.654.335-1.308.508-1.961.15-.567.364-1.12.573-1.667.129-.338.262-.674.397-1.01.117-.143.233-.289.346-.437l.625-.823c.18-.237.337-.496.505-.743.275-.405.535-.819.779-1.244.586-1.023 1.011-2.117 1.432-3.213.185-.486.345-.981.499-1.478a3.218 3.218 0 0 1 2.087.105c.062-.022.126-.042.19-.06l.858-.115c.626-.066 1.253-.133 1.882-.145.61-.011 1.22-.015 1.829-.017 1.151-.005 2.299.002 3.449-.08a57.165 57.165 0 0 1 3.654-.136c.772-.006 1.543-.012 2.314-.012 1.596 0 3.191.027 4.784.144.558.042 1.118.068 1.676.108a46.36 46.36 0 0 1 1.808.173c.553.061 1.112.116 1.657.23.285.06.898.35.96.387.27.156.558.331.751.572.184.228.362.459.537.693l.325.77a.789.789 0 0 1 .025.073c-.029.015-.057.03-.085.047-.412.24-.65.603-.804 1.044l-.26.758c-.146.427-.213.856-.272 1.304-.055.42-.067.844-.07 1.266 0 .31.05.612.093.92.055.41.249.803.42 1.172.105.23.242.45.374.664.095.155.203.299.312.445.074.1.135.206.19.315.176.46.34.921.472 1.395.16.575.297 1.152.415 1.737.231 1.154.444 2.314.77 3.446.188.655.375 1.31.559 1.966.045.163.092.325.136.488.096.343.246.67.404.99" fill="#fff"/><path d="M51.14 28.367c-.014.442-.053.881-.098 1.321-.139.94-.315 1.876-.511 2.806-.102.48-.198.964-.331 1.438-.175.628-.34 1.27-.576 1.879a7.281 7.281 0 0 1-.707 1.2c-.45.543-.989 1.002-1.524 1.456a24.74 24.74 0 0 1-.835.61 28.36 28.36 0 0 1-1.082.703c-.732.46-1.519.819-2.305 1.171-.692.282-1.393.518-2.132.639-.571.058-1.143.053-1.718.057-.386.002-.771-.012-1.157-.02a24.112 24.112 0 0 1-2.505-.185 11.872 11.872 0 0 1-1.054-.202 7.516 7.516 0 0 1-1.047-.344 10.994 10.994 0 0 1-2-1.17 19.625 19.625 0 0 1-1.328-1.118c-.442-.42-.82-.89-1.203-1.361-.51-.69-.95-1.42-1.304-2.202a5.845 5.845 0 0 1-.308-1.142c-.04-.435-.042-.87-.04-1.306.003-.272.003-.543.012-.816.01-.289.012-.58.034-.869l.073-.979c.053-.392.107-.782.181-1.17.057-.297.106-.595.174-.889.161-.691.368-1.376.633-2.035.308-.693.684-1.348 1.134-1.959a8.03 8.03 0 0 1 1.188-1.19c.65-.48 1.338-.886 2.076-1.215a7.495 7.495 0 0 1 1.553-.447c.395-.042.79-.055 1.187-.055.469 0 .938.019 1.407.033.492.015.987.053 1.477.112a12.12 12.12 0 0 1 2.704.744c.79.354 1.536.822 2.23 1.337.277.22.54.453.77.723.217.301.4.621.554.958.16.419.272.851.344 1.293.079.79.034 1.593.01 2.385a21.447 21.447 0 0 1-.147 1.746 8.498 8.498 0 0 1-.435 1.685 5.46 5.46 0 0 1-.544.91 7.65 7.65 0 0 1-1.046 1.045c-.345.252-.71.466-1.098.644a6.355 6.355 0 0 1-1.225.339c-.484.046-.968.025-1.454.014-.36-.01-.724-.038-1.082-.08a7.477 7.477 0 0 1-1.496-.39 4.756 4.756 0 0 1-.754-.444 4.932 4.932 0 0 1-.593-.59 4.005 4.005 0 0 1-.338-.568 3.601 3.601 0 0 1-.137-.472c-.025-.361.007-.72.047-1.078.058-.341.142-.674.263-.999a4.74 4.74 0 0 1 .36-.616c.108-.127.223-.246.348-.357.189-.13.384-.245.59-.345.119-.04.238-.07.36-.096.339-.025.674 0 1.013.034.213.036.42.085.624.156.13.066.253.14.373.223.256.218.492.458.73.696a1.09 1.09 0 0 0 1.526 0 1.055 1.055 0 0 0 .244-.39l.018-.063c.022-.073.035-.149.041-.224l.006-.059a1.09 1.09 0 0 0-.027-.268l-.018-.06a1.05 1.05 0 0 0-.087-.215 1.05 1.05 0 0 0-.177-.247c-.5-.5-1.01-1.023-1.663-1.315a4.297 4.297 0 0 0-.807-.28 5.964 5.964 0 0 0-.72-.106 7.227 7.227 0 0 0-.911-.052 4.654 4.654 0 0 0-.85.11c-.278.06-.542.186-.799.307-.207.098-.401.22-.588.352a4.079 4.079 0 0 0-.721.634 5.095 5.095 0 0 0-.889 1.461 5.767 5.767 0 0 0-.38 1.566c-.027.234-.055.466-.07.7a3.957 3.957 0 0 0 .231 1.613 4.812 4.812 0 0 0 1.034 1.652c.127.135.262.261.402.382l.088.075c.144.119.29.234.444.344.399.286.845.483 1.302.655l.015.005c.118.044.238.085.359.121.045.014.091.025.136.038.082.022.163.046.245.065.054.013.109.023.163.035.075.016.15.033.224.047l.171.029c.078.012.155.026.232.037.509.07 1.026.123 1.54.136l.67.016c.48.01.956-.043 1.428-.123.528-.088 1.03-.272 1.518-.483.485-.21.932-.473 1.35-.794a8.558 8.558 0 0 0 1.18-1.076 6.8 6.8 0 0 0 .977-1.376c.46-.884.692-1.875.803-2.86.041-.362.091-.723.114-1.087.023-.389.046-.777.057-1.166.011-.336.015-.671.017-1.007.077.044.16.078.248.103.095.039.198.054.299.078a17.564 17.564 0 0 0 1.733.297c.352.04.707.077 1.063.088.17.004.34.008.511.015-.004.214-.011.428-.018.642m2.096-1.783c-.121-.33-.318-.602-.635-.768-.273-.142-.585-.191-.889-.217-.358-.032-.718-.039-1.078-.048-.326-.01-.65-.043-.975-.08a24.629 24.629 0 0 1-.677-.111 12.361 12.361 0 0 1-.372-.074l-.117-.024a1.098 1.098 0 0 0-.987-.22 1.05 1.05 0 0 0-.384.197 7.02 7.02 0 0 0-.28-.94 6.575 6.575 0 0 0-.736-1.424 6.002 6.002 0 0 0-.547-.679c-.194-.208-.423-.387-.645-.566-.501-.401-1.036-.744-1.576-1.088A7.942 7.942 0 0 0 42.302 20a13.616 13.616 0 0 0-1.651-.616 12.003 12.003 0 0 0-2.619-.471 33.884 33.884 0 0 0-2.327-.105c-.217 0-.434.004-.65.013a8.857 8.857 0 0 0-1.689.225c-.585.14-1.143.37-1.69.615a10.9 10.9 0 0 0-2.695 1.75c-.36.315-.681.672-.975 1.048-.352.45-.672.916-.953 1.413-.537.953-.912 1.994-1.19 3.048-.227.858-.354 1.736-.474 2.613-.11.805-.138 1.615-.166 2.426-.013.359-.006.719-.008 1.078a9.66 9.66 0 0 0 .106 1.365c.081.605.29 1.166.532 1.722.407.93.96 1.807 1.6 2.593.324.396.64.79.994 1.16.474.496 1.01.92 1.546 1.345a11.97 11.97 0 0 0 2.158 1.392 11 11 0 0 0 1.506.603c.589.187 1.205.279 1.816.36.533.07 1.067.111 1.602.156.694.059 1.394.059 2.089.073h.029c.128.003.256.001.384 0 .223-.002.445-.006.667-.007 1.108-.007 2.189-.252 3.217-.65.537-.21 1.06-.451 1.587-.687.161-.072.318-.16.476-.24.137-.07.274-.138.408-.215.336-.192.668-.385.996-.59.328-.207.646-.425.965-.647a15.935 15.935 0 0 0 1.81-1.465c.227-.215.45-.431.658-.666a7.727 7.727 0 0 0 1.208-1.921c.016-.037.028-.074.043-.11.192-.47.337-.955.482-1.441.2-.671.36-1.35.504-2.034.321-1.518.619-3.049.692-4.6.017-.363.025-.726.03-1.09.005-.284.014-.59-.085-.86" fill="#1f79bf"/></svg>