<svg xmlns="http://www.w3.org/2000/svg" width="308.405" height="302.362" viewBox="0 0 81.599 80"><path d="M78.368 21.785C70.636 4.89 46.381-3.16 25.62 3.588 14.77 7.113 4.915 14.904 1.985 25.904-.73 36.099 3.11 47.426 14.088 55.26c-.24 4.3-1.067 10.816-4.397 20.246-.652 1.848.752 3.698 2.614 3.698.59 0 1.18-.19 1.68-.57 6.935-5.283 14.669-10.085 21.31-15.565 6.789.747 14.044.167 20.923-2.068 19.636-6.38 29.268-23.663 22.15-39.216" fill="#6759a3"/><path d="M40.939 59.32c-3.39 0-5.77-.345-7.204-.532-6.565 5.544-11.516 8.655-18.688 13.783a82.63 82.63 0 0 0 1.907-7.785c1.054-5.487 1.14-9.35 1.22-11.54l-1.085-.72C1.656 42.28.48 24.314 15.156 13.037c6.861-5.271 16.018-8.174 25.783-8.174 15.1 0 28.044 7.01 33.447 16.907 5.167 9.468 3.052 21.14-7.665 29.374-7.228 5.553-16.556 8.174-25.782 8.174m38.409-38.007C71.418 3.985 46.541-4.27 25.248 2.65 14.12 6.265 4.011 14.255 1.006 25.537-1.778 35.994 2.161 47.61 13.42 55.646c-.247 4.41-1.094 11.093-4.51 20.765-.669 1.896.77 3.794 2.681 3.793.605 0 1.21-.195 1.722-.585C20.427 74.2 28.36 69.276 35.171 63.655c6.963.767 14.404.172 21.459-2.12 20.139-6.545 30.019-24.27 22.718-40.223" fill="#4c4076"/><path d="M27.922 40.338c-.283-.117-.564-.24-.845-.363-.22-.085-.444-.155-.67-.231a10.154 10.154 0 0 1-1.03-.43c-.23-.106-.447-.239-.676-.348l-.109-.052c-.183.495-.37.988-.544 1.487-.272.77-.467 1.573-.705 2.355-.247.808-.487 1.617-.723 2.427-.232.802-.482 1.609-.67 2.422-.119.521-.167 1.06-.224 1.592a3.504 3.504 0 0 0 .868 3.494 3.504 3.504 0 0 0 1.92.978c.546-.17 1.097-.326 1.655-.463a74.24 74.24 0 0 1 1.06-.25c.02-.015.04-.032.06-.049a1.81 1.81 0 0 1-.283-.37 3.421 3.421 0 0 1-.283-.702 5.756 5.756 0 0 1-.137-.895c-.027-.34.007-.698.035-1.039.041-.5.129-.992.201-1.487.052-.348.094-.697.168-1.04.16-.745.364-1.478.527-2.222.083-.374.165-.747.296-1.107a18.72 18.72 0 0 1 .628-1.534c.163-.35.33-.7.515-1.04.145-.268.3-.53.454-.794a4.834 4.834 0 0 1-.718-.112c-.26-.063-.524-.124-.77-.227" fill="#fff"/><path d="M34.187 26.063a1.2 1.2 0 0 1 1.189-1.19 1.18 1.18 0 0 1 .842.356l.026.029a1.337 1.337 0 0 1 .084.101c.015.02.03.04.043.061l.027.044a1.376 1.376 0 0 1 .087.177 1.16 1.16 0 0 1 .066.247l.007.048a.969.969 0 0 1 .006.109l.002.018v.005a1.185 1.185 0 0 1-.058.353c-.002.01-.007.018-.01.027a1.191 1.191 0 0 1-.052.124l-.017.036a1.2 1.2 0 0 1-.079.13l-.024.031a1.297 1.297 0 0 1-.082.099l-.024.026a1.206 1.206 0 0 1-.112.1l-.035.026a1.145 1.145 0 0 1-.116.076l-.018.01a1.243 1.243 0 0 1-.563.146 1.203 1.203 0 0 1-1.19-1.19m26.907 21.331c-.047-.257-.084-.513-.175-.76l-.096-.27a31.486 31.486 0 0 1-.582-1.819c-.231-.79-.418-1.594-.653-2.385-.243-.82-.495-1.636-.72-2.46a312.61 312.61 0 0 0-.65-2.352 38.286 38.286 0 0 0-.793-2.432 21.391 21.391 0 0 1-.539-1.82 9.18 9.18 0 0 1-.253-.485c-.265-.553-.481-1.127-.719-1.69l.244.576c-.128-.302-.254-.606-.38-.91a8.22 8.22 0 0 0-.522-.985c-.384-.402-.834-.735-1.245-1.11a12.5 12.5 0 0 1-.705-.676c-.332-.35-.622-.74-.913-1.125-.376-.498-.704-1.035-1.059-1.547-.29-.42-.57-.845-.868-1.259a4.824 4.824 0 0 0-.362-.369c-.386-.25-.798-.463-1.191-.703-.23-.14-.46-.28-.69-.422a29.565 29.565 0 0 1-.738-.47l-.206-.136a.904.904 0 0 0-.024-.016l-.092-.061-.147-.099-.103-.07-.134-.094-.105-.076a8.455 8.455 0 0 1-.127-.094l-.105-.082a6.21 6.21 0 0 1-.12-.095c-.035-.029-.07-.058-.103-.088a3.778 3.778 0 0 1-.113-.1c-.034-.03-.067-.062-.1-.093a4.89 4.89 0 0 1-.199-.205c-.047-.052-.094-.104-.138-.16-.255-.314-.486-.609-.658-.969a11.416 11.416 0 0 1-.373-.893l-.135-.36v-.001l-.002-.004c-.114-.224-.246-.433-.373-.653l-.016-.028a8.316 8.316 0 0 1-.667-1.537c-.167-.505-.329-1.013-.512-1.512-.125-.05-.25-.1-.376-.159a2.334 2.334 0 0 1-.828-.647 3.728 3.728 0 0 0-1.34.107c-.075.021-.149.048-.222.073-.074-.026-.147-.052-.223-.073l-.928-.125c-.63.002-1.216.16-1.76.477-.624.465-1.272.911-1.828 1.457-.466.456-.831 1.019-1.205 1.553-.238.341-.468.69-.694 1.04a39.33 39.33 0 0 0-1.314 2.211c-.85 1.525-1.57 3.107-2.284 4.7-.375.837-.74 1.68-1.098 2.525-.317.712-.65 1.417-.979 2.125a34.552 34.552 0 0 1-1.113-.793 14.755 14.755 0 0 1-.749-.652 10.26 10.26 0 0 1-.717-.76 13.372 13.372 0 0 1-.258-.38l-.247-.208a6.878 6.878 0 0 1-.722-.683c-.447-.496-.842-1.04-1.242-1.574-.176-.22-.356-.434-.528-.656-.14-.18-.287-.36-.404-.556-.075-.124-.148-.25-.222-.375a8.473 8.473 0 0 1-.458-.864 24.498 24.498 0 0 1-.244-.568 1.398 1.398 0 0 0-.7.596c-.176.3-.263.732-.14 1.069.2.55.382 1.114.622 1.65.172.383.357.757.548 1.132.194.383.391.765.589 1.146.193.374.411.734.625 1.097.034.057.068.114.104.17.55.494 1.127.957 1.696 1.43.192.16.29.459.29.7a.888.888 0 0 1-.003.081c.584.491 1.198.95 1.833 1.373l.32.212a22.33 22.33 0 0 0-.252.69c-.141.41-.273.823-.403 1.237l-.049-.023c-.45-.219-.89-.472-1.314-.738-.47-.293-.931-.595-1.386-.91-.404-.282-.798-.58-1.193-.874a21.807 21.807 0 0 1-3.36-3.414 25.093 25.093 0 0 1-.513-.784 6.856 6.856 0 0 1-.373-.708 16.107 16.107 0 0 1-.325-.933c-.202-.277-.396-.56-.577-.85a11.76 11.76 0 0 1-.581-1.048c-.21-.428-.438-.85-.593-1.302-.128-.376-.245-.755-.373-1.13l-.075-.22c-.56.179-.976.71-.976 1.324 0 .494.004.987.026 1.482.013.273.06.578.106.844.036.213.071.425.116.636.189.888.458 1.76.848 2.582.411.865.964 1.645 1.575 2.38a21.65 21.65 0 0 0 1.715 1.855c.313.298.625.594.95.877.404.352.833.672 1.262.991.16.12.322.238.484.356.356.177.712.357 1.06.55l.81.45c.415.232.843.44 1.27.651.272.134.55.253.825.377l.163.074c.072.033.143.068.214.102l.087.043c.314.158.62.322.939.467.25.09.51.161.758.257.326.127.645.272.967.412.28.108.574.188.87.249.245.02.493.02.74.02h.991c.351 0 .672.16.89.41.509.07 1.016.14 1.526.198l.039.004c-.001.04-.004.078-.008.117-.002.018-.001.036-.004.053-.01.07-.023.139-.042.208l-.16.38-.055.127-.16.374a24.805 24.805 0 0 1-.36.8c-.022.112-.044.226-.063.34-.174 1.018-.24 2.048-.326 3.077-.06.724-.188 1.44-.247 2.165-.068.849-.064 1.697-.157 2.544l.124.928a3.488 3.488 0 0 0 .99 1.628 96.188 96.188 0 0 1 3.13-.668c.8-.153 1.602-.29 2.406-.413a3.46 3.46 0 0 0 .327-1.475c.075-.674.085-1.341.12-2.016.028-.508.082-1.013.143-1.518.11-.89.175-1.78.268-2.67.027-.133.057-.266.088-.398.11.041.218.082.328.121 1.335.48 2.72.652 4.117.83 1.331.189 2.659.403 3.986.612.894.14 1.789.288 2.687.4l.045.376c.1.747.187 1.496.337 2.235.042.206.085.413.136.618.172.701.5 1.343.829 1.981.05.098.107.192.17.283l.184.007a299.822 299.822 0 0 0 2.251.082l.248.007.435.013c.786.023 1.571.044 2.357.06l.062.002v-.001c.96.019 1.918.032 2.877.037.02-.03.038-.062.057-.094l.352-.833a3.522 3.522 0 0 0 0-1.855" fill="#fff"/></svg>