<svg xmlns="http://www.w3.org/2000/svg" width="308.405" height="302.362" viewBox="0 0 81.599 80"><path d="M78.227 21.555C70.495 4.661 46.24-3.388 25.478 3.358 14.63 6.884 4.774 14.674 1.844 25.674-.87 35.87 2.97 47.196 13.947 55.03c-.24 4.3-1.067 10.817-4.397 20.246-.652 1.849.751 3.7 2.614 3.7.59 0 1.18-.192 1.679-.572 6.936-5.282 14.67-10.084 21.311-15.565 6.789.748 14.044.168 20.923-2.067 19.635-6.381 29.268-23.663 22.15-39.217" fill="#a46031"/><path d="M40.797 59.09c-3.39 0-5.769-.345-7.203-.532-6.566 5.545-11.516 8.656-18.688 13.784a82.63 82.63 0 0 0 1.907-7.785c1.054-5.487 1.14-9.35 1.22-11.54l-1.085-.721C1.515 42.05.338 24.086 15.015 12.809c6.861-5.272 16.017-8.175 25.782-8.175 15.1 0 28.045 7.01 33.447 16.908 5.167 9.468 3.053 21.14-7.664 29.373-7.229 5.554-16.556 8.175-25.783 8.175m38.41-38.007C71.277 3.756 46.399-4.5 25.107 2.42 13.978 6.035 3.87 14.026.865 25.308-1.92 35.765 2.02 47.38 13.279 55.416c-.247 4.41-1.095 11.094-4.51 20.765-.67 1.897.77 3.794 2.68 3.794.606 0 1.21-.195 1.723-.586 7.114-5.417 15.046-10.343 21.858-15.963 6.963.767 14.404.171 21.459-2.121 20.139-6.544 30.018-24.27 22.718-40.222" fill="#734220"/><path d="M37.664 29.568a.405.405 0 0 1-.094.56.405.405 0 0 1-.56-.093.406.406 0 0 1 .094-.56.405.405 0 0 1 .56.093m.816.167a.405.405 0 0 1 .063-.155.392.392 0 0 1 .097-.104.396.396 0 0 1 .351-.048c.081.025.157.07.21.142a.397.397 0 0 1 .063.149c.004.016 0 .033.002.05.002.036.006.072 0 .108a.4.4 0 0 1-.16.254.406.406 0 0 1-.56-.094.4.4 0 0 1-.068-.3l.002-.002m32.113-1.374a6.073 6.073 0 0 0-1.856-1.3c-.358-.166-.737-.278-1.115-.391a7.26 7.26 0 0 0-.74-.18c-.256-.05-.514-.114-.773-.147l-.824-.105c-.32-.04-.648-.047-.97-.058-.365-.011-.728 0-1.092.022-.288.017-.576.05-.864.076-.438.04-.876.096-1.309.174-1.036.186-2.076.4-3.064.772a104.46 104.46 0 0 0-4.114 1.655c-.222.127-.441.258-.665.381-.367.202-.74.385-1.115.572-.245.137-.487.28-.728.426-.322.194-.657.365-.992.537-.242.133-.479.273-.716.414h-.002l-.455.269-.22.128c-.2.114-.4.226-.606.33a9.53 9.53 0 0 1-1.056.465c-.066.024-.128.054-.195.075l-.033.01a5.371 5.371 0 0 1-.673.154l-.042.009-.01.004c-.307.08-.613.165-.92.24l-.352.087-.135.033c-.065.016-.13.027-.194.042-.137.03-.274.06-.411.08a2.886 2.886 0 0 1-.988 0c-.251-.052-.591-.174-.775-.36-.116-.117-.233-.234-.337-.361a2.87 2.87 0 0 1-.286-.463c-.127-.24-.254-.472-.35-.725-.164-.431-.251-.891-.31-1.348a2.936 2.936 0 0 1-.023-.284v-.026a3.014 3.014 0 0 1-.066-.541c-.004-.154.008-.317.014-.466.002-.053.002-.109.011-.16.03-.173.088-.337.125-.508.036-.16.07-.322.091-.486.029-.222.04-.446.071-.668.013-.093.03-.185.049-.276a3.206 3.206 0 0 1-.207.16c-.124.087-.25.173-.375.259l-.244.165c-.165.11-.334.215-.507.314l-.039.023-.033.018c-.07.04-.143.077-.216.114a3.08 3.08 0 0 1-.339.16l-.018.008a2.36 2.36 0 0 1-.294.087 4.158 4.158 0 0 1-.322.06l-.012.003a2.43 2.43 0 0 1-.331.024 7.03 7.03 0 0 1-.479-.016c-.209-.014-.382-.072-.588-.14a1.414 1.414 0 0 1-.29-.138c-.027-.017-.052-.036-.077-.054a1.698 1.698 0 0 1-.196-.156l-.022-.021a2.311 2.311 0 0 1-.212-.24l-.027-.038a3.181 3.181 0 0 1-.264-.423 8.207 8.207 0 0 1-.426-.893 5.434 5.434 0 0 1-.261-.827 1.103 1.103 0 0 0-.14.383c-.034.204-.07.408-.106.612.02.189.04.378.057.568.038.424.029.849-.038 1.27a5.76 5.76 0 0 1-.243.939c-.107.314-.233.606-.441.872-.047.06-.097.117-.15.17l-.048.043a1.73 1.73 0 0 1-.12.107l-.069.049a1.823 1.823 0 0 1-.116.08l-.08.044a1.66 1.66 0 0 1-.118.06c-.03.013-.06.024-.09.035-.04.016-.079.03-.119.042-.032.01-.064.017-.096.025a1.571 1.571 0 0 1-.637.02 2.216 2.216 0 0 1-1.025-.5 5.247 5.247 0 0 1-.717-.756c-.149-.19-.294-.383-.438-.577-.144-.194-.28-.391-.411-.591-.359-.297-.726-.582-1.092-.87-.376-.294-.75-.588-1.135-.87-.391-.287-.801-.547-1.21-.808a27.88 27.88 0 0 0-1.422-.869c-.876-.487-1.793-.877-2.724-1.248-.444-.177-.904-.32-1.357-.473a22.916 22.916 0 0 0-1.565-.482c-.469-.12-.938-.226-1.416-.302a16.79 16.79 0 0 0-1.467-.175 23.461 23.461 0 0 0-1.782-.053 9.039 9.039 0 0 0-1.366.104 13.85 13.85 0 0 0-.784.144c-.243.054-.486.105-.725.173a5.55 5.55 0 0 0-.977.387c-.314.158-.63.33-.928.52l-.346.221a4.14 4.14 0 0 0-.878.766 2.772 2.772 0 0 0-.346.555c-.098.19-.151.41-.208.613a2.285 2.285 0 0 0-.067.51 5.44 5.44 0 0 1 .656-.09c.162-.013.324-.015.486-.013.147.002.293.009.44.015.027.002.054.002.082.003.188.01.375.027.56.052.049.007.096.011.144.02l.011.001c.33.059.658.157.97.272.225.083.438.182.644.305.284.17.57.343.83.549.189.15.36.31.525.486l.078.085c.21.227.409.455.595.702.142.189.28.38.42.572.132.183.266.365.383.559a4.476 4.476 0 0 1 .412.85c.072.207.115.416.163.63.106.478.163.95.158 1.439v.006c-.004.35-.02.705-.097 1.048l-.022.092a10.292 10.292 0 0 1 1.207-.694l.006-.002c.199-.098.4-.192.615-.25a9.29 9.29 0 0 1 1.029-.223c.24-.035.482-.043.723-.053a6.444 6.444 0 0 1 1.372.091l.01.002c.09.017.179.04.267.066.222.066.454.12.655.243.242.148.5.292.714.485a9.306 9.306 0 0 1 .97 1.014c.145.176.281.362.418.546.152.204.266.422.38.65.07.14.132.284.174.434a4.972 4.972 0 0 1 .194 1.024c.015.27.016.539.01.808-.002.084-.007.168-.01.251-.011.243-.024.486-.047.729-.014.147-.037.293-.058.44a7.71 7.71 0 0 1 .797-.342c.227-.08.454-.162.686-.23l.003-.002c.26-.076.521-.14.787-.192.154-.031.31-.059.468-.067a4.39 4.39 0 0 1 1.127.067c.24.05.478.114.713.182l.015.004c.228.067.459.124.688.188.372.103.748.208 1.101.367.419.189.822.453 1.16.768.256.237.498.492.717.763.092.112.188.225.269.346.188.277.333.581.44.898.158.475.26.97.251 1.471-.003.145-.008.289-.015.433l-.003.091c-.01.167-.023.334-.044.501-.019.149-.03.301-.061.448a5.618 5.618 0 0 1-.095.385l.103.068.043.028c.31.203.61.417.887.664.38.338.718.726 1.046 1.114.136.161.266.33.392.5.1.135.205.27.303.41l.012-.01c.09-.08.181-.16.276-.234.147-.115.297-.224.448-.333l.067-.05.012-.008.071-.05c.847-.597 1.71-1.199 2.711-1.502a.085.085 0 0 0 .01-.003c.026-.098.054-.195.081-.29.1-.349.204-.695.323-1.037 0-.003.002-.005.003-.007.183-.524.463-1.011.778-1.466a5.766 5.766 0 0 1 1.193-1.29l.002-.001c.14-.107.282-.21.425-.313.246-.175.496-.346.747-.515.403-.274.83-.5 1.253-.74.5-.282 1.032-.577 1.598-.704.334-.075.669-.163 1.009-.208l.345-.045h.002a6.313 6.313 0 0 1 .87-.16c.217-.024.437-.022.655-.038.257-.018.514-.03.772-.039.12-.003.24.002.36.005.343.007.698.014 1.03.109.375.107.727.217 1.074.392.3.152.594.333.876.516.391.253.767.526 1.11.842.096.088.19.179.282.272a14.239 14.239 0 0 1 .74-1.446c.232-.383.458-.776.782-1.091a19.4 19.4 0 0 1 .813-.748c.333-.29.68-.56 1.037-.819l.164-.118c.14-.1.281-.196.43-.28.255-.145.523-.306.804-.414l.01-.006a4.1 4.1 0 0 1 .73-.333h.003c.103-.034.208-.063.313-.094.322-.093.647-.173.977-.238.228-.044.464-.1.698-.101.3-.003.6.004.896.06.218.04.43.111.64.179.133.042.261.096.388.153.04.018.078.037.117.056.093.045.185.093.275.142.145.08.289.162.43.245.208.122.457.258.647.419.157.134.31.288.452.443.168-.155.34-.305.511-.453l.02-.018c.159-.134.32-.268.49-.39.002 0 .003-.002.005-.003l.026-.019c.177-.124.362-.224.558-.32.22-.106.46-.158.7-.199a2.52 2.52 0 0 1 .466-.028c.339.005.639.03.961.12.243.069.474.142.695.253.027.014.054.021.08.036l.014.006a5.246 5.246 0 0 1 .402.258c.1.072.199.147.293.235a8.195 8.195 0 0 1 .909 1.005c.075.097.14.197.202.3.148-.22.199-.47.19-.738-.022-.719-.033-1.436-.08-2.154a24.717 24.717 0 0 0-.22-2.052 8.115 8.115 0 0 0-.625-2.191 6.688 6.688 0 0 0-.61-1.055 8.788 8.788 0 0 0-.84-.99" fill="#fff"/></svg>