<?xml version="1.0" encoding="UTF-8" standalone="no"?>
<svg
   xmlns:dc="http://purl.org/dc/elements/1.1/"
   xmlns:cc="http://creativecommons.org/ns#"
   xmlns:rdf="http://www.w3.org/1999/02/22-rdf-syntax-ns#"
   xmlns:svg="http://www.w3.org/2000/svg"
   xmlns="http://www.w3.org/2000/svg"
   xmlns:sodipodi="http://sodipodi.sourceforge.net/DTD/sodipodi-0.dtd"
   xmlns:inkscape="http://www.inkscape.org/namespaces/inkscape"
   height="400"
   width="400"
   xml:space="preserve"
   version="1.1"
   id="svg4"
   sodipodi:docname="OSCA-Logo.svg"
   inkscape:export-filename="/home/lilil/Projects/NHM/OSCA-Logo.png"
   inkscape:export-xdpi="156.7347"
   inkscape:export-ydpi="156.7347"
   inkscape:version="0.92.4 (5da689c313, 2019-01-14)"><metadata
     id="metadata10"><rdf:RDF><cc:Work
         rdf:about=""><dc:format>image/svg+xml</dc:format><dc:type
           rdf:resource="http://purl.org/dc/dcmitype/StillImage" /><dc:title></dc:title></cc:Work></rdf:RDF></metadata><defs
     id="defs8" /><sodipodi:namedview
     pagecolor="#ffffff"
     bordercolor="#666666"
     borderopacity="1"
     objecttolerance="10"
     gridtolerance="10"
     guidetolerance="10"
     inkscape:pageopacity="0"
     inkscape:pageshadow="2"
     inkscape:window-width="1472"
     inkscape:window-height="1355"
     id="namedview6"
     showgrid="false"
     inkscape:zoom="0.9364708"
     inkscape:cx="8.3821079"
     inkscape:cy="261.88099"
     inkscape:window-x="-101"
     inkscape:window-y="327"
     inkscape:window-maximized="0"
     inkscape:current-layer="svg4" /><path
     d="m 299.85,257.6065 c -22.963,0.433 -44.216,2.38 -64.159,5.885 a 197.516,197.516 0 0 1 -8.294,11.753 c 19.078,-3.93 39.796,-6.41 62.549,-7.482 23.976,-0.646 47.348,-0.795 69.843,4.388 9.548,2.005 17.173,4.174 23.961,6.813 -6.212,-4.601 -12.53,-9.94 -18.848,-15.921 -19.313,-4.354 -40.699,-6.136 -65.052,-5.436 m 0,-18.682 c -18.403,0.346 -35.701,1.674 -52.115,3.985 -2,3.81 -4.045,7.49 -6.129,11.037 15.064,-2.44 31.12,-4.054 48.34,-4.866 22.004,-0.592 43.499,-0.754 64.273,3.228 a 284.257,284.257 0 0 1 -10.25,-11.564 c -13.611,-1.678 -28.234,-2.276 -44.119,-1.82 m 0,-18.682 c -14.881,0.28 -29.048,1.194 -42.604,2.756 a 310.766,310.766 0 0 1 -4.885,10.696 c 11.901,-1.572 24.396,-2.675 37.585,-3.296 15.71,-0.423 31.16,-0.622 46.275,0.742 a 318.853,318.853 0 0 1 -7.778,-10.49 c -9.073,-0.556 -18.578,-0.696 -28.593,-0.408 m 0,-18.683 c -12.076,0.228 -23.675,0.88 -34.865,1.948 a 340.014,340.014 0 0 1 -3.975,10.452 c 9.276,-1.02 18.905,-1.77 28.936,-2.244 10.905,-0.293 21.683,-0.477 32.312,-0.11 a 320.483,320.483 0 0 1 -6.423,-10.138 340.253,340.253 0 0 0 -15.985,0.092 m 5.821,-18.164 -0.33,-0.632 a 275.183,275.183 0 0 1 -4.258,-8.655 c -0.093,-0.197 -0.184,-0.395 -0.276,-0.592 a 261.985,261.985 0 0 1 -3.885,-8.672 c -0.08,-0.19 -0.152,-0.376 -0.232,-0.565 a 235.32,235.32 0 0 1 -3.448,-8.694 c -0.07,-0.184 -0.143,-0.369 -0.21,-0.552 a 210.143,210.143 0 0 1 -3.015,-8.706 l -0.164,-0.512 a 184.435,184.435 0 0 1 -2.548,-8.684 c -0.048,-0.184 -0.092,-0.364 -0.14,-0.547 a 155.835,155.835 0 0 1 -2.027,-8.677 c -0.039,-0.194 -0.07,-0.382 -0.108,-0.574 a 130.573,130.573 0 0 1 -1.084,-6.297 288.783,288.783 0 0 1 -0.679,6.397 c -0.022,0.192 -0.05,0.387 -0.073,0.579 -0.35,2.912 -0.752,5.86 -1.197,8.835 l -0.088,0.588 a 315.034,315.034 0 0 1 -1.46,8.84 c -0.036,0.204 -0.067,0.404 -0.103,0.609 a 337.527,337.527 0 0 1 -1.748,8.837 c -0.044,0.21 -0.093,0.423 -0.137,0.634 a 341.443,341.443 0 0 1 -2.008,8.853 c -0.051,0.212 -0.1,0.424 -0.152,0.636 a 353.029,353.029 0 0 1 -2.264,8.881 c -0.06,0.219 -0.112,0.436 -0.171,0.655 a 371.14,371.14 0 0 1 -2.273,8.03 c -0.086,0.285 -0.174,0.567 -0.26,0.854 -0.067,0.23 -0.138,0.457 -0.206,0.687 a 363.094,363.094 0 0 1 -3.034,9.605 c 7.074,-0.66 14.352,-1.17 21.853,-1.523 6.97,-0.188 13.887,-0.328 20.748,-0.313 a 295.619,295.619 0 0 1 -5.023,-9.325 m -243.774,4.308 c 0,-16.686 -3.6,-22.413 -13.743,-22.413 -10.308,0 -13.744,5.727 -13.744,22.413 v 41.883 c 0,16.524 3.273,22.252 13.744,22.252 10.143,0 13.743,-5.728 13.743,-22.252 z m 11.616,69.695 c -5.727,7.527 -14.398,11.29 -25.359,11.29 -10.963,0 -20.288,-4.09 -25.196,-11.29 -4.908,-6.87 -6.708,-14.396 -6.708,-27.648 v -42.372 c 0,-13.252 1.964,-21.433 6.708,-27.815 5.399,-7.361 13.905,-11.124 25.196,-11.124 10.961,0 20.287,3.927 25.359,11.124 4.744,6.874 6.706,14.563 6.706,27.815 v 42.372 c 0,13.252 -1.962,21.27 -6.706,27.648 m 53.82,11.289 c -29.614,0 -34.848,-25.521 -34.848,-29.612 0,-2.29 1.8,-3.926 4.254,-4.58 l 6.543,-1.962 c 1.31,-0.328 2.455,-0.656 3.272,-0.656 1.801,0 2.945,0.98 3.6,3.762 2.781,10.635 8.835,16.199 17.179,16.199 7.852,0 13.252,-5.4 13.252,-13.252 0,-7.364 -3.599,-12.107 -17.179,-22.905 l -11.779,-9.326 c -9.49,-7.526 -16.361,-16.524 -16.361,-29.285 0,-17.015 12.761,-28.63 30.593,-28.63 24.214,0 31.74,22.74 31.74,26.175 0,2.127 -1.473,3.6 -3.6,4.254 l -8.178,2.456 c -0.656,0.162 -1.474,0.325 -1.964,0.325 -1.964,0 -3.11,-1.145 -3.927,-3.599 -2.944,-8.508 -7.69,-12.76 -14.233,-12.76 -6.546,0 -11.616,4.907 -11.616,11.779 0,6.381 3.434,11.616 12.106,18.487 l 8.016,6.38 c 13.088,10.308 25.195,18.489 25.195,37.138 0,17.67 -12.924,29.612 -32.065,29.612 m 76.071,0 c -11.616,0 -21.104,-4.908 -26.012,-13.088 -4.417,-7.69 -5.728,-13.742 -5.728,-31.412 v -32.557 c 0,-19.14 1.31,-25.359 6.71,-32.392 5.562,-7.199 14.069,-10.963 24.867,-10.963 19.796,0 31.903,13.416 31.903,35.339 0,2.453 -2.619,4.581 -4.908,4.581 h -8.344 c -2.455,0 -4.581,-2.128 -4.745,-4.581 -0.491,-12.107 -5.4,-18.488 -14.071,-18.488 -9.815,0 -13.252,6.219 -13.252,22.905 v 38.61 c 0,18.816 3.437,25.197 13.417,25.197 9.16,0 13.906,-7.036 14.234,-21.433 0,-2.78 1.962,-4.582 4.744,-4.582 h 8.344 c 2.945,0 4.908,1.802 4.908,4.746 0,24.704 -11.126,38.118 -32.067,38.118"
     id="path2"
     inkscape:connector-curvature="0"
     style="fill:#231f20" /></svg>